<!DOCTYPE svg PUBLIC "-//W3C//DTD SVG 20010904//EN" "http://www.w3.org/TR/2001/REC-SVG-20010904/DTD/svg10.dtd">
<svg version="1.0" xmlns="http://www.w3.org/2000/svg" width="900px" height="900px" viewBox="0 0 9000 9000" preserveAspectRatio="xMidYMid meet">
<g id="layer101" fill="#27a9dd" stroke="none">
 <path d="M4880 7970 c-404 -253 -735 -464 -735 -470 0 -6 331 -217 735 -470 l735 -459 5 277 5 277 795 0 c733 0 800 -1 860 -18 134 -37 219 -111 234 -205 18 -115 -33 -220 -418 -856 -163 -269 -295 -490 -293 -492 1 -1 147 -88 324 -192 228 -134 325 -187 331 -178 8 9 276 468 535 916 27 47 55 92 62 100 27 31 108 206 140 304 131 397 62 764 -195 1027 -153 156 -336 252 -595 312 -86 20 -126 21 -935 26 l-845 6 -5 277 -5 277 -735 -459z"/>
 <path d="M1715 7863 c-73 -9 -234 -47 -299 -70 -281 -100 -497 -295 -601 -543 -109 -259 -89 -597 55 -905 20 -44 224 -408 453 -809 230 -401 417 -734 417 -740 -1 -6 -79 -58 -175 -116 -96 -58 -174 -107 -174 -110 0 -6 1345 -795 1372 -806 16 -6 17 38 17 830 0 460 -3 836 -7 836 -5 0 -91 -54 -193 -120 -102 -65 -188 -116 -192 -112 -4 4 -180 310 -392 680 -212 370 -393 681 -403 690 -28 28 -84 159 -99 235 -26 125 6 207 103 259 118 65 69 62 1161 66 l992 3 0 369 0 370 -1002 -1 c-552 -1 -1016 -4 -1033 -6z"/>
 <path d="M6715 4666 c-11 -8 -321 -186 -690 -396 -368 -211 -676 -388 -683 -395 -10 -9 25 -34 169 -121 99 -60 183 -114 186 -121 2 -6 -42 -89 -98 -185 -797 -1347 -817 -1379 -907 -1459 -123 -109 -236 -102 -367 21 -76 73 -112 128 -495 765 -189 314 -348 576 -354 582 -9 10 -80 -27 -320 -166 -170 -99 -312 -183 -317 -188 -5 -5 96 -187 242 -434 138 -233 296 -500 352 -594 150 -255 211 -339 332 -461 201 -203 408 -312 651 -345 217 -29 459 37 671 183 98 67 261 229 334 333 32 44 253 414 494 822 l437 742 76 -48 c176 -110 310 -191 316 -191 3 0 6 376 6 835 0 459 -3 835 -7 834 -5 0 -17 -6 -28 -13z"/>
 </g>

</svg>