<?xml version="1.0" encoding="utf-8"?>
<!-- Generator: Adobe Illustrator 16.0.0, SVG Export Plug-In . SVG Version: 6.00 Build 0)  -->
<!DOCTYPE svg PUBLIC "-//W3C//DTD SVG 1.1 Tiny//EN" "http://www.w3.org/Graphics/SVG/1.1/DTD/svg11-tiny.dtd">
<svg version="1.1" baseProfile="tiny" id="Layer_1" xmlns="http://www.w3.org/2000/svg" xmlns:xlink="http://www.w3.org/1999/xlink"
	 x="0px" y="0px" width="160px" height="190px" viewBox="0 0 160 190" xml:space="preserve">
<g>
	<path fill-rule="evenodd" fill="#545454" d="M10.136,62.631c-2.042-0.619-1.777-2.935-3.042-4.126c0-1.878,0-3.756,0-5.635
		c0.627-2.546,2.388-3.958,4.66-5.087c8.901-4.423,18.335-7.505,27.553-11.126c1.872-0.735,3.792-1.328,5.431-2.544
		c3.346-1.43,6.669,0.678,10.099,0.078c1.324-0.232,2.93,1.205,1.965,3.299c-6.133,3.346-12.893,5.086-19.385,7.498
		c-3.122,1.16-6.271,2.262-9.32,3.354c17.191,0.626,34.447,1.175,51.673,2.456c5.984,0.444,12.044-0.208,17.96,1.224
		c3.369,2.155,6.146,4.661,6.188,9.151c0.015,1.298,0.888,2.473,2.114,3.178c1.064,0.612,2.041,1.262,1.883,2.717
		c-1.219,1.554-2.89,1.681-4.67,1.498c-0.447-0.16-0.839-0.401-1.19-0.717c-0.658-0.844-1.6-0.917-2.541-0.882
		c-9.482,0.343-18.906-0.882-28.381-1.013c-7.58-0.104-15.171-0.66-22.762-0.924c-4.75-1.172-9.584-0.313-14.371-0.581
		c-1.202-0.021-2.404-0.042-3.585-0.304c-3.025-0.919-6.131-0.355-9.2-0.485C17.467,63.891,13.8,63.281,10.136,62.631z"/>
	<path fill-rule="evenodd" fill="#545454" d="M111.77,7.887c0.515,0.286,1.028,0.571,1.542,0.857
		c-1.073,2.848-3.324,0.535-4.963,1.139c0.636,0.068,1.413-0.328,1.716,0.491c0.224,0.6-0.252,0.939-0.721,1.201
		c-0.584,0.326-1.262,0.426-1.85,0.726c-2.201,1.122-4.267,2.343-3.609,5.4c0.232,1.087-0.174,1.808-1.364,1.957
		c-23.065-1.55-46.18-1.687-69.246-2.803c-2.992-0.777-6.045-0.206-9.068-0.27c-2.101-0.044-4.193,0.537-6.197-0.645
		c-1.828-1.079-2.708,1.325-4.279,1.321c-1.595,0.145-3.07-0.229-3.655-1.816c-0.542-1.467,0.652-2.483,1.528-3.484
		c2.961-3.386,6.529-5.892,10.786-7.39c3.489,0,6.977,0,10.464,0c3.221,0.685,6.441,0.685,9.661,0c1.878,0,3.757,0,5.635,0
		c0.985,0.792,2.143,0.255,3.209,0.416c0.739,0,1.478-0.001,2.217,0c0.878-0.119,1.842,0.309,2.624-0.415c1.878,0,3.757,0,5.635,0
		c2.846,0.887,5.769,0.187,8.646,0.416c2.26-0.265,4.405,0.324,6.554,0.883c2.692,0.53,5.379,0.449,8.064-0.075
		C93.994,6.482,102.923,6.664,111.77,7.887z"/>
	<path fill-rule="evenodd" fill="#545454" d="M77.124,6.149c-2.142-0.291-4.284-0.581-6.427-0.87
		c-0.265-0.156-0.354-0.313-0.267-0.472c0.086-0.159,0.173-0.239,0.261-0.239c1.611,0,3.221,0,4.831,0c1.207,1.27-1.407,0.022,0,0
		c10.162-0.164,24.421,2.016,34.549,2.458c0.578,0.025,1.133,0.562,1.698,0.86c-9.138-0.537-18.276-1.074-27.415-1.611
		C81.938,6.657,79.521,6.902,77.124,6.149z"/>
	<path fill-rule="evenodd" fill="#545454" d="M42.516,4.568c-3.22,1.279-6.44,1.285-9.661,0C36.076,4.568,39.296,4.568,42.516,4.568
		z"/>
	<path fill-rule="evenodd" fill="#545454" d="M70.691,4.568c0.001,0.237,0.003,0.473,0.006,0.711
		c-2.958-0.19-6.024,0.992-8.86-0.711C64.788,4.568,67.739,4.568,70.691,4.568z"/>
	<path fill-rule="evenodd" fill="#545454" d="M51.385,5.296c-1.125-0.038-2.382,0.518-3.234-0.728c1.074,0,2.146,0,3.22,0
		c0.259,0.157,0.347,0.316,0.265,0.48C51.553,5.214,51.47,5.296,51.385,5.296z"/>
	<path fill-rule="evenodd" fill="#545454" d="M56.201,4.568c-0.517,1.18-1.527,0.69-2.388,0.706
		c-0.279-0.146-0.375-0.299-0.291-0.46c0.085-0.164,0.173-0.246,0.264-0.246C54.591,4.568,55.396,4.568,56.201,4.568z"/>
	<path fill-rule="evenodd" fill="#545454" d="M53.787,4.568c-0.003,0.236,0.004,0.473,0.026,0.707
		c-0.81,0.007-1.619,0.016-2.428,0.022c-0.013-0.244-0.017-0.486-0.014-0.729C52.176,4.568,52.981,4.568,53.787,4.568z"/>
	<path fill-rule="evenodd" fill="#575757" d="M94.906,188.305c-6.41,0.468-12.731-0.718-19.089-1.133
		c-10.816-0.704-21.605-1.818-32.409-2.713c-5.695-0.473-7.703-2.084-8.858-7.813c-2.008-9.959-3.922-19.938-5.808-29.922
		c-4.712-24.935-9.388-49.877-14.063-74.82c-0.221-1.179-0.287-2.387-0.424-3.582c-0.555-1.597-0.294-3.224-0.185-4.845
		c0.523-0.642,1.188-0.546,1.868-0.356c1.963,1.842,1.656,4.394,2.098,6.716c0.272,1.436,0.432,2.908,1.107,4.252
		c1.106,0.52,1.727-0.433,2.491-0.842c4.16-2.236,8.525-3.596,13.262-4.206c17.851-2.297,35.199-0.879,51.862,6.314
		c4.773,2.062,8.819,5.018,11.275,9.783c2.134,4.568,0.694,9.217,0.146,13.793c-0.401,3.351-0.357,6.605,0.012,9.946
		c0.313,2.835,1.472,5.971-1.483,8.365c-0.622,0.503,0.039,1.517,0.019,2.299c-0.241,8.536,1.314,17.018,0.794,25.563
		c-0.012,0.678-0.116,1.344-0.266,2.001c-0.375,9.38-2.262,18.712-0.828,28.142C96.635,179.683,97.726,184.224,94.906,188.305z"/>
	<path fill-rule="evenodd" fill="#515151" d="M96.452,147.058c0-0.536,0-1.073,0-1.609c0.828-1.458,0.804-3.064,0.805-4.663
		c0.01-14.522,0.954-29.004,1.938-43.48c0.194-2.872-1.517-6.232,1.723-8.512c1.947-0.424,1.547,1.68,2.522,2.459
		c3.942-5.321,8.08-10.36,12.78-14.949c3.114-3.042,6.591-5.606,10.5-7.248c6.149-2.585,9.643-1.111,13.486,5.048
		c0.69-7.396,4.03-13.57,2.68-20.516c0.256-1.449,1.553-1.67,2.584-2.21c0.948-0.282,1.902-0.867,2.846,0.008
		c-1.729,6.289-2.616,12.729-3.487,19.174c-0.78,3.277-1.026,6.639-1.606,9.948c-1.342,11.337-3.238,22.583-5.62,33.745
		c-0.546-0.248-0.294-0.883-0.616-1.277c0.301,0.888-0.182,1.874,0.456,2.672c-1.621,10.198-3.241,20.396-4.861,30.595
		c-7.199-2.345-10.379-0.768-13.887,6.284c-2.624,5.272-3.628,10.845-4.005,16.604c-0.163,2.483,0.809,4.699,1.824,6.889
		c-6.985,4.479-13.824,9.213-21.607,12.287c0.883-4.321,0.74-8.699,0.74-13.072c0.084-8.564,0.378-17.132,1.449-25.625
		C97.256,148.337,95.001,148.209,96.452,147.058z"/>
	<path fill-rule="evenodd" fill="#575757" d="M148.316,51.385c-0.919,0.226-1.839,0.453-2.758,0.679
		c-4.478-1.604-6.486,2.287-9.373,4.22c-0.338,0.17-0.697,0.252-1.074,0.267c-3.725,0.734-8.311-0.59-10.296,4.314
		c-4.732,2.591-9.803,4.354-14.889,6.071c-0.75,0.253-1.563,0.26-2.208-0.382c-2.85-1.776-6.212-3.156-4.808-7.776
		c0.084-0.279-1.532-3.639-3.719-4.336c-1.032-0.33-0.452-0.994-0.324-1.564c1.184-1.476,2.992-1.705,4.616-2.235
		c11.071-3.613,22.022-7.6,33.221-10.812c0.633-0.173,1.272-0.347,1.797-0.363c-6.808-3.524-13.62-7.305-20.427-11.089
		c-3.624-2.014-7.356-3.826-10.908-5.954c-1.367-0.819-3.402-1.13-3.473-3.359c-2.187-4.48-0.365-7.199,5.768-8.449
		c-0.634-0.292-1.174-0.542-1.87-0.864c1.916-0.954,4.075,0.425,5.72-1.009c6.819,4.156,13.655,8.284,20.448,12.484
		c2.266,1.4,4.504,2.803,7.143,3.386c-0.878,0.836-2.004,0.279-2.898,0.521c2.412-0.001,4.926-0.243,7.385,0.437
		c3.469,1.317,4.389,3.343,2.995,7.082c-2.285,6.135,0.151,12.01,2.056,17.819C149.951,51.289,149.075,51.203,148.316,51.385z"/>
	<path fill-rule="evenodd" fill="#1B1B1B" d="M136.162,148.539c3.357-0.579,5.234,1.326,6.627,3.99
		c3.982,7.618,2.007,22.085-3.877,28.368c-1.907,2.037-4.03,3.533-7.037,2.451c-3.56-0.515-5.294-3.077-5.902-6.144
		c-1.82-9.149-1.582-18.051,4.483-25.883C131.9,149.456,133.549,148.011,136.162,148.539z"/>
	<path fill-rule="evenodd" fill="#333333" d="M136.162,148.539c-5.822,2.192-7.679,7.231-9.202,12.604
		c-1.271,4.479-0.874,9.029-0.563,13.507c0.252,3.635,2.056,6.804,5.479,8.698c-1.852-0.177-3.701-0.399-5.557-0.523
		c-4.227-0.279-6.443-2.742-7.369-6.656c-1.343-0.693-2.169-1.631-2.371-3.281c-1.012-8.268,0.57-15.938,5.347-22.778
		c2.941-4.213,7.35-4.992,10.889-2.298C133.929,148.054,135.045,148.297,136.162,148.539z"/>
	<path fill-rule="evenodd" fill="#515151" d="M150.439,50.473c-3.663-4.354-4.432-9.543-3.695-14.882
		c0.265-1.921,0.158-4.032,1.577-5.991c0.87-1.202-2.272-1.735-2.763-3.297c-0.287-0.433-0.22-0.799,0.204-1.099
		c1.084-0.09,2.175-0.283,3.218,0.222c6.127,0.091,8.054,1.676,9.565,7.344c0.999,3.746,0.648,7.366-0.365,10.988
		C157.084,47.676,154.902,50.406,150.439,50.473z"/>
	<path fill-rule="evenodd" fill="#464646" d="M132.813,147.812c-5.738-1.714-9.011-0.238-11.992,6.153
		c-3.311,7.102-5.193,14.473-1.872,22.204c-0.785-0.474-1.608-0.33-2.436-0.151c-3.801-0.669-2.931-4.347-2.883-6.173
		c0.198-7.777,1.787-15.376,6.594-21.834c1.782-2.396,3.932-4.271,7.338-4.246c2.229,0.017,3.887,0.547,5.019,2.476
		C132.658,146.764,132.735,147.287,132.813,147.812z"/>
	<path fill-rule="evenodd" fill="#545454" d="M15.977,63.452c-0.526-0.031-1.052-0.061-1.578-0.091
		c-0.341,0.428-0.702,0.445-1.083,0.055c-1.065-0.24-2.266,0.068-3.18-0.785c3.818-0.031,7.636-0.061,11.455-0.091
		c2.889,1.099,5.994-0.265,8.888,0.778c1.062,0.002,2.125,0.005,3.187,0.007c-1.357,3.214-4.28,1.366-6.438,2
		c-2.373,0.058-4.746,0.031-7.118-0.041C18.494,65.236,16.935,65.01,15.977,63.452z"/>
	<path fill-rule="evenodd" fill="#515050" d="M143.223,80.506c-0.267-3.445,0.24-6.766,1.606-9.948
		C144.791,73.956,144.278,77.275,143.223,80.506z"/>
	<path fill-rule="evenodd" fill="#525252" d="M145.561,25.528c-0.001,0.259-0.001,0.517-0.002,0.776
		c-2.343-0.79-4.788-0.935-7.554-0.813c1.047-1.15,2.058-0.61,2.897-0.877c1.286,0.05,2.573,0.1,3.858,0.15
		C145.11,24.933,145.382,25.183,145.561,25.528z"/>
	<path fill-rule="evenodd" fill="#FBFBFB" d="M13.316,63.416c0.36-0.019,0.721-0.037,1.083-0.055
		c-0.047,1.655-0.096,3.309-0.144,4.962C13.291,66.812,13.522,65.072,13.316,63.416z"/>
	<path fill-rule="evenodd" fill="#515151" d="M137.442,115.646c-1.109-0.887-0.645-2.026-0.244-3.203
		c0.135,0.604,0.269,1.205,0.404,1.809C137.549,114.717,137.495,115.181,137.442,115.646z"/>
	<path fill-rule="evenodd" fill="#575757" d="M145.561,25.528c-0.266-0.254-0.533-0.509-0.8-0.764
		c1.456-0.095,2.889-0.041,4.219,0.663C147.841,25.46,146.7,25.494,145.561,25.528z"/>
	<path fill-rule="evenodd" fill="#2C2C2C" d="M137.453,40.772c-11.313,3.649-22.625,7.309-33.946,10.932
		c-1.516,0.485-3.092,0.786-4.639,1.172c-17.731-0.917-35.451-1.975-53.198-2.654c-6.925-0.265-13.884-0.202-20.807-0.73
		c-0.126-0.337-0.251-0.675-0.377-1.012c10.836-3.91,21.672-7.821,32.508-11.731c0.556-1.278,1.682-1.714,2.922-1.986
		c6.388-1.41,12.746,0.089,19.097,0.369c6.12,0.27,12.254,0.839,18.373,1.109c11.066,0.489,22.106,1.411,33.17,1.922
		C132.926,38.273,136.031,37.643,137.453,40.772z"/>
	<path fill-rule="evenodd" fill="#464646" d="M107.719,66.553c5.844-1.602,11.342-4.113,16.911-6.435
		c3.047-2.493,6.972-2.706,10.471-4.022c0.265-0.001,0.531-0.005,0.797-0.011c2.362-0.963,4.084-3.852,7.247-2.416
		c0.868,0.108,1.612,0.396,1.489,1.46c-0.81,6.954-2.454,13.729-4.044,20.477c-1.163-0.054-1.312-0.785-1.624-1.345
		c-3.49-6.239-7.229-6.942-13.556-3.434c-8.948,4.964-14.848,12.836-20.878,20.653c-0.557,0.722-0.868,1.669-2.051,1.817
		c-0.819-1.337-0.194-2.818-0.396-4.203c-0.661-0.789-0.918-1.696-0.811-2.713c0.511-4.44,1.231-8.859,1.266-13.348
		c0.013-1.696-0.188-3.474,1.169-4.859C104.848,67.143,106.686,67.841,107.719,66.553z"/>
	<path fill-rule="evenodd" fill="#515151" d="M59.42,35.959c-0.809,0.263-1.617,0.527-2.425,0.79c-2.704-3.322-6.6-0.608-9.76-1.859
		c-0.599-0.237-1.487-0.241-2.202-0.552c-10.771-5.488-21.32-11.373-31.668-17.62c2.002-1.331,3.496-2.463,6.561-1.195
		c2.821,1.166,6.631-0.011,9.998-0.259c0.839-0.062,1.573-0.226,2.13,0.563c8.388,5.801,17.058,11.163,25.692,16.583
		C58.853,33.106,61.583,33.521,59.42,35.959z"/>
	<path fill-rule="evenodd" fill="#545454" d="M48.177,64.128c17.335,0.548,34.67,1.112,52.008,1.614
		c1.749,0.05,2.897,0.41,2.734,2.434c-0.179,0.162-0.357,0.323-0.535,0.488c-1.595,0.792-3.316,0.576-5.007,0.637
		c-13.589-0.83-27.209-0.981-40.781-2.078c-5.99-0.483-12.037,0.17-17.993-0.978c-1.428-0.275-2.964-0.108-4.146-1.208
		c-0.128-0.833,0.277-1.269,1.071-1.246C39.746,63.917,43.981,63.31,48.177,64.128z"/>
	<path fill-rule="evenodd" fill="#545454" d="M103.709,68.175c0.079,6.223-0.12,12.421-1.622,18.507
		c-0.957,1.34-2.059,1.114-2.104-0.349c-0.162-5.2-0.561-10.427,0.528-15.591c0.282-1.335,1.349-1.928,2.387-2.551l0.021-0.014
		C103.183,68.171,103.445,68.17,103.709,68.175z"/>
	<path fill-rule="evenodd" fill="#545454" d="M48.177,64.128c-4.559,0.46-9.223-0.902-13.711,0.788
		c-2.608,1.448-5.158,2.343-7.298-0.751c2.15-0.406,4.508,0.8,6.498-0.839C38.494,63.757,43.42,62.419,48.177,64.128z"/>
	<path fill-rule="evenodd" fill="#545454" d="M30.479,63.318c-2.952-0.388-6.051,0.917-8.888-0.778
		C24.542,62.922,27.635,61.698,30.479,63.318z"/>
	<path fill-rule="evenodd" fill="#464646" d="M59.42,35.959c0.965-1.823-0.769-1.872-1.638-2.428
		C49.062,27.951,40.327,22.391,31.6,16.819c-0.197-0.126-0.343-0.333-0.513-0.503c0.323-0.163,0.645-0.325,0.967-0.488
		c13.32-0.189,26.617,0.772,39.928,1.036c9.252,0.183,18.576,0.457,27.824,1.413c1.31,0.135,2.593,0.52,3.889,0.79
		c8.375,5.223,17.163,9.703,25.827,14.409c3.51,1.907,6.964,3.914,10.774,6.063c-1.082,0.47-1.961,0.854-2.842,1.235
		c-2.104-1.313-4.594-1.327-6.858-1.473c-11.551-0.749-23.13-1.074-34.686-1.771c-10.207-0.617-20.396-1.499-30.587-2.332
		C63.271,35.03,61.356,35.466,59.42,35.959z"/>
	<path fill-rule="evenodd" fill="#505050" d="M77.124,6.149c2.411,0.042,4.822,0.084,7.231,0.126
		C81.926,7.354,79.511,7.534,77.124,6.149z"/>
	<path fill-rule="evenodd" fill="#505050" d="M27.167,64.165c2.307,1.474,4.867,0.487,7.298,0.751
		c18.412,0.86,36.796,2.244,55.236,2.595c2.748,0.052,5.548,0.67,8.356,0.667c0.521,5.667,1.393,11.352-0.802,16.892
		c-5.066-7.505-13.161-10.501-21.153-12.561c-9.063-2.335-18.489-4.208-27.965-3.444c-10.167,0.819-20.811,0.205-29.418,7.449
		c-1.958-4.328-1.882-8.794-2.743-13.064C19.635,64.819,23.44,63.876,27.167,64.165z"/>
	<path fill-rule="evenodd" fill="#515151" d="M97.257,85.07c0.313-5.628-0.751-11.323,0.802-16.892
		c1.613,0.004,3.226,0.008,4.839,0.013c-3.178,3.985-1.401,8.803-2.032,13.202c-0.199,1.392,0.176,2.987-0.23,4.555
		c-0.37,1.426,0.736,0.916,1.452,0.734c0,0.804-0.002,1.608-0.002,2.413c-2.042,0.271-2.158,2.089-2.087,3.356
		c0.694,12.14-1.385,24.173-1.322,36.302c0.021,4.194-0.575,8.493-0.61,12.761c-0.013,1.538-0.385,2.905-1.613,3.935
		c0.561-7.064-1.653-14.175-0.618-21.071c1.59-10.591-0.111-21.332,2.171-31.822C98.56,90.006,97.493,87.567,97.257,85.07z"/>
	<path fill-rule="evenodd" fill="#FBFBFB" d="M45.731,131.776c-2.302-3.603-4.526-7.246-5.902-11.332
		c0.511-0.465,1.126-0.588,1.791-0.557c1.266,0.26,2.553,0.333,3.84,0.412c1.601,0.85,3.569-0.175,5.104,0.999h-0.002
		c2.391,1.158,5.102-0.37,7.479,0.893c0.447,2.896-0.111,5.806,0.132,8.697c0.157,1.879-1.17,2.593-2.428,2.272
		C52.44,132.321,48.998,132.703,45.731,131.776z"/>
	<path fill-rule="evenodd" fill="#FBFBFB" d="M61.813,102.828c-0.096-1.075-0.644-1.879-1.496-2.502
		c-0.597-1.766-2.124-2.862-3.135-4.331c-0.719-0.959-1.779-1.616-2.419-2.626c-0.39-0.615-0.501-1.277,0.632-1.153
		c2.479,0.253,4.961,0.742,7.435,0.702c3.424-0.056,6.097,1.009,6.979,4.42c0.483,1.868,4.624,1.622,2.512,4.69
		c-1.901,4.369-6.225,5.734-10.51,3.56C59.592,104.464,62.819,103.729,61.813,102.828z"/>
	<path fill-rule="evenodd" fill="#FBFBFB" d="M44.579,100.253c1.467-2.355,2.936-4.711,4.402-7.066
		c2.574-0.828,4.971-0.961,6.658,1.692c-0.03,1.743-0.58,3.462-0.267,5.228c0.055,1.048-0.352,1.99-0.665,2.953
		c-0.197,0.343-0.445,0.666-0.585,1.03c-1.374,3.577-3.416,4.062-6.267,1.466c-0.871-0.794-1.937-1.372-2.913-2.049
		C43.914,102.524,45.734,101.222,44.579,100.253z"/>
	<path fill-rule="evenodd" fill="#FBFBFB" d="M61.115,128.328c0.115-0.137,0.112-0.271-0.01-0.402
		c0.778-1.836,1.992-3.402,3.111-5.028c0.488-0.347,0.977-0.694,1.466-1.041c1.321,3.135,4.525,1.248,6.566,2.46
		c0.54-0.191,1.083-0.343,1.652-0.114c1.264,1.107,1.66,2.389,0.714,3.894c-0.883,1.401-0.893,3.034-1.27,4.57
		c-0.05,0.248-0.128,0.489-0.233,0.72c-2.638,0.758-5.35,0.205-8.016,0.457c-0.523-0.434-1.048-0.866-1.572-1.299
		C62.475,131.278,61.866,129.764,61.115,128.328z"/>
	<path fill-rule="evenodd" fill="#FBFBFB" d="M47.379,109.164c0.198,0.482,0.294,1.054,0.613,1.436
		c2.202,2.639,1.875,4.68-1.342,6.108c-1.007,1.642-0.727,4.772-4.167,3.604c-1.569-0.687-3.397-1.022-4.028-2.975
		c-0.548-2.443-0.915-4.858,0.737-7.083c0.694-0.934-0.03-1.396-0.718-1.83c-0.073-0.593,0.244-1.291,0.714-1.157
		C41.888,108.04,44.966,107.194,47.379,109.164z"/>
	<path fill-rule="evenodd" fill="#FBFBFB" d="M78.779,113.134c0.452,0.865,0.904,1.729,1.356,2.595
		c0.664,0.316,0.598,0.872,0.478,1.447c-0.613,0.69-1.601,0.91-2.071,1.823c-0.885,1.72-1.961,2.112-3.252,0.302
		c-1.047-1.469-2.844-0.305-4.105-1.086c-1.866-1.292-2.202-3.729-4.047-5.169c-1.281-0.999-0.031-2.028,1.105-2.514
		c1.87-0.799,3.772-1.521,5.662-2.274c1.213-0.669,2.126-0.648,2.727,0.868C77.19,110.532,78.132,111.76,78.779,113.134z"/>
	<path fill-rule="evenodd" fill="#515151" d="M96.452,147.058c0.472,0.977,1.397,1.368,1.163,3.093
		c-0.669,4.927-0.391,9.975-0.652,14.966c-0.178,3.396-0.164,6.839-1.316,10.116c-1.728-4.342-0.889-8.893-0.651-13.278
		c0.251-4.651,0.881-9.287,0.781-13.969C95.77,147.681,96.217,147.367,96.452,147.058z"/>
	<path fill-rule="evenodd" fill="#FBFBFB" d="M71.186,118.215c2.36-1.087,4.712-2.146,5.522,1.639
		c1.955,0.06-0.392-5.105,3.384-2.584c1.052,0.7,0.688,1.557,0.265,2.417l-0.002,0.004c-0.348,0.838-0.793,1.602-1.583,2.109
		c-1.098,0.625-2.202,1.235-3.432,1.581c-1.105,0.189-1.714-0.467-2.212-1.308C72.48,120.787,71.833,119.502,71.186,118.215z"/>
	<path fill-rule="evenodd" fill="#FBFBFB" d="M73.344,132.666c0.099-1.844-2.212-4.077,0.93-5.509
		c0.221-0.102-0.228-1.671-0.365-2.558c0.589-0.957,1.734-0.907,2.57-1.422c0.831-0.142,1.623-0.167,2.087,0.733
		C77.053,126.965,76.023,130.307,73.344,132.666z"/>
	<path fill-rule="evenodd" fill="#FBFBFB" d="M45.731,131.776c3.265,0.326,6.577-0.09,9.82,0.769
		c1.083,0.285,2.418,0.419,2.33-1.571c-0.13-2.938-0.069-5.887-0.088-8.83c-0.273-0.197-0.359-0.39-0.262-0.575
		c0.097-0.184,0.191-0.276,0.288-0.276c0.768,4.119,2.451,8.305-0.867,12.133c-1.323,0.499-2.641,0.562-3.953-0.039
		c-1.374-0.241-2.748-0.484-4.123-0.727c-1.052,0.396-2.101,0.548-3.133-0.063C45.738,132.322,45.735,132.049,45.731,131.776z"/>
	<path fill-rule="evenodd" fill="#FBFBFB" d="M61.813,102.828c2.71,0.387-2.58,2.331,0.446,2.474
		c2.821,0.134,5.881,2.688,8.445-0.58c0.641-0.816,1.083-1.79,1.617-2.692c-1.15,6.196-2.15,6.652-9.897,4.249
		c-0.917-0.284-2.465,0.224-2.645-1.2C59.625,103.855,61.289,103.744,61.813,102.828z"/>
	<path fill-rule="evenodd" fill="#FBFBFB" d="M55.51,95.494c-1.524-2.613-4.008-2.514-6.529-2.307
		c2.036-0.991,4.059-2.083,6.414-0.971c0.004,1.667,2.066,1.877,2.364,3.338c-0.088,0.526-0.396,0.862-0.89,1.041
		C56.143,96.567,55.646,96.253,55.51,95.494z"/>
	<path fill-rule="evenodd" fill="#FBFBFB" d="M55.51,95.494c0.508,0.253,1.017,0.505,1.527,0.758
		c1.373,0.85,1.762,1.907,0.698,3.276c-0.414,0.045-0.828,0.089-1.243,0.134c-0.657,0.396-1.296,0.415-1.909-0.096
		C54.348,98.085,53.707,96.512,55.51,95.494z"/>
	<path fill-rule="evenodd" fill="#FBFBFB" d="M47.379,109.164c-2.89-1.194-5.847-1.577-8.905-0.739
		c-1.079,0.033-1.528-0.568-1.588-1.567c1.331-0.788,2.672-0.712,4.021-0.049C42.803,108.312,46.092,105.985,47.379,109.164z"/>
	<path fill-rule="evenodd" fill="#5B5B5B" d="M78.779,113.134c-2.076-1.174-1.366-5.133-4.873-4.876
		c0.856-2.378,2.101-1.549,2.978-0.168C77.843,109.602,78.89,111.178,78.779,113.134z"/>
	<path fill-rule="evenodd" fill="#FBFBFB" d="M65.094,133.843c2.625-0.974,5.363,0.009,8.016-0.457
		c-0.739,1.059-1.891,0.971-2.886,0.796c-2.043-0.357-3.454,0.378-4.193,2.247C64.637,135.7,65.891,134.494,65.094,133.843z"/>
	<path fill-rule="evenodd" fill="#FBFBFB" d="M42.469,119.789c2.901,1.019,2.542-2.388,4.182-3.081
		c-0.009,0.981-0.019,1.963-0.028,2.944c0.4,1.523-1.111,0.982-1.633,1.511c-1.171,0.103-2.395,0.49-3.333-0.633
		C41.824,120.17,42.088,119.918,42.469,119.789z"/>
	<path fill-rule="evenodd" fill="#FBFBFB" d="M42.469,119.789c-0.271,0.247-0.542,0.494-0.813,0.741
		c-0.608-0.028-1.218-0.057-1.827-0.086c-2.21-0.26-2.257-1.479-1.374-3.106C39.792,118.154,41.131,118.973,42.469,119.789z"/>
	<path fill-rule="evenodd" fill="#FBFBFB" d="M57.735,99.528c0.37-1.221-0.07-2.269-0.698-3.276c0.24-0.232,0.481-0.465,0.722-0.698
		c1.269,1.369,2.582,2.712,2.558,4.772C59.514,99.877,58.947,98.659,57.735,99.528z"/>
	<path fill-rule="evenodd" fill="#FBFBFB" d="M78.566,123.911c-0.717-0.05-1.436-0.102-2.153-0.152
		c-0.907,0.276-1.121-0.136-0.936-0.943c0.878-0.933,2.053-1.254,3.231-1.569c0.463,0.104,0.718,0.397,0.789,0.86
		C79.187,122.708,78.877,123.31,78.566,123.911z"/>
	<path fill-rule="evenodd" fill="#525252" d="M48.151,120.492c2.104-1.717,4.577-0.183,6.803-0.883
		c-1.291,1.358-2.933,0.665-4.411,0.895C49.742,121.046,48.945,121.029,48.151,120.492z"/>
	<path fill-rule="evenodd" fill="#575757" d="M81.961,122.098c0.938,2.164-0.432,3.223-2.342,5.005
		c0.36-2.225,2.25-3.448,0.734-4.998C80.887,121.588,81.423,121.663,81.961,122.098z"/>
	<path fill-rule="evenodd" fill="#FBFBFB" d="M44.579,100.253c2.83,0.783,0.18,2.176,0.363,3.256
		C42.307,102.703,43.116,101.514,44.579,100.253z"/>
	<path fill-rule="evenodd" fill="#FBFBFB" d="M75.477,122.815c0.312,0.314,0.624,0.629,0.936,0.943
		c-0.619,0.925-1.666,0.573-2.504,0.841c-0.554-0.094-1.107-0.189-1.661-0.283c0.293-0.747,0.586-1.495,0.879-2.243
		C73.875,122.432,74.51,123.151,75.477,122.815z"/>
	<path fill-rule="evenodd" fill="#FBFBFB" d="M57.818,121.292c-0.009,0.284-0.018,0.567-0.026,0.852
		c-2.381-0.518-4.944,0.513-7.23-0.845C52.981,121.297,55.4,121.296,57.818,121.292z"/>
	<path fill-rule="evenodd" fill="#5D5C5C" d="M64.216,122.897c-0.546,1.979-1.932,3.44-3.111,5.028
		C61.196,125.665,62.308,124.036,64.216,122.897z"/>
	<path fill-rule="evenodd" fill="#FBFBFB" d="M48.151,120.492c0.797,0.004,1.594,0.008,2.392,0.012
		c0.017,0.266,0.024,0.53,0.022,0.795c-1.858-0.045-3.716-0.091-5.575-0.136c0.544-0.504,1.087-1.008,1.632-1.511
		C47.131,119.932,47.641,120.213,48.151,120.492z"/>
	<path fill-rule="evenodd" fill="#575757" d="M81.961,122.098c-0.535,0.002-1.072,0.004-1.607,0.007
		c-0.286,0.001-0.571,0.001-0.856,0.002c-0.263-0.287-0.526-0.573-0.789-0.86c0.549-0.518,1.098-1.036,1.646-1.556
		C80.891,120.492,81.426,121.296,81.961,122.098z"/>
	<path fill-rule="evenodd" fill="#FBFBFB" d="M54.584,99.566c0.637,0.031,1.272,0.063,1.909,0.096
		c-0.005,1.442-0.539,2.607-1.786,3.398C54.666,101.896,54.625,100.73,54.584,99.566z"/>
	<path fill-rule="evenodd" fill="#5D5C5C" d="M61.115,128.328c1.16,1.2,1.909,2.637,2.407,4.216
		C61.752,131.69,61.197,130.146,61.115,128.328z"/>
	<path fill-rule="evenodd" fill="#515151" d="M40.907,106.809c-1.34,0.016-2.681,0.031-4.021,0.048
		C38.205,105.168,39.546,105.221,40.907,106.809z"/>
	<path fill-rule="evenodd" fill="#FBFBFB" d="M80.357,119.687c0.012-0.816,0.397-1.674-0.265-2.417
		c0.015-0.514,0.029-1.026,0.043-1.541C81.74,116.963,81.504,118.3,80.357,119.687z"/>
	<path fill-rule="evenodd" fill="#505050" d="M52.999,133.386c1.318,0.013,2.636,0.026,3.954,0.039
		C55.623,134.556,54.305,134.559,52.999,133.386z"/>
	<path fill-rule="evenodd" fill="#515151" d="M45.743,132.596c1.044,0.021,2.09,0.041,3.134,0.063
		C47.821,133.162,46.739,134.969,45.743,132.596z"/>
	<path fill-rule="evenodd" fill="#575757" d="M143.145,53.669c-2.656,0.086-4.542,2.478-7.247,2.416
		c4.282-6.04,5.056-6.362,9.661-4.021C144.754,52.599,143.949,53.134,143.145,53.669z"/>
	<path fill-rule="evenodd" fill="#575757" d="M135.101,56.096c-3.11,2.327-6.835,3.06-10.471,4.022
		c-1.477-3.186,1.466-2.985,2.808-3.063C130.031,56.907,132.3,54.161,135.101,56.096z"/>
	<path fill-rule="evenodd" fill="#FBFBFB" d="M139.155,158.264c2.685,4.311,2.187,11.681-1.035,15.282
		c-2.47,2.759-5.053,2.302-6.259-1.313c-1.672-5.006-0.885-9.695,2.442-13.88C135.913,157.984,137.524,157.614,139.155,158.264z"/>
	<path fill-rule="evenodd" fill="#FBFBFB" d="M139.155,158.264c-1.604,0.753-3.226,0.56-4.852,0.09
		C135.889,156.671,137.493,155.924,139.155,158.264z"/>
	<path fill-rule="evenodd" fill="#575757" d="M150.259,38.453c0.467-2.603,0.971-5.271,3.406-5.238
		c2.098,0.029,2.446,2.92,2.152,4.509c-0.341,1.841,0.357,5.079-2.504,5.223C150.275,43.1,151.479,39.646,150.259,38.453z"/>
</g>
</svg>
