<?xml version="1.0" encoding="utf-8"?>
<!-- Generator: Adobe Illustrator 16.0.0, SVG Export Plug-In . SVG Version: 6.00 Build 0)  -->
<!DOCTYPE svg PUBLIC "-//W3C//DTD SVG 1.1 Tiny//EN" "http://www.w3.org/Graphics/SVG/1.1/DTD/svg11-tiny.dtd">
<svg version="1.1" baseProfile="tiny" id="Layer_1" xmlns="http://www.w3.org/2000/svg" xmlns:xlink="http://www.w3.org/1999/xlink"
	 x="0px" y="0px" width="160px" height="190px" viewBox="0 0 160 190" xml:space="preserve">
<path fill-rule="evenodd" fill="#46A2CD" d="M92.803,188.212c-0.723,0.724-1.646,0.504-2.482,0.436
	c-17.657-1.436-35.315-2.86-52.964-4.377c-4.15-0.357-5.982-3.327-6.708-7.008c-2.119-10.758-4.15-21.533-6.176-32.309
	c-4.858-25.84-9.691-51.685-14.541-77.527c-0.34-1.813-0.729-3.617-1.095-5.426c1.198-1.943,2.526-2.025,3.984-0.282
	c0.559,2.804,0.763,5.67,1.472,8.459c0.45,1.768,1.235,2.148,2.946,1.416c21.312-9.123,42.571-6.698,63.713,0.577
	c4.47,1.538,8.425,4.246,12.121,7.944c0.34-3.825-0.26-7.34,0.693-10.691c0.322-1.128-0.033-2.894,1.998-2.928
	c2.055,3.375,1.225,7.103,0.914,10.595c-0.816,9.216-0.803,18.46-1.215,27.683c-0.732,16.449-1.275,32.913-1.881,49.367
	c-0.313,8.484-0.287,16.962-0.529,25.439c-0.043,1.504,0.029,2.997,0.484,4.449C93.852,185.522,93.701,186.934,92.803,188.212z"/>
<path fill-rule="evenodd" fill="#4B8AB0" d="M92.803,188.212c-0.045-1.369-0.09-2.736-0.135-4.105
	c-0.586-9.079,0.107-18.135,0.662-27.183c0.207-3.353,0.34-6.724,0.422-10.061c0.322-13.19,1.234-26.354,1.689-39.536
	c0.414-11.943,1.287-23.871,1.52-35.826c0.039-1.992,0.438-3.98,1.93-5.524c0.363-0.301,0.771-0.521,1.219-0.669
	c0.703-0.121,1.354-0.059,1.828,0.561c0.615,6.711-0.855,13.262-1.58,19.864c-0.287,1.363-0.934,2.711-0.598,4.132
	c0.207,0.871,0.6,0.179,0.885-0.092c5.232-7.672,11.219-14.619,18.758-20.118c1.01-0.737,2.09-1.353,3.203-1.916
	c6.879-3.476,10.152-2.714,14.957,3.775c2.361-7.055,3.035-14.264,5.102-21.115c0.813-1.267,1.9-1.746,3.355-1.171
	c-2.049,13.014-4.043,26.036-6.158,39.038c-2.953,18.161-5.994,36.309-9.014,54.459c-0.1,0.601-0.387,1.169-0.588,1.753
	c-0.418,0.322-0.875,0.4-1.398,0.295c-6.076-1.225-8.699-0.173-11.754,5.104c-4.256,7.349-5.998,15.246-4.691,23.723
	c0.17,1.099,0.494,2.215-0.131,3.287C106.02,181.054,99.637,185.022,92.803,188.212z"/>
<path fill-rule="evenodd" fill="#5BB9DE" d="M4.202,58.983c-0.458-1.413-1.094-2.795-1.339-4.243
	c-0.641-3.81,0.389-6.701,4.265-8.481c10.406-4.778,21.168-8.637,31.857-12.688c0.942-0.357,1.876-0.638,2.582-1.395
	c4.919-0.758,9.855-1.803,14.565,0.878c-1.095,2.173-3.378,2.433-5.307,3.085c-9.106,3.081-18.065,6.564-26.676,9.543
	c22.256,1.339,45.001,1.846,67.696,3.498c7.883,1.721,10.498,5.881,9.025,14.335c-0.195,0.438-0.506,0.766-0.93,0.99
	c-7.09-0.07-14.164,0.316-21.27-0.518c-6.166-0.724-12.442-0.516-18.658-0.729c-8.965-0.308-17.922-0.913-26.896-1.125
	c-8.688-0.205-17.379-1.003-26.06-1.682C5.858,60.357,4.87,60.028,4.202,58.983z"/>
<path fill-rule="evenodd" fill="#46A2CD" d="M100.266,63.407c-0.006-1.35,0.127-2.719-0.051-4.046
	c-0.324-2.426-1.037-4.734-2.107-6.983c-1.375-2.897-4.422-0.729-6.148-2.312c1.916-1.87,4.5-0.882,6.717-1.556
	c4.156-1.263,8.332-2.454,12.436-3.889c7.617-2.663,15.359-4.935,23.049-7.358c0.838-0.225,1.693-0.357,2.301-0.417
	c-10.334-5.347-20.707-11.102-31.057-16.896c-2.34-1.31-5.127-2.004-6.848-4.327c1.635-5.474,5.221-8.988,10.684-10.612
	c1.799-0.18,2.955,1.119,4.314,1.91c8.131,4.729,15.703,10.384,24.184,14.53c3.174,1.717,6.629,2.964,9.27,5.571
	c-2.195,6.473-1.518,12.844,0.686,19.162c-3.76,3.329-8.691,4.131-13.143,5.878c-10.059,3.949-20.322,7.371-30.434,11.197
	C102.891,63.725,101.59,64.5,100.266,63.407z"/>
<path fill-rule="evenodd" fill="#5CBADE" d="M109.24,5.012c-4.443,2.506-7.783,6.137-10.545,10.356
	c-0.705,0.87-1.697,1.03-2.701,0.953c-12.387-0.941-24.823-0.812-37.209-1.764c-4.717-0.363-9.445-0.089-14.168-0.161
	c-2.111-0.032-4.23,0.083-6.324-0.301c-3.643-1.065-7.38-0.544-11.072-0.551c-6.666-0.015-13.336,0.34-19.986-0.417
	c-2.338-0.688-1.4-1.825-0.389-2.943c4.798-5.308,10.512-8.767,17.896-8.865C46.108,1.03,67.434,2.012,88.754,3.282
	C95.6,3.69,102.471,3.742,109.24,5.012z"/>
<path fill-rule="evenodd" fill="#2C2827" d="M132.49,147.446c5.221-0.092,7.467,1.233,8.947,6.026
	c2.859,9.25,1.5,18.03-3.756,26.119c-1.848,2.843-4.385,4.853-8.186,3.796c-3.361-0.682-5.053-3.109-5.867-6.104
	c-2.592-9.54-1.006-18.462,4.379-26.722C129.068,148.936,130.59,147.901,132.49,147.446z"/>
<path fill-rule="evenodd" fill="#4A92B8" d="M7.234,13.126c0.173-0.303,0.347-0.871,0.518-0.869
	c9.658,0.074,19.317,0.188,28.977,0.336c0.447,0.007,0.891,0.36,1.337,0.552c-2.94,1.348-6.33,1.417-9.925,0.203
	c9.504,5.644,18.67,11.828,28.13,17.541c0.637,0.384,1.279,0.787,1.413,1.622c-0.353,0.774-0.801,1.346-1.76,0.826
	c-2.574-1.459-5.361-0.423-8.042-0.65c-2.104-0.178-4.243,0.098-6.314-0.511C30.123,25.825,18.678,19.476,7.234,13.126z"/>
<path fill-rule="evenodd" fill="#52534D" d="M132.49,147.446c-8.539,7.696-10.191,17.417-8.297,28.188
	c0.596,3.393,2.428,5.927,5.303,7.754c-2.563-0.257-5.156-0.342-7.678-0.811c-3.973-0.74-4.949-4.339-6.51-7.332
	c-1.193-1.107-1.434-2.652-1.531-4.098c-0.539-7.877,0.619-15.376,5.588-21.834c3.141-4.08,6.504-4.817,11.088-2.654
	C131.133,146.922,131.811,147.185,132.49,147.446z"/>
<path fill-rule="evenodd" fill="#4B8BB0" d="M147.49,46.208c-3.936-6.368-3.879-12.913-0.861-19.587
	c-0.129-2.716,1.363-3.758,3.871-3.754c2.656-0.057,4.195,1.64,5.074,3.752c2.469,5.926,2.332,11.871-0.545,17.664
	c-1.215,2.448-3.127,3.816-5.998,3.452C148.18,47.567,147.66,47.065,147.49,46.208z"/>
<path fill-rule="evenodd" fill="#95CEE9" d="M4.202,58.983c4.313,1.567,8.876,0.72,13.313,1.261
	c7.266,0.886,14.665,0.663,22.004,0.976c19.766,0.841,39.529,1.715,59.292,2.594c0.484,0.021,0.955,0.251,1.434,0.384
	c0.412,0.507,0.447,1.03,0.063,1.569l-0.027,0.004c-1.941,1.191-4.148,0.256-6.174,0.779c-3.227,0.598-6.482,0.466-9.709,0.159
	c-8.458-0.803-16.951-0.785-25.42-1.281c-14.45-0.846-28.914-1.468-43.362-2.37c-1.124-0.07-2.259-0.208-3.013-1.23
	c-1.299-0.901-2.54-0.534-3.766,0.173C7.615,60.498,4.39,62.072,4.202,58.983z"/>
<path fill-rule="evenodd" fill="#4B7896" d="M130.453,146.659c-8.807-0.012-12.477,3.193-14.549,12.094
	c-1.281,5.502-1.645,10.949-0.596,16.492c-1.008,0.547-2.016,1.094-3.023,1.641c-3.18-11.507-0.658-21.867,6.633-31.067
	c2.857-3.606,6.752-3.807,11.342-1.341C130.324,145.205,130.389,145.933,130.453,146.659z"/>
<path fill-rule="evenodd" fill="#5AB9DF" d="M100.307,65.767c-0.021-0.523-0.043-1.046-0.063-1.569
	c0.008-0.263,0.014-0.526,0.021-0.79c12.945-4.714,25.891-9.427,38.836-14.141c2.797-1.019,5.592-2.039,8.389-3.06
	c0.514,0.509,1.027,1.018,1.541,1.527c-0.813,0.882-1.898,1.213-3.012,1.492c-1.02,0.483-2.037,0.966-3.057,1.449
	c-1.57,2-4,2.433-6.174,3.217c-10.039,3.616-20.074,7.24-30.057,11.007c-1.582,0.597-3.168,1.544-4.996,0.844
	C101.26,65.752,100.783,65.759,100.307,65.767z"/>
<path fill-rule="evenodd" fill="#5DBADF" d="M150.5,22.867c-1.754,0.773-3.102,1.964-3.869,3.754
	c-3.584-0.657-6.336-2.747-8.893-5.169C142.064,21.281,146.326,21.682,150.5,22.867z"/>
<path fill-rule="evenodd" fill="#4B8AB0" d="M12.601,61.828c22.729,1.093,45.458,2.185,68.187,3.282
	c4.47,0.216,8.939,0.454,13.41,0.682c0.338,0.136,0.605,0.358,0.787,0.677c-0.92,5.236-0.719,10.553-0.748,16.211
	C81.617,70.067,65.969,67.729,49.771,67.233c-8.324-0.255-16.662-0.413-24.815,2.086c-3.742,1.147-6.961,3.241-10.781,4.949
	C13.728,70.025,11.184,66.23,12.601,61.828z"/>
<path fill-rule="evenodd" fill="#5AB9DF" d="M94.984,66.468c-0.262-0.227-0.525-0.452-0.787-0.678
	c2.027-0.007,4.055-0.013,6.082-0.02c-2.188,1.464-2.09,3.839-2.18,5.998c-0.607,14.444-1.014,28.897-1.686,43.338
	c-0.904,19.405-1.885,38.808-3.084,58.196c-0.223,3.597-0.502,7.2-0.662,10.806c-1.168-1.139-0.604-2.594-0.656-3.904
	c-0.561-14.068,0.574-28.109,0.887-42.16c0.283-12.777,0.805-25.573,1.51-38.335c0.541-9.792,0.342-19.611,1.283-29.382
	C95.814,69.055,96.25,67.559,94.984,66.468z"/>
<path fill-rule="evenodd" fill="#FCFDFE" d="M41.041,119.563c3.091,0.258,6.205,0.878,9.267,0.68
	c3.865-0.249,4.363,1.476,4.271,4.774c-0.201,7.187-0.015,6.745-7.271,6.427c-4.931-0.215-7.38-2.43-9.004-6.595
	c-0.764-1.955-2.114-3.695-2.763-5.676c-0.51-1.556,0.655-0.536,1.163-0.419c0.301-0.177,0.626-0.268,0.975-0.275
	C38.863,118.637,40.046,118.81,41.041,119.563z"/>
<path fill-rule="evenodd" fill="#FCFDFE" d="M48.494,91.217c4.966-1.667,9.874-0.28,14.78,0.356
	c1.681,0.218,2.202,1.875,2.968,3.148c0.931,1.545,1.398,3.969,4.593,1.199c-5.221,11.436-1.767,9.849-13.772,7.818
	c2.466-3.069,0.018-4.789-1.824-6.676c-1.394-1.17-2.177-3.02-4.869-2.209C49.105,95.233,48.051,93.044,48.494,91.217z"/>
<path fill-rule="evenodd" fill="#FDFDFE" d="M69.646,121.069c-0.145-0.435-0.29-0.871-0.435-1.306
	c1.764-0.733,3.78-0.522,5.489-1.555c0.701-0.424,1.374,0.048,1.709,0.821c-0.331,4.939-3.252,8.708-5.827,12.595
	c-1.135,1.714-3.049,1.243-4.789,1.029c-1.665-0.206-3.485-0.497-2.955,2.495c-6.205-7.13-6.228-8.003-0.382-15.771
	c0.453,1.339,0.358,3.285,2.45,2.652c2.135,0.733,4.296,0.061,6.443,0.182c0.494,0.018,0.151-0.78,0.081-0.285
	c-0.033,0.229-0.111,0.287-0.221,0.302C70.314,122.339,69.875,121.851,69.646,121.069z"/>
<path fill-rule="evenodd" fill="#FDFDFE" d="M48.494,91.217c1.049,1.178,0.632,4.449,4.066,2.162
	c1.15-0.766,2.216,2.044,2.678,3.684c-2.559,2.074-3.904,5.075-5.771,7.67c-1.102,1.53-1.964,1.723-3.628,0.771
	c-7.186-4.109-7.211-4.05-2.712-11.29C44.37,92.212,45.365,89.821,48.494,91.217z"/>
<path fill-rule="evenodd" fill="#FCFDFE" d="M76.41,119.03c-2.441-0.176-4.648,1.948-7.197,0.733
	c-1.672-2.591-3.355-5.173-5.007-7.776c-0.439-0.692-1.268-1.577-0.179-2.225c2.438-1.45,4.966-2.753,7.492-4.048
	c0.703-0.36,1.143,0.26,1.426,0.807c1.535,2.964,3.119,5.905,4.525,8.929C78.093,116.792,77.704,118.114,76.41,119.03z"/>
<path fill-rule="evenodd" fill="#FCFDFE" d="M37.044,118.991c-0.134-0.055-0.247-0.135-0.342-0.238
	c-2.405-3.018-4.474-6.106-1.677-9.985c1.077-1.493-1.398-1.523-1.071-2.689c10.177-0.058,10.393,0.085,13.012,8.719
	c-2.761-1.149-4.371,0.257-4.359,2.674c0.007,1.653-0.646,1.47-1.58,1.587C39.685,119.893,38.386,118.158,37.044,118.991z"/>
<path fill-rule="evenodd" fill="#6AB7DA" d="M69.646,121.069c0.73,0.412,1.304,1.134,2.289,1.27
	c-2.389,0.344-4.725,0.632-7.028-0.31C66.443,121.498,68.323,122.658,69.646,121.069z"/>
<path fill-rule="evenodd" fill="#65B4D8" d="M37.044,118.991c1.355-1.66,2.654,0.102,3.982,0.066
	c0.011,0.168,0.016,0.337,0.014,0.506C39.613,120.04,38.363,119.282,37.044,118.991z"/>
<path fill-rule="evenodd" fill="#4B7A9A" d="M101.736,65.745c13.742-5.022,27.484-10.045,41.227-15.068
	c-0.742,7.823-2.99,15.312-4.857,23.273c-1.666-1.135-1.92-2.685-2.684-3.869c-2.207-3.424-6.104-4.422-10.516-2.411
	c-8.863,4.039-14.781,11.402-20.73,18.702c-1.09,1.339-2.121,2.725-3.18,4.089c-0.754,0.912-1.58,1.395-1.801-0.262
	c-0.15-1.136-0.381-2.382,0.295-3.494C99.984,79.692,100.592,72.69,101.736,65.745z"/>
<path fill-rule="evenodd" fill="#4C80A5" d="M99.49,86.707c0.715,1.166-1.551,3.528,1.506,3.755
	c-0.084,0.919-0.33,1.911-1.391,1.884c-0.99-0.026-0.895-1.062-0.84-1.766C98.867,89.27,98.254,87.808,99.49,86.707z"/>
<path fill-rule="evenodd" fill="#466A84" d="M55.923,33.337c0.518-0.214,1.034-0.43,1.552-0.645
	c2.979-2.004,6.287-1.148,9.448-0.917c10.705,0.783,21.428,1.274,32.131,2.047c10.705,0.774,21.449,1.016,32.121,2.233
	c1.361,0.155,3.152-0.196,3.555,1.89c-12.033,3.908-24.045,7.892-36.125,11.653c-2.064,0.642-4.424,0.335-6.646,0.467
	C68.22,48.933,44.482,47.8,20.745,46.667C32.182,41.466,44.004,37.274,55.923,33.337z"/>
<path fill-rule="evenodd" fill="#4C81A3" d="M134.73,37.945c-3.275-1.174-6.738-1.224-10.129-1.436
	c-10.262-0.642-20.553-0.855-30.803-1.632c-12.1-0.918-24.188-1.901-36.324-2.185C47.446,26.45,37.417,20.208,27.388,13.967
	c-0.008-0.274-0.015-0.547-0.021-0.82c3.566,0,7.131,0,10.697-0.001c18.264-0.193,36.479,1.23,54.725,1.65
	c1.973,0.045,3.938,0.376,5.906,0.573c13.027,7.083,26.053,14.167,39.248,21.343C137.07,37.837,135.955,38.02,134.73,37.945z"/>
<path fill-rule="evenodd" fill="#9DA093" d="M138.717,164.244c-0.02,3.075-0.738,5.953-2.471,8.495
	c-0.922,1.351-2.111,2.636-3.963,2.281c-1.629-0.313-2.371-1.68-2.857-3.165c-1.445-4.41-0.742-8.606,1.354-12.618
	c0.895-1.715,2.113-3.236,4.355-2.828c2.199,0.401,2.814,2.299,3.254,4.122C138.678,161.726,138.619,163.004,138.717,164.244z"/>
<path fill-rule="evenodd" fill="#5CBADC" d="M154.285,35.129c-0.635,2.171-0.344,5.36-3.262,5.498
	c-2.162,0.102-2.678-2.649-2.668-4.578c0.012-2.398,0-5.689,3.002-5.886C153.795,30.003,153.584,33.202,154.285,35.129z"/>
</svg>
