<svg xmlns="http://www.w3.org/2000/svg" width="22.814" height="19.852" viewBox="0 0 22.814 19.852">
  <g id="Group_2548" data-name="Group 2548" transform="translate(4054.521 -241.8)">
    <g id="Group_3749" data-name="Group 3749" transform="translate(-4054.321 242)">
      <g id="Group" transform="translate(0 0)">
        <g id="Group-2" data-name="Group">
          <path id="Vector" d="M17.9,19.452H2.527A2.53,2.53,0,0,1,0,16.926V2.527A2.53,2.53,0,0,1,2.527,0H17.9a2.53,2.53,0,0,1,2.527,2.527V6.011A2.235,2.235,0,0,1,21.885,8.1v3.252a2.234,2.234,0,0,1-1.46,2.089v3.485A2.53,2.53,0,0,1,17.9,19.452ZM2.527,1.3A1.223,1.223,0,0,0,1.3,2.527v14.4a1.223,1.223,0,0,0,1.222,1.222H17.9a1.223,1.223,0,0,0,1.222-1.222V13.576H16.184a3.85,3.85,0,0,1,0-7.7H19.12V2.527A1.223,1.223,0,0,0,17.9,1.3ZM16.184,7.181a2.545,2.545,0,0,0,0,5.091h3.476a.92.92,0,0,0,.918-.919V8.1a.92.92,0,0,0-.918-.919Z" fill="#616161" stroke="#616161" stroke-width="0.4" stroke-dasharray="0 0"/>
        </g>
      </g>
      <path id="Vector-2" data-name="Vector" d="M2.16,2.91Z" transform="translate(15.24 7.49)" fill="#40aa54"/>
    </g>
    <path id="Path_974" data-name="Path 974" d="M3.609-.187h3.91c2.327,0,2.766,2.032,2.766,4.325A4.369,4.369,0,0,1,9.19,7.355c-.524.522-1.784.527-3.008.527H3.609A3.662,3.662,0,0,1-.2,3.963,3.853,3.853,0,0,1,3.609-.187Z" transform="translate(-4041.992 247.944)" fill="#40aa54"/>
  </g>
</svg>
