<svg xmlns="http://www.w3.org/2000/svg" width="21.693" height="21.668" viewBox="0 0 21.693 21.668">
  <g id="Group_2550" data-name="Group 2550" transform="translate(4054.833 -38.457)">
    <path id="Icon_awesome-medal" data-name="Icon awesome-medal" d="M9.032,5.278,6.242.627A1.292,1.292,0,0,0,5.134,0H.647A.646.646,0,0,0,.118,1.016L4.61,7.433A8.354,8.354,0,0,1,9.032,5.278ZM20.021,0H15.534a1.292,1.292,0,0,0-1.108.627L11.636,5.278a8.357,8.357,0,0,1,4.423,2.155L20.55,1.016A.646.646,0,0,0,20.021,0ZM10.334,6.459a7.1,7.1,0,1,0,7.1,7.1A7.1,7.1,0,0,0,10.334,6.459Z" transform="translate(-4054.321 38.957)" fill="none" stroke="#616161" stroke-width="1"/>
    <path id="Icon_material-star-border" data-name="Icon material-star-border" d="M10.909,5.863,8.066,5.618,6.955,3,5.843,5.622,3,5.863,5.159,7.734l-.649,2.78L6.955,9.039,9.4,10.514l-.645-2.78ZM6.955,8.3l-1.487.9.4-1.693L4.55,6.365l1.732-.15.672-1.594.676,1.6,1.732.15L8.05,7.508l.4,1.693Z" transform="translate(-4050.971 45.041)" fill="#249507"/>
  </g>
</svg>
