<svg xmlns="http://www.w3.org/2000/svg" width="317.135" height="133" viewBox="0 0 317.135 133">
  <g id="Group_26" data-name="Group 26" transform="translate(0 -7.246)">
    <path id="Path_104" data-name="Path 104" d="M733.808,222s5.236,1.081,8.425-2.233l.5,3.654a7.7,7.7,0,0,1-7.413,1.446Z" transform="translate(-431.423 -121.879)" fill="#ffdb79"/>
    <path id="Path_108" data-name="Path 108" d="M575.765,281.171s-2.786,4.563-.743,8.684l-3.607-.768a7.7,7.7,0,0,1,1.142-7.466Z" transform="translate(-333.385 -158.836)" fill="#ffa68e"/>
    <path id="Path_109" data-name="Path 109" d="M343.8,283.289s2.488,4.732,7.073,5.092l-2.509,2.7a7.7,7.7,0,0,1-5.823-4.81Z" transform="translate(-195.933 -160.111)" fill="#ffa68e"/>
    <path id="Path_110" data-name="Path 110" d="M714.33,64.265s-2.786,4.563-.743,8.683l-3.607-.767a7.7,7.7,0,0,1,1.142-7.466Z" transform="translate(-416.782 -28.288)" fill="#b3b3ff"/>
    <circle id="Ellipse_18" data-name="Ellipse 18" cx="4.841" cy="4.841" r="4.841" transform="translate(247.321 15.877) rotate(-23.099)" fill="#90e0fb"/>
    <circle id="Ellipse_23" data-name="Ellipse 23" cx="4.841" cy="4.841" r="4.841" transform="translate(303.99 130.564)" fill="#b3b3ff"/>
    <circle id="Ellipse_25" data-name="Ellipse 25" cx="3.983" cy="3.983" r="3.983" transform="translate(291.758 23.024) rotate(-45)" fill="#90e0fb"/>
    <g id="Group_7" data-name="Group 7" transform="translate(202.518 96.244)">
      <path id="Path_138" data-name="Path 138" d="M510.51,246.723a5.775,5.775,0,0,0,4.53-.457l-1.1-2.07s-3.376,1.052-4.891-.222Z" transform="translate(-498.665 -223.693)" fill="#6565fb"/>
      <path id="Path_139" data-name="Path 139" d="M516.793,222.337s.977,2.481-3.661,4.951c0,0-3.7,2.116-3.1,4.7l-1.464-2.749a2.708,2.708,0,0,1,.66-3.359,10.152,10.152,0,0,1,2.169-1.349,8.7,8.7,0,0,0,2.464-1.693,3.98,3.98,0,0,0,1.423-3.344Z" transform="translate(-498.183 -208.962)" fill="#b3b3ff"/>
      <path id="Path_140" data-name="Path 140" d="M485.852,223.234s1.9,1.935,10.875-2.72a8.922,8.922,0,0,1,1.79-.713c1.186-.319,2.962-.565,3.995.392L501,217.354a2.683,2.683,0,0,0-3.077-1.323,13.492,13.492,0,0,0-2.795,1.107s-8.478,5.239-10.611,1.6Z" transform="translate(-483.901 -206.818)" fill="#6565fb"/>
      <path id="Path_141" data-name="Path 141" d="M490.94,193.034s-5.095,4.144-7.382,8.788a5.747,5.747,0,0,0,.092,5.239l1.272,2.388s-1.149-7.285,7.876-12.928Z" transform="translate(-482.971 -193.034)" fill="#b3b3ff"/>
    </g>
    <g id="Group_8" data-name="Group 8" transform="translate(124.537 19.733)">
      <path id="Path_142" data-name="Path 142" d="M319.168,118.754a6.2,6.2,0,0,0,4.86-.49l-1.183-2.221s-3.623,1.129-5.249-.238Z" transform="translate(-306.457 -94.041)" fill="#ffc028"/>
      <path id="Path_143" data-name="Path 143" d="M325.911,92.586s1.048,2.662-3.929,5.313c0,0-3.965,2.27-3.331,5.048L317.08,100a2.907,2.907,0,0,1,.709-3.6,10.922,10.922,0,0,1,2.328-1.448,9.335,9.335,0,0,0,2.644-1.816,4.271,4.271,0,0,0,1.528-3.588Z" transform="translate(-305.94 -78.234)" fill="#ffdb79"/>
      <path id="Path_144" data-name="Path 144" d="M292.708,93.549s2.043,2.077,11.669-2.92a9.62,9.62,0,0,1,1.921-.765c1.273-.342,3.179-.607,4.287.42l-1.622-3.045a2.879,2.879,0,0,0-3.3-1.42,14.487,14.487,0,0,0-3,1.188s-9.1,5.621-11.387,1.719Z" transform="translate(-290.615 -75.933)" fill="#ffc028"/>
      <path id="Path_145" data-name="Path 145" d="M298.168,61.141s-5.467,4.447-7.922,9.431a6.168,6.168,0,0,0,.1,5.622l1.365,2.563s-1.233-7.818,8.451-13.873Z" transform="translate(-289.617 -61.141)" fill="#ffdb79"/>
    </g>
    <g id="Group_9" data-name="Group 9" transform="translate(276.899 79)">
      <path id="Path_146" data-name="Path 146" d="M669.9,219.488s-.889,2,2.529,5.95c0,0,3.585,3.817,2.037,7.807a18.29,18.29,0,0,0,2.292-3.486,4.548,4.548,0,0,0-.174-4.375,12.93,12.93,0,0,0-1.775-2.337s-3.741-4.325-3.046-6.517Z" transform="translate(-669.795 -198.931)" fill="#90e0fb"/>
      <path id="Path_147" data-name="Path 147" d="M680.472,216.3s-1.38,2.632-5.582,1.465c0,0-3.51-1.189-4.833.2l1.238-2.217a2.584,2.584,0,0,1,2.523-1.322,12.421,12.421,0,0,1,2.405.54,6.22,6.22,0,0,0,5.512-.963Z" transform="translate(-669.953 -197.414)" fill="#79abe5"/>
      <path id="Path_148" data-name="Path 148" d="M688.018,189.726l1.778-3.347a40.712,40.712,0,0,0-9.113-.514,3.744,3.744,0,0,0-2.967,1.917l-1.153,2.065A26.469,26.469,0,0,1,688.018,189.726Z" transform="translate(-673.868 -180.426)" fill="#79abe5"/>
      <path id="Path_149" data-name="Path 149" d="M697.348,172.327l-1.777,3.182s4.711,3.992,3.887,6.119l1.6-2.858a1.739,1.739,0,0,0,0-1.71A24.06,24.06,0,0,0,697.348,172.327Z" transform="translate(-685.309 -172.327)" fill="#90e0fb"/>
      <path id="Path_150" data-name="Path 150" d="M676.56,191.617s-.205,2.561,4.178,5.2a10.909,10.909,0,0,1,1.311.905c.933.766,2.333,2.123,2.336,3.365l1.155-2.067a2.327,2.327,0,0,0-.37-2.777,10.217,10.217,0,0,0-2.259-1.7s-5.3-3.322-4.571-5.819Z" transform="translate(-673.866 -182.196)" fill="#90e0fb"/>
    </g>
    <g id="Group_10" data-name="Group 10" transform="translate(23.165 99.419)">
      <path id="Path_151" data-name="Path 151" d="M45.443,277.392s.558,2.115,5.7,3.056c0,0,5.185.732,6.476,4.813a18.294,18.294,0,0,0-.4-4.153,4.548,4.548,0,0,0-2.875-3.3,12.93,12.93,0,0,0-2.847-.711s-5.626-1.031-6.455-3.175Z" transform="translate(-40.045 -253.89)" fill="#ffa68e"/>
      <path id="Path_152" data-name="Path 152" d="M52.429,259.1s.573,2.916-3.436,4.637c0,0-3.481,1.27-3.641,3.185l-.422-2.5a2.584,2.584,0,0,1,1.139-2.61,12.4,12.4,0,0,1,2.214-1.085,6.221,6.221,0,0,0,3.7-4.2Z" transform="translate(-39.954 -243.419)" fill="#ff5554"/>
      <path id="Path_153" data-name="Path 153" d="M41.791,232.883l-.709-3.723a40.714,40.714,0,0,0-7.428,5.3,3.744,3.744,0,0,0-1.113,3.352l.393,2.332A26.469,26.469,0,0,1,41.791,232.883Z" transform="translate(-32.488 -226.952)" fill="#ff5554"/>
      <path id="Path_154" data-name="Path 154" d="M37.1,223.613l.606,3.594s6.174.164,6.862,2.337l-.545-3.228a1.739,1.739,0,0,0-1.073-1.331A24.078,24.078,0,0,0,37.1,223.613Z" transform="translate(-35.262 -223.613)" fill="#ffa68e"/>
      <path id="Path_155" data-name="Path 155" d="M32.969,251.666s1.443,2.126,6.511,1.436a10.889,10.889,0,0,1,1.589-.115c1.207.014,3.149.195,3.928,1.162l-.394-2.335a2.326,2.326,0,0,0-2.026-1.934,10.216,10.216,0,0,0-2.824.092s-6.215.729-7.208-1.675Z" transform="translate(-32.522 -238.469)" fill="#ffa68e"/>
    </g>
    <g id="Group_11" data-name="Group 11" transform="translate(267.346 22.96)">
      <path id="Path_156" data-name="Path 156" d="M645.8,50.481s.121,1.928,4.354,3.309a13.078,13.078,0,0,1,4.136,2.218,7.648,7.648,0,0,1,3.231,5.586l.921-3.468a4.408,4.408,0,0,0-1.941-4.894,24.3,24.3,0,0,0-4.117-1.974s-5.081-2.2-5.4-4.813Z" transform="translate(-645.802 -40.523)" fill="#ff5554"/>
      <path id="Path_157" data-name="Path 157" d="M660.206,31.569l-1.383,5.21s-1.608,1.6-5.925,1.853a14.521,14.521,0,0,0-4.354.909c-1.237.474-2.444,1.139-2.742,1.987l.636-2.736a4.044,4.044,0,0,1,3.148-3.074,13.842,13.842,0,0,1,1.4-.193,19.27,19.27,0,0,0,3.67-.633C656.6,34.332,659.1,33.307,660.206,31.569Z" transform="translate(-645.802 -31.569)" fill="#ffa68e"/>
    </g>
    <g id="Group_14" data-name="Group 14" transform="translate(61.978 9)">
      <path id="Path_162" data-name="Path 162" d="M131.631,15.7s1.443,1.771,6.464.184a15.475,15.475,0,0,1,5.5-.715c2.39.132,5.214.841,6.951,3.146l-1.5-3.967a5.213,5.213,0,0,0-5.236-3.37,28.779,28.779,0,0,0-5.317.937s-6.4,1.381-8.5-.912Z" transform="translate(-129.986 3.794)" fill="#79abe5"/>
      <path id="Path_163" data-name="Path 163" d="M138.612-26.1l2.257,5.961s-.444,2.646-4.421,5.86a17.168,17.168,0,0,0-3.561,3.871c-.863,1.308-1.565,2.777-1.268,3.8l-1.272-3.068a4.782,4.782,0,0,1,.911-5.122,16.231,16.231,0,0,1,1.211-1.148,22.813,22.813,0,0,0,3.093-3.136C137.043-20.957,138.743-23.665,138.612-26.1Z" transform="translate(-129.975 26.099)" fill="#90e0fb"/>
    </g>
    <g id="Group_15" data-name="Group 15" transform="translate(177.011 96.533)">
      <path id="Path_164" data-name="Path 164" d="M426.843,233.668s3.518,1.27,3.877,4.137l1.173-4.137s-2.51-3.461-8.667-2.089Z" transform="translate(-421.506 -225.328)" fill="#ffc028"/>
      <path id="Path_165" data-name="Path 165" d="M419.063,216.364a6.916,6.916,0,0,0,5.18,8.34s-3.388-1.857-1.727-7.1Z" transform="translate(-418.906 -216.364)" fill="#ffdb79"/>
    </g>
    <g id="Group_17" data-name="Group 17" transform="translate(93.095 21.848)">
      <path id="Path_168" data-name="Path 168" d="M216.07,46.081s3.519,1.271,3.877,4.137l1.173-4.137s-2.51-3.46-8.667-2.088Z" transform="translate(-210.733 -37.741)" fill="#ffc028"/>
      <path id="Path_169" data-name="Path 169" d="M208.291,28.776a6.916,6.916,0,0,0,5.18,8.34s-3.388-1.857-1.726-7.1Z" transform="translate(-208.134 -28.776)" fill="#ffdb79"/>
    </g>
    <g id="Group_19" data-name="Group 19" transform="translate(17.812 20.304)">
      <path id="Path_172" data-name="Path 172" d="M26.594,24.9l3.884,3.3a8.283,8.283,0,0,1-5.409,3.237,6.529,6.529,0,0,0-2.323.881,3.454,3.454,0,0,0-1.787,2.532s-2.411-.593-1.827-2.868a3.089,3.089,0,0,1,.715-1.3,5.988,5.988,0,0,1,2.477-1.595,7.53,7.53,0,0,0,3.353-2.277A3.7,3.7,0,0,0,26.594,24.9Z" transform="translate(-19.042 -24.899)" fill="#ffc028"/>
      <path id="Path_173" data-name="Path 173" d="M21.247,47.88a14.76,14.76,0,0,0,4.958,0l.071-.014a3.708,3.708,0,0,1,4.35,4q-.015.15-.037.308L26.5,53.5a2.19,2.19,0,0,0-1.012-2.058,2.892,2.892,0,0,0-1.052-.408,6.015,6.015,0,0,1-4.916-4.476A2.708,2.708,0,0,0,21.247,47.88Z" transform="translate(-19.329 -37.935)" fill="#ffdb79"/>
    </g>
    <g id="Group_20" data-name="Group 20" transform="translate(199.497 7.246)">
      <path id="Path_174" data-name="Path 174" d="M488.162,107.489s1.241,2.691-1.252,6.3a10.9,10.9,0,0,0-1.627,3.354,8.025,8.025,0,0,0-.252,3.249l-2.742-5.737a6.21,6.21,0,0,1,1.392-2.635,13.2,13.2,0,0,0,1.355-2.12c.745-1.495,1.667-3.866,1.217-5.771Z" transform="translate(-470.541 -82.232)" fill="#6565fb"/>
      <path id="Path_175" data-name="Path 175" d="M458.727,96.281s.9,2.785,6.063,2.347a12.97,12.97,0,0,0,1.442-.215c1.327-.265,5.371-.867,7,1.217l-1.908-3.362a3.157,3.157,0,0,0-2.937-1.6,20.876,20.876,0,0,0-2.12.246,9.541,9.541,0,0,1-3.787-.1,7.55,7.55,0,0,1-4.994-3.746Z" transform="translate(-455.613 -74.373)" fill="#b3b3ff"/>
      <path id="Path_176" data-name="Path 176" d="M453.651,54.349s6.571-.848,8.622,2.982l-.928-4.106a3.9,3.9,0,0,0-2.306-2.74,20.369,20.369,0,0,0-6.259-1.351Z" transform="translate(-452.779 -49.134)" fill="#b3b3ff"/>
      <path id="Path_177" data-name="Path 177" d="M464.064,62.686s.149,2.118-2.38,4.717a15.78,15.78,0,0,0-3.263,4.747,7.617,7.617,0,0,0-.737,4.247L456,71.485a4.407,4.407,0,0,1,.525-3.926,13.128,13.128,0,0,1,1.1-1.382,17.216,17.216,0,0,1,1.236-1.223c.878-.793,3.786-3.65,4.108-6.923Z" transform="translate(-454.57 -54.489)" fill="#6565fb"/>
    </g>
    <g id="Group_22" data-name="Group 22" transform="translate(108.78 93.179)">
      <path id="Path_182" data-name="Path 182" d="M279.723,261.033s1.13,2.448-1.139,5.73a9.918,9.918,0,0,0-1.48,3.052,7.3,7.3,0,0,0-.229,2.956l-2.494-5.22a5.653,5.653,0,0,1,1.266-2.4,12,12,0,0,0,1.233-1.929c.678-1.36,1.517-3.517,1.107-5.251Z" transform="translate(-263.69 -238.053)" fill="#ffc028"/>
      <path id="Path_183" data-name="Path 183" d="M252.941,250.835s.821,2.535,5.516,2.135a11.772,11.772,0,0,0,1.312-.2c1.208-.241,4.887-.789,6.371,1.108l-1.736-3.059a2.873,2.873,0,0,0-2.673-1.456,19.216,19.216,0,0,0-1.929.224,8.677,8.677,0,0,1-3.445-.09,6.869,6.869,0,0,1-4.544-3.408Z" transform="translate(-250.108 -230.903)" fill="#ffdb79"/>
      <path id="Path_184" data-name="Path 184" d="M248.322,212.684s5.979-.772,7.845,2.713l-.845-3.736a3.549,3.549,0,0,0-2.1-2.493,18.532,18.532,0,0,0-5.695-1.229Z" transform="translate(-247.529 -207.939)" fill="#ffdb79"/>
      <path id="Path_185" data-name="Path 185" d="M257.8,220.269s.136,1.927-2.166,4.291a14.364,14.364,0,0,0-2.969,4.319,6.933,6.933,0,0,0-.67,3.864l-1.535-4.469a4.01,4.01,0,0,1,.478-3.572,11.961,11.961,0,0,1,1-1.257,15.782,15.782,0,0,1,1.124-1.112c.8-.722,3.445-3.32,3.738-6.3Z" transform="translate(-249.159 -212.811)" fill="#ffc028"/>
    </g>
    <path id="Path_190" data-name="Path 190" d="M141.871,202.372l.966,1.957,2.16.314-1.563,1.523.369,2.151-1.932-1.016-1.932,1.016.369-2.151-1.563-1.523,2.16-.314Z" transform="translate(-73.276 -111.41)" fill="#ffa68e"/>
    <path id="Path_191" data-name="Path 191" d="M-22.57,98.615l.966,1.957,2.16.314-1.563,1.523.369,2.151-1.932-1.016L-24.5,104.56l.369-2.151-1.563-1.523,2.16-.314Z" transform="translate(25.696 -48.962)" fill="#ffdb79"/>
    <path id="Path_194" data-name="Path 194" d="M316.323,233.959a2.489,2.489,0,1,1-2.489-2.489A2.489,2.489,0,0,1,316.323,233.959Z" transform="translate(-177.158 -128.923)" fill="#90e0fb"/>
    <path id="Path_198" data-name="Path 198" d="M340.064,32.931a2.489,2.489,0,1,1-2.49-2.489A2.489,2.489,0,0,1,340.064,32.931Z" transform="translate(-191.446 -7.931)" fill="#ffdb79"/>
    <path id="Path_199" data-name="Path 199" d="M75.12,19.5a2.489,2.489,0,1,1-2.489-2.489A2.489,2.489,0,0,1,75.12,19.5Z" transform="translate(-31.986 0.153)" fill="#b3b3ff"/>
    <circle id="Ellipse_26" data-name="Ellipse 26" cx="2.489" cy="2.489" r="2.489" transform="translate(0.636 73.539)" fill="#efefef"/>
    <path id="Path_200" data-name="Path 200" d="M249.425,292.637a2.489,2.489,0,1,1-2.489-2.489A2.489,2.489,0,0,1,249.425,292.637Z" transform="translate(-136.894 -164.239)" fill="#b3b3ff"/>
    <path id="Path_201" data-name="Path 201" d="M96.428,240.654a2.489,2.489,0,1,1-2.489-2.489A2.489,2.489,0,0,1,96.428,240.654Z" transform="translate(-44.81 -132.952)" fill="#90e0fb"/>
    <path id="Path_203" data-name="Path 203" d="M19.537,102.318a2.489,2.489,0,1,1-2.49-2.489A2.489,2.489,0,0,1,19.537,102.318Z" transform="translate(1.468 -49.693)" fill="#ffa68e"/>
    <path id="Path_204" data-name="Path 204" d="M22.605,294.969a2.489,2.489,0,1,1-2.489-2.489A2.489,2.489,0,0,1,22.605,294.969Z" transform="translate(-0.379 -165.643)" fill="#ffdb79"/>
    <circle id="Ellipse_29" data-name="Ellipse 29" cx="2.489" cy="2.489" r="2.489" transform="translate(295.478 111.974)" fill="#efefef"/>
    <path id="Path_215" data-name="Path 215" d="M721.439,254.048a2.489,2.489,0,1,1-2.489-2.489A2.489,2.489,0,0,1,721.439,254.048Z" transform="translate(-420.983 -141.014)" fill="#ffa68e"/>
    <path id="Path_216" data-name="Path 216" d="M563.655,235.924a2.489,2.489,0,1,1-2.489-2.489A2.489,2.489,0,0,1,563.655,235.924Z" transform="translate(-326.018 -130.106)" fill="#b3b3ff"/>
    <circle id="Ellipse_30" data-name="Ellipse 30" cx="2.489" cy="2.489" r="2.489" transform="translate(184.526 13.92) rotate(-80.336)" fill="#90e0fb"/>
    <circle id="Ellipse_31" data-name="Ellipse 31" cx="2.489" cy="2.489" r="2.489" transform="translate(273.399 7.829)" fill="#ffdb79"/>
    <path id="Path_224" data-name="Path 224" d="M162.352,45.013l.966,1.957,2.16.314-1.563,1.523.369,2.151-1.932-1.016-1.932,1.016.369-2.151-1.563-1.523,2.16-.314Z" transform="translate(-85.603 -13.701)" fill="#ffa68e"/>
    <path id="Path_225" data-name="Path 225" d="M1.477.854l.966,1.957,2.16.314L3.04,4.649,3.409,6.8,1.477,5.784-.454,6.8l.369-2.151L-1.648,3.125l2.16-.314Z" transform="translate(11.222 9.877)" fill="#90e0fb"/>
    <path id="Path_226" data-name="Path 226" d="M736.36,165.308l.966,1.957,2.16.314-1.563,1.523.369,2.151-1.932-1.016-1.932,1.016.369-2.151-1.563-1.523,2.16-.314Z" transform="translate(-431.079 -89.102)" fill="#ffa68e"/>
    <path id="Path_227" data-name="Path 227" d="M361.583,212.025l2.188,4.434,4.893.711-3.541,3.452.836,4.874-4.377-2.3-4.377,2.3.836-4.874-3.541-3.452,4.893-.711Z" transform="translate(-203.132 -117.22)" fill="#90e0fb"/>
    <path id="Path_228" data-name="Path 228" d="M190.311,229.176l2.188,4.434,4.893.711-3.541,3.452.836,4.874-4.377-2.3-4.377,2.3.836-4.874-3.541-3.452,4.893-.711Z" transform="translate(-100.049 -127.542)" fill="#ffa68e"/>
    <path id="Path_230" data-name="Path 230" d="M545.166,35.476l1.953,3.956,4.366.634-3.159,3.08.746,4.349-3.905-2.053L541.261,47.5l.746-4.349-3.159-3.08,4.366-.634Z" transform="translate(-314.083 -10.961)" fill="#b3b3ff"/>
    <path id="Path_231" data-name="Path 231" d="M620.147,271.278l1.953,3.956,4.366.634-3.159,3.08.746,4.349-3.905-2.053-3.905,2.053.746-4.349-3.159-3.08,4.366-.634Z" transform="translate(-359.212 -152.882)" fill="#90e0fb"/>
    <path id="Path_236" data-name="Path 236" d="M17.51,143.044,19.463,147l4.366.634-3.159,3.08.746,4.349L17.51,153.01l-3.905,2.053.746-4.349-3.159-3.08L15.558,147Z" transform="translate(3.495 -75.702)" fill="#b3b3ff"/>
    <path id="Path_237" data-name="Path 237" d="M687.882,109.14l1.953,3.956,4.366.634-3.159,3.08.746,4.349-3.905-2.053-3.905,2.053.746-4.349-3.159-3.08,4.366-.634Z" transform="translate(-399.979 -55.297)" fill="#ffdb79"/>
    <path id="Path_239" data-name="Path 239" d="M69.235,174.9l.966,1.957,2.16.314L70.8,178.692l.369,2.151-1.932-1.016L67.3,180.843l.369-2.151-1.563-1.523,2.16-.314Z" transform="translate(-29.559 -94.874)" fill="#ffdb79"/>
    <path id="Path_240" data-name="Path 240" d="M277.041,9.543l.966,1.957,2.16.314L278.6,13.337l.369,2.151-1.932-1.016-1.932,1.016.369-2.151-1.563-1.523,2.16-.314Z" transform="translate(-154.63 4.647)" fill="#90e0fb"/>
    <path id="Path_241" data-name="Path 241" d="M412.021,270.935l.966,1.957,2.16.314-1.563,1.523.369,2.151-1.932-1.016-1.932,1.016.369-2.151-1.563-1.523,2.16-.314Z" transform="translate(-235.87 -152.676)" fill="#b3b3ff"/>
    <path id="Path_242" data-name="Path 242" d="M412.67,41.959l.966,1.957,2.16.314-1.563,1.523L414.6,47.9l-1.932-1.016L410.739,47.9l.369-2.151-1.563-1.523,2.16-.314Z" transform="translate(-236.261 -14.863)" fill="#b3b3ff"/>
    <path id="Path_243" data-name="Path 243" d="M513.112,5.1l.966,1.957,2.16.314L514.675,8.9l.369,2.151-1.932-1.016-1.932,1.016.369-2.151-1.563-1.523,2.16-.314Z" transform="translate(-296.713 7.32)" fill="#ffdb79"/>
    <path id="Path_244" data-name="Path 244" d="M360.513-6.537l.966,1.957,2.16.314-1.563,1.523.369,2.151-1.932-1.016L358.581-.592l.369-2.151-1.563-1.523,2.16-.314Z" transform="translate(-204.869 14.325)" fill="#ffa68e"/>
    <path id="Path_245" data-name="Path 245" d="M125.577,276.148l.966,1.957,2.16.314-1.563,1.523.369,2.151-1.932-1.016-1.932,1.016.369-2.151-1.563-1.523,2.16-.314Z" transform="translate(-63.469 -155.813)" fill="#b3b3ff"/>
    <path id="Path_246" data-name="Path 246" d="M-1.835,200.82l.966,1.957,2.16.314-1.563,1.523L.1,206.765l-1.932-1.016-1.932,1.016.369-2.151-1.563-1.523,2.16-.314Z" transform="translate(13.216 -110.476)" fill="#b3b3ff"/>
    <g id="Group_23" data-name="Group 23" transform="translate(304.145 44.2)">
      <path id="Path_247" data-name="Path 247" d="M746.809,84.92l4.411,3.743a9.406,9.406,0,0,1-6.143,3.676,7.421,7.421,0,0,0-2.638,1,3.924,3.924,0,0,0-2.03,2.876s-2.738-.674-2.075-3.258a3.508,3.508,0,0,1,.812-1.475,6.807,6.807,0,0,1,2.813-1.812,8.552,8.552,0,0,0,3.808-2.586A4.2,4.2,0,0,0,746.809,84.92Z" transform="translate(-738.231 -84.92)" fill="#ff5554"/>
      <path id="Path_248" data-name="Path 248" d="M740.735,111.022a16.772,16.772,0,0,0,5.631,0l.081-.016a4.212,4.212,0,0,1,4.941,4.545q-.017.171-.042.35l-4.645,1.5a2.488,2.488,0,0,0-1.15-2.338,3.277,3.277,0,0,0-1.194-.463c-1.171-.23-4.755-1.238-5.584-5.084A3.079,3.079,0,0,0,740.735,111.022Z" transform="translate(-738.557 -99.726)" fill="#ffa68e"/>
    </g>
    <path id="Path_252" data-name="Path 252" d="M629.413,212.634l.966,1.957,2.16.314-1.563,1.523.369,2.151-1.932-1.016-1.932,1.016.369-2.151-1.563-1.523,2.16-.314Z" transform="translate(-366.711 -117.586)" fill="#ffdb79"/>
    <path id="Path_254" data-name="Path 254" d="M481.256,278.4l.966,1.957,2.16.314-1.563,1.523.369,2.151-1.932-1.016-1.932,1.016.369-2.151-1.563-1.523,2.16-.314Z" transform="translate(-277.54 -157.169)" fill="#90e0fb"/>
  </g>
</svg>
