<?xml version="1.0"?>
<svg xmlns="http://www.w3.org/2000/svg" viewBox="0 0 48 48" width="512" height="512"><g id="Exchange_cash" data-name="Exchange cash"><path d="M33.65,43.77A22,22,0,0,1,7.6,9.35L7,12.46a1,1,0,0,0,2,.4c.86-4.3,1.27-6.41,1.26-6.31a1,1,0,0,0-1-1.17l-6.4.15a1,1,0,0,0,0,2l3.81-.09A24,24,0,0,0,34.53,45.57,1,1,0,0,0,33.65,43.77Z"/><path d="M45.16,40.47l-3.81.09C56,25.33,45,0,24,0A23.84,23.84,0,0,0,13.47,2.43,1,1,0,0,0,13,3.77C14,5.68,16,2,24,2,42.86,2,53.1,24.47,40.4,38.65L41,35.54a1,1,0,0,0-2-.4c-1.37,6.85-1.31,6.45-1.24,6.74.27,1,.67.75,7.39.59A1,1,0,0,0,45.16,40.47Z"/><path d="M17,22h4a1,1,0,0,0,0-2H19V19a1,1,0,0,0-2,0v1a3,3,0,0,0,0,6h2a1,1,0,0,1,0,2H15a1,1,0,0,0,0,2h2v1a1,1,0,0,0,2,0V30a3,3,0,0,0,0-6H17A1,1,0,0,1,17,22Z"/><path d="M34.5,10h-11A2.5,2.5,0,0,0,21,12.5v1.93a11,11,0,1,0,.81,20.88c1,.93.74.69,12.69.69A2.5,2.5,0,0,0,37,33.5c0-3.39.11-3.68-.51-4.5.64-.85.51-1.26.51-4.5a2.53,2.53,0,0,0-.51-1.5A2.53,2.53,0,0,0,37,21.5c0-3.39.11-3.68-.51-4.5.64-.85.51-1.26.51-4.5A2.51,2.51,0,0,0,34.5,10ZM23,12.5a.51.51,0,0,1,.5-.5h11c.66,0,.5.53.5,3.5a.51.51,0,0,1-.5.5c-12.27,0-9.46.26-11.5-.79Zm12,6v3a.51.51,0,0,1-.5.5H28.57a11,11,0,0,0-2.09-4h8A.51.51,0,0,1,35,18.5Zm0,6v3a.51.51,0,0,1-.5.5H28.57A10.49,10.49,0,0,0,29,24H34.5A.51.51,0,0,1,35,24.5ZM9,25a9,9,0,1,1,9,9A9,9,0,0,1,9,25Zm26,8.5a.51.51,0,0,1-.5.5H24.3a11.12,11.12,0,0,0,3.49-4H34.5a.51.51,0,0,1,.5.5Z"/></g></svg>
