<svg id="Capa_1" enable-background="new 0 0 511.481 511.481" height="512" viewBox="0 0 511.481 511.481" width="512" xmlns="http://www.w3.org/2000/svg"><g><path d="m297.664 293.893 3.213.602c4.065.756 7.989-1.919 8.753-5.991.763-4.071-1.92-7.99-5.991-8.753l-19.843-3.718c-3.946-.734-7.779 1.766-8.688 5.678l-4.56 19.666c-.936 4.035 1.577 8.065 5.612 9.001.57.132 1.14.195 1.701.195 3.411 0 6.496-2.343 7.3-5.808l.432-1.865 15.783 25.685c1.769 2.879.682 5.475.133 6.457-.55.983-2.192 3.269-5.572 3.269-4.143 0-7.5 3.357-7.5 7.5s3.357 7.5 7.5 7.5c7.854 0 14.831-4.093 18.664-10.947s3.667-14.941-.445-21.632z"/><path d="m264.186 326.046c-2.865-2.991-7.614-3.09-10.604-.226-2.991 2.866-3.092 7.613-.226 10.604l1.808 1.887h-38.891c-3.395 0-5.036-2.3-5.584-3.289s-1.629-3.6.17-6.478l1.877-3.003c2.195-3.513 1.128-8.14-2.385-10.336-3.512-2.194-8.14-1.127-10.335 2.385l-1.877 3.004c-4.181 6.688-4.394 14.801-.57 21.699s10.816 11.018 18.704 11.018h38.89l-1.807 1.886c-2.866 2.991-2.765 7.738.226 10.604 1.454 1.393 3.322 2.085 5.188 2.085 1.973 0 3.943-.773 5.416-2.311l13.968-14.575c2.78-2.901 2.78-7.478 0-10.379z"/><path d="m210.644 304.766c.8 3.452 3.875 5.807 7.299 5.807.458 0 .922-.042 1.389-.129l19.842-3.718c4.071-.763 6.753-4.682 5.99-8.753s-4.678-6.748-8.753-5.991l-3.059.573 17.678-28.284c1.7-2.72 4.348-2.97 5.438-3.001 1.069.004 3.735.309 5.414 3.042l3.293 5.359c2.17 3.529 6.788 4.633 10.317 2.464 3.528-2.169 4.632-6.788 2.464-10.317l-3.293-5.359c-3.903-6.351-10.684-10.16-18.138-10.188-.028 0-.056 0-.084 0-7.422 0-14.195 3.753-18.131 10.051l-17.141 27.426-.472-2.036c-.935-4.034-4.964-6.547-9-5.612-4.035.936-6.548 4.966-5.612 9.001z"/><path d="m501.51 137.292-32.113-84.863c-3.157-8.344-11.272-13.95-20.193-13.95h-78.469c-4.143 0-7.5 3.357-7.5 7.5s3.357 7.5 7.5 7.5h64.206v50.188c0 2.334-1.899 4.233-4.233 4.233h-33.702c-4.143 0-7.5 3.357-7.5 7.5s3.357 7.5 7.5 7.5h33.702c10.605 0 19.233-8.628 19.233-19.233v-50.131c2.423.278 4.551 1.886 5.427 4.201l29.706 78.502h-72.24c-4.143 0-7.5 3.357-7.5 7.5s3.357 7.5 7.5 7.5h83.073c.009 0 .017.002.026.002h.007c.3.005.543.248.543.549v13.861c0 .304-.247.551-.551.551h-83.094c-4.143 0-7.5 3.357-7.5 7.5s3.357 7.5 7.5 7.5h74.907l-3.687 42.065c-.361 4.127 2.69 7.765 6.816 8.127.224.02.444.028.664.028 3.846 0 7.12-2.941 7.463-6.845l3.95-45.069c5.053-2.571 8.531-7.81 8.531-13.858v-13.86c-.001-6.607-4.149-12.25-9.972-14.498z"/><path d="m391.203 165.651v-13.861c0-6.612-4.148-12.274-9.979-14.52l-32.105-84.842c-3.157-8.344-11.272-13.95-20.193-13.95h-83.571c-4.142 0-7.5 3.357-7.5 7.5s3.358 7.5 7.5 7.5h69.309v50.188c0 2.334-1.899 4.233-4.233 4.233h-109.49c-2.334 0-4.233-1.899-4.233-4.233v-50.187h16.685c4.142 0 7.5-3.357 7.5-7.5s-3.358-7.5-7.5-7.5h-30.854c-8.92 0-17.036 5.606-20.193 13.95l-32.105 84.842c-5.832 2.245-9.979 7.907-9.979 14.52v13.861c0 6.051 3.474 11.306 8.533 13.875l23.599 269.272c1.209 13.799 12.566 24.204 26.418 24.204h153.846c13.852 0 25.209-10.406 26.418-24.204l23.6-269.272c5.053-2.57 8.527-7.825 8.527-13.876zm-255.394.551c-.304 0-.551-.247-.551-.552v-13.86c0-.304.247-.551.551-.551h239.844c.304 0 .551.247.551.551v13.86c0 .305-.247.552-.551.552zm40.563-108.465c.865-2.284 2.949-3.886 5.333-4.194v50.124c0 10.605 8.628 19.233 19.233 19.233h109.49c10.605 0 19.233-8.628 19.233-19.233v-50.131c2.424.278 4.551 1.887 5.427 4.201l29.706 78.502h-218.128zm167.756 389.752c-.524 5.994-5.458 10.514-11.475 10.514h-153.845c-6.017 0-10.95-4.521-11.476-10.514l-23.338-266.287h223.471z"/><path d="m489.384 248.414c-4.143-.36-7.765 2.69-8.127 6.816l-16.85 192.258c-.525 5.994-5.459 10.515-11.476 10.515h-75.06c-4.143 0-7.5 3.357-7.5 7.5s3.357 7.5 7.5 7.5h75.06c13.851 0 25.209-10.405 26.419-24.205l16.85-192.258c.362-4.126-2.69-7.764-6.816-8.126z"/><path d="m33.039 373.236c4.126-.362 7.178-4 6.816-8.127l-16.118-183.907h74.888c4.142 0 7.5-3.357 7.5-7.5s-3.358-7.5-7.5-7.5h-82.958c-.003 0-.005 0-.008 0h-.108c-.304 0-.551-.247-.551-.551v-13.861c0-.301.243-.544.543-.549h.007c.009 0 .017-.002.026-.002h83.052c4.142 0 7.5-3.357 7.5-7.5s-3.358-7.5-7.5-7.5h-72.22l29.706-78.502c.865-2.285 2.948-3.886 5.333-4.194v50.124c0 10.605 8.628 19.233 19.233 19.233h33.775c4.142 0 7.5-3.357 7.5-7.5s-3.358-7.5-7.5-7.5h-33.774c-2.334 0-4.233-1.899-4.233-4.233v-50.188h64.279c4.142 0 7.5-3.357 7.5-7.5s-3.358-7.5-7.5-7.5h-78.448c-8.921 0-17.036 5.606-20.193 13.95l-32.114 84.863c-5.823 2.248-9.972 7.891-9.972 14.498v13.861c0 6.048 3.477 11.287 8.531 13.858l16.382 186.911c.342 3.903 3.617 6.845 7.463 6.845.219 0 .44-.009.663-.029z"/><path d="m133.589 458.003h-75.039c-6.017 0-10.95-4.52-11.475-10.515l-4.428-50.523c-.361-4.126-4-7.173-8.126-6.816-4.126.362-7.178 4-6.816 8.127l4.428 50.522c1.208 13.799 12.565 24.205 26.417 24.205h75.04c4.142 0 7.5-3.357 7.5-7.5s-3.359-7.5-7.501-7.5z"/></g></svg>