<?xml version="1.0" encoding="utf-8"?>
<!-- Generator: Adobe Illustrator 16.0.0, SVG Export Plug-In . SVG Version: 6.00 Build 0)  -->
<!DOCTYPE svg PUBLIC "-//W3C//DTD SVG 1.1 Tiny//EN" "http://www.w3.org/Graphics/SVG/1.1/DTD/svg11-tiny.dtd">
<svg version="1.1" baseProfile="tiny" id="Layer_1" xmlns="http://www.w3.org/2000/svg" xmlns:xlink="http://www.w3.org/1999/xlink"
	 x="0px" y="0px" width="160px" height="190px" viewBox="0 0 160 190" xml:space="preserve">
<path fill-rule="evenodd" fill="#8BB85B" d="M94.879,188.057c-4.707,1.518-9.381-0.076-14.024-0.369
	c-13.199-0.832-26.364-2.174-39.545-3.285c-5.786-0.49-7.688-2.072-8.783-7.742c-3.735-19.34-7.471-38.682-11.124-58.037
	c-3.606-19.109-7.111-38.238-10.66-57.359c1.327-1.107,2.393-0.533,3.386,0.519c1.306,2.477,1.415,5.27,2.04,7.927
	c0.403,1.711,1.171,2.341,2.906,1.571c17.266-7.662,35.005-6.014,52.823-2.633c4.438,0.842,8.623,2.437,12.709,4.322
	c3.742,1.727,7.287,3.753,10.498,7.459c0.248-3.712-0.055-6.776,0.221-9.799c0.154-1.686-0.184-3.885,2.512-4.114
	c1.604,1.971,1.129,4.304,0.959,6.484c-0.799,10.196-1.059,20.416-1.361,30.628c-0.477,16.064-1.121,32.125-1.807,48.176
	c-0.395,9.227-0.279,18.436-0.545,27.643c0.035,1.418-0.162,2.855,0.246,4.256C95.729,185.209,95.492,186.652,94.879,188.057z"/>
<path fill-rule="evenodd" fill="#75A05C" d="M94.879,188.057c-0.863-1.271,0.309-2.609-0.133-3.896
	c-0.646-1.309-0.197-2.707-0.33-4.061c0.443-16.285,1.084-32.559,2.166-48.816c0.404-6.08,0.428-12.188,0.686-18.279
	c0.572-13.553,1.486-27.097,1.654-40.668c0.029-2.271,0.211-4.498,1.879-6.277c0.336-0.3,0.721-0.532,1.141-0.703
	c0.627-0.191,1.24-0.171,1.82,0.156c0.881,5.123-0.674,10.131-0.848,15.215c-0.096,2.846-0.338,5.716-0.555,9.1
	c4.596-6.492,9.701-11.886,15.049-17.089c2.762-2.688,5.926-4.562,9.4-6.009c4.875-2.032,8.332-1.063,11.521,3.105
	c0.365,0.478,0.553,1.131,1.467,1.352c1.873-6.876,2.715-13.979,4.881-20.76c0.816-1.282,1.9-1.797,3.377-1.17
	c-3.391,20.934-6.768,41.871-10.176,62.799c-1.584,9.727-3.223,19.445-4.861,29.162c-0.186,1.096-0.525,2.168-0.793,3.25
	c-0.525,0.453-1.15,0.5-1.742,0.264c-4.693-1.877-7.85,0.176-10.439,3.938c-5.26,7.631-6.615,16.166-5.932,25.18
	c0.074,0.979,0.449,1.936,0.295,2.945C108.107,180.912,101.801,185.018,94.879,188.057z"/>
<path fill-rule="evenodd" fill="#AFCC5D" d="M6.301,58.968c-3.271-7.249-2.24-10.356,4.774-13.593
	c9.364-4.322,19.085-7.759,28.731-11.38c1.195-0.449,2.818-0.392,3.361-2.01c3.942-0.848,7.916-0.326,11.876-0.246
	c0.988,0.02,1.991,0.306,2.414,1.421c-0.68,2.176-2.74,2.37-4.441,2.947c-9.164,3.114-18.249,6.442-26.947,9.618
	c22.357,1.189,45.115,1.864,67.832,3.452c7.898,1.719,10.514,5.94,8.992,14.483c-0.197,0.438-0.502,0.776-0.91,1.027
	c-6.703,0.064-13.404-0.068-20.09-0.587c-0.859-0.066-1.719-0.307-2.594-0.268c-9.117,0.404-18.2-0.583-27.285-0.966
	C37.716,62.26,23.397,61.75,9.131,60.445C7.941,60.336,6.922,60.081,6.301,58.968z"/>
<path fill-rule="evenodd" fill="#8BB85B" d="M102.295,63.413c-0.006-1.351,0.125-2.72-0.049-4.048
	c-0.32-2.428-1.037-4.734-2.102-6.984c-1.373-2.907-4.43-0.704-6.146-2.313c0.293-0.426,0.682-0.769,1.189-0.829
	c12.904-1.525,24.506-7.484,36.875-10.83c1.559-0.422,3.137-0.813,4.656-1.367c0.723-0.173,1.447-0.384,2.336-0.261
	c-4.699-1.591-8.742-4.219-12.949-6.522c-7.557-4.136-15.113-8.273-22.643-12.457c-0.982-0.545-2.018-1.037-2.432-2.211
	c0.6-4.791,4.85-9.191,10.246-10.607c6.219,2.276,11.221,6.651,16.926,9.817c3.887,2.158,7.305,5.132,11.561,6.655
	c3.264,1.574,6.475,3.237,9.283,5.579c-2.365,6.48-1.627,12.846,0.697,19.157c-0.723,1.122-1.895,1.614-3.059,2.048
	c-13.451,5.026-26.922,10-40.406,14.938C105.004,63.645,103.668,64.124,102.295,63.413z"/>
<path fill-rule="evenodd" fill="#AECB5D" d="M111.277,4.983c-4.008,2.767-8.352,5.217-9.756,10.419
	c-0.832,0.915-1.943,1.145-3.078,1.062c-19.149-1.394-38.344-1.592-57.517-2.384c-4.053-1.085-8.186-0.509-12.28-0.519
	c-6.471-0.015-12.947,0.381-19.398-0.448c-2.203-0.693-1.483-1.762-0.411-2.943c4.888-5.383,10.67-8.819,18.199-8.861
	C48.083,1.191,69.099,1.94,90.104,3.25C97.174,3.691,104.271,3.751,111.277,4.983z"/>
<path fill-rule="evenodd" fill="#2C2827" d="M134.533,147.43c5.221-0.049,7.418,1.24,8.887,6.078
	c2.752,9.061,1.52,17.721-3.531,25.732c-2.059,3.268-4.891,5.342-9.098,4.051c-2.717-0.926-4.334-2.896-5.059-5.582
	c-2.539-9.4-1.457-18.297,3.889-26.543C130.797,149.352,132.236,147.807,134.533,147.43z"/>
<path fill-rule="evenodd" fill="#75A05C" d="M9.248,13.113c0.19-0.156,0.375-0.441,0.57-0.449
	c10.144-0.373,20.288-0.363,30.431,0.077c0.208,0.009,0.405,0.264,0.607,0.403c-2.826,1.983-6.029,0.509-9.138,1.115
	c8.957,5.342,17.539,11.22,26.417,16.63c0.73,0.445,1.604,0.771,1.553,1.871c-0.613,0.93-1.35,1.407-2.423,0.675
	c-1.981-1.58-4.284-0.495-6.426-0.751c-2.55-0.305-5.206,0.536-7.673-0.701C31.861,25.694,20.555,19.404,9.248,13.113z"/>
<path fill-rule="evenodd" fill="#52534D" d="M134.533,147.43c-8.873,7.846-10.188,17.83-8.258,28.797
	c0.535,3.053,2.619,4.963,4.516,7.064c-2.32-0.227-4.666-0.313-6.957-0.709c-4.043-0.703-4.967-4.338-6.541-7.326
	c-0.773-0.701-1.152-1.631-1.309-2.611c-1.434-9.018,0.221-17.289,6.352-24.281c2.811-3.203,5.99-3.572,10.053-1.711
	C133.104,146.912,133.818,147.17,134.533,147.43z"/>
<path fill-rule="evenodd" fill="#76A05C" d="M149.516,46.219c-3.973-6.375-4.09-12.909-0.805-19.582
	c-0.479-3.083,1.156-3.979,3.879-3.749c2.873,0.006,4.215,1.986,5.133,4.244c2.285,5.616,2.016,11.227-0.479,16.721
	c-1.188,2.616-3.117,4.184-6.176,3.899C150.223,47.572,149.697,47.07,149.516,46.219z"/>
<path fill-rule="evenodd" fill="#CCD869" d="M6.301,58.968c4.532,1.696,9.344,0.764,14,1.238c5.877,0.598,11.874,0.735,17.822,0.994
	c14.983,0.652,29.973,1.146,44.947,2.072c6.389,0.396,12.824,0.162,19.205,0.937c0.408,0.5,0.453,1.008,0.033,1.524l-0.014-0.002
	c-1.922,1.273-4.145,0.263-6.16,0.822c-3.48,0.596-6.994,0.524-10.463,0.139c-7.831-0.868-15.706-0.687-23.554-1.225
	c-12.944-0.888-25.938-1.061-38.868-2.223c-3.165-0.285-6.555,0.8-9.477-1.302c-0.941-0.534-1.949-0.769-3.029-0.678
	C8.996,61.015,6.651,61.922,6.301,58.968z"/>
<path fill-rule="evenodd" fill="#638957" d="M132.389,146.652c-8.283,0.047-12.072,3.225-14.416,11.279
	c-1.682,5.785-1.697,11.502-0.68,17.324c-0.963,0.512-1.926,1.023-2.887,1.537c-1.988-2.16-1.775-4.857-1.584-7.424
	c0.572-7.711,1.615-15.283,6.725-21.645c4.279-5.324,6.414-5.973,12.678-3.258C132.279,145.195,132.334,145.924,132.389,146.652z"/>
<path fill-rule="evenodd" fill="#ACCA5C" d="M102.309,65.732c-0.01-0.508-0.021-1.017-0.033-1.524
	c0.008-0.265,0.014-0.529,0.02-0.794c15.74-5.732,31.482-11.464,47.221-17.195c0.518,0.511,1.035,1.021,1.553,1.533
	c-1.004,0.501-2.01,1.002-3.014,1.503c-1.023,0.469-2.047,0.936-3.07,1.403c-0.639,1.002-1.639,1.464-2.701,1.864
	c-11.488,4.342-23.086,8.388-34.564,12.754c-1.242,0.473-2.539,1.107-3.939,0.431C103.289,65.716,102.799,65.725,102.309,65.732z"/>
<path fill-rule="evenodd" fill="#AFCC5E" d="M152.59,22.888c-2.002,0.516-3.338,1.721-3.877,3.75
	c-3.803-0.316-6.289-2.897-8.949-5.182C144.111,21.288,148.398,21.654,152.59,22.888z"/>
<path fill-rule="evenodd" fill="#75A05C" d="M13.772,61.942c13.692,0.327,27.354,1.237,41.018,2.128
	c5.094,0.332,10.197,0.302,15.303,0.688c8.69,0.656,17.428,0.687,26.147,0.98c0.271,0.23,0.709,0.282,0.779,0.727
	c-1.563,5.189-0.178,10.591-1.076,16.736C90.988,76.2,84.07,73.5,77.015,71.081c-5.773-1.98-11.811-3.48-17.809-3.636
	c-13.983-0.362-28.314-2.127-41.188,5.715c-1.903,1.159-2.29-0.177-2.53-1.326C14.806,68.56,14.33,65.243,13.772,61.942z"/>
<path fill-rule="evenodd" fill="#AECC5D" d="M97.02,66.465c-0.26-0.242-0.52-0.485-0.779-0.728c2.018-0.002,4.037-0.005,6.055-0.007
	c-1.9,1.417-2.162,3.474-2.24,5.628c-0.514,14.291-0.959,28.585-1.586,42.87c-0.646,14.77-1.43,29.533-2.238,44.295
	c-0.4,7.313-0.99,14.613-1.494,21.92c-0.232,0.34-0.469,0.359-0.715,0.014c0.006-7.494-0.293-15.006,0.086-22.482
	c0.711-14.053,1.059-28.113,1.553-42.17c0.441-12.559,1.309-25.105,1.367-37.68c0.014-2.872,1.154-5.629,0.75-8.534
	C97.629,68.52,98.107,67.307,97.02,66.465z"/>
<path fill-rule="evenodd" fill="#FFFFFF" d="M45.303,119.605c1.968,0.223,3.936,0.459,5.908,0.66
	c5.251,0.535,5.252,0.529,5.287,5.881c0.007,1.115-0.063,2.238,0.045,3.346c0.184,1.883-0.703,2.369-2.415,2.199
	c-2.958-0.295-5.927-0.48-8.891-0.707c-1.591-0.123-2.379-1.291-2.996-2.496c-1.35-2.637-2.574-5.338-3.851-8.014
	c0.903-0.336,1.589-1.031,2.436-1.477C42.406,118.584,43.92,118.617,45.303,119.605z"/>
<path fill-rule="evenodd" fill="#FCFDFC" d="M51.996,91.187c3.109-1.673,6.27-0.154,9.405-0.197
	c3.698-0.051,6.218,1.357,7.407,4.926c0.612,1.837,2.062,1.103,3.398,0.665c-2.576,9.023-2.576,9.023-13.359,7.189
	c3.153-2.936-0.66-4.803-1.002-7.229C56.197,94.427,52.838,94.181,51.996,91.187z"/>
<path fill-rule="evenodd" fill="#FCFDFC" d="M51.996,91.187c2.311,0.565,2.895,3.914,5.818,3.62c0.24-0.024,0.975,1.107,0.031,1.734
	c-2.072-0.499-1.639,1.617-2.389,2.439c-1.502,1.645-2.793,3.535-3.893,5.482c-1.195,2.119-2.314,1.906-4.156,0.736
	c-6.713-4.256-6.601-4.096-2.459-10.959C46.735,91.279,48.771,90.192,51.996,91.187z"/>
<path fill-rule="evenodd" fill="#FCFDFC" d="M76.921,123.643c-0.959,2.006-1.863,4.039-2.893,6.008
	c-1.271,2.43-3.088,3.721-6.063,3.031c-1.627-0.377-3.664-0.682-3.225,2.459c-6.18-7.336-6.193-8.094-0.24-15.805
	c0.348,1.465,0.383,3.252,2.443,2.701c2.832,1.141,5.598-0.76,8.42-0.188C76.226,122.148,77.146,122.402,76.921,123.643z"/>
<path fill-rule="evenodd" fill="#FCFDFC" d="M71.634,121.113c-1.783-2.967-3.504-5.975-5.381-8.883
	c-0.963-1.496-0.867-2.551,0.818-3.17c2.548-0.938,4.912-4.277,7.398-2.797c1.99,1.186,2.414,4.76,3.992,6.943
	c1.914,2.65,0.719,4.869-0.238,7.248c-0.551,1.18-1.544,1.658-2.777,1.76C74.172,121.863,72.404,123.219,71.634,121.113z"/>
<path fill-rule="evenodd" fill="#FCFDFB" d="M40.088,119.484c0.047,1.383-0.701,1.4-1.699,0.99
	c-1.865-3.764-4.186-7.488-1.35-11.777c0.932-1.41-1.54-1.51-1.006-2.736c9.844,0.32,9.844,0.32,12.958,8.59
	c-2.931-0.512-4.708,0.328-4.26,3.66c-1.218,2.102-2.906,0.783-4.439,0.625c-0.066-0.008-0.187,0.172-0.221,0.281
	S40.08,119.361,40.088,119.484z"/>
<path fill-rule="evenodd" fill="#ADCA81" d="M71.634,121.113c0.984,1.244,2.469,0.348,3.625,0.852
	c0.457,0.32,0.411,0.531-0.137,0.635c-2.741,0.035-5.517,0.563-8.178-0.563C68.462,121.5,70.316,122.666,71.634,121.113z"/>
<path fill-rule="evenodd" fill="#9BC36A" d="M40.088,119.484c-0.396-0.266-1.096-0.504-1.125-0.805
	c-0.068-0.691,0.593-0.5,1.035-0.467c1.578,0.117,3.156,1.576,4.733-0.002c0.19,0.465,0.381,0.93,0.571,1.395
	C43.564,119.566,41.826,119.525,40.088,119.484z"/>
<path fill-rule="evenodd" fill="#E8F1DD" d="M75.123,122.6c0.048-0.211,0.094-0.422,0.137-0.635c0.988-0.502,1.977-1.006,2.965-1.51
	c0.387,1.398-0.371,2.328-1.303,3.188C76.554,122.895,75.857,122.715,75.123,122.6z"/>
<path fill-rule="evenodd" fill="#9DC35F" d="M94.021,180.457c0.24-0.002,0.479-0.006,0.715-0.014c0.004,1.24,0.008,2.48,0.01,3.719
	C93.523,183.117,94.197,181.705,94.021,180.457z"/>
<path fill-rule="evenodd" fill="#638957" d="M103.779,65.707c13.734-5.017,27.471-10.032,41.205-15.048
	c-0.867,7.717-3.111,15.144-4.611,22.716c-1.246-0.043-1.617-0.887-2.057-1.619c-3.328-5.536-6.246-6.362-12.109-3.803
	c-7.627,3.329-12.334,9.922-17.84,15.621c-2.443,2.529-4.01,5.854-7.324,8.641c0.709-8.53,1.336-16.279,2.018-24.021
	C103.135,67.35,103.531,66.535,103.779,65.707z"/>
<path fill-rule="evenodd" fill="#486044" d="M57.266,33.436c0.743-0.253,1.487-0.507,2.231-0.76
	c2.465-1.842,5.268-1.142,7.941-0.919c11.179,0.928,22.395,1.236,33.579,2.056c11.061,0.811,22.158,1.091,33.189,2.289
	c1.221,0.132,2.914-0.233,3.186,1.765c-10.59,3.44-21.197,6.822-31.758,10.351c-3.805,1.271-7.635,2.004-11.637,1.852
	C70.244,48.935,46.49,47.8,22.736,46.666C33.922,41.379,45.67,37.607,57.266,33.436z"/>
<path fill-rule="evenodd" fill="#638957" d="M137.393,37.866c-3.018-1.323-6.324-1.006-9.443-1.261
	c-10.523-0.856-21.096-1.098-31.643-1.687c-12.273-0.686-24.54-1.49-36.809-2.243C49.428,26.414,39.36,20.152,29.292,13.891
	c0.052-0.249,0.104-0.497,0.156-0.745c3.803,0,7.605,0,11.409,0c12.922,0.293,25.846,0.487,38.762,0.918
	c7.307,0.245,14.602,0.879,21.903,1.339c8.191,4.608,16.371,9.245,24.584,13.816c4.545,2.531,9.15,4.955,14.047,7.599
	C139.08,37.226,138.236,37.545,137.393,37.866z"/>
<path fill-rule="evenodd" fill="#9CA093" d="M140.623,164.195c0.027,3.33-0.676,6.457-2.873,9.053
	c-2.303,2.725-4.523,2.447-6.098-0.65c-1.957-3.854-0.828-11.746,2.125-14.863c2.027-2.137,4.346-1.881,5.813,0.65
	C140.637,160.193,140.658,162.189,140.623,164.195z"/>
<path fill-rule="evenodd" fill="#8BB65B" d="M150.285,36.4c0-1.075-0.008-1.199,0-1.322c0.16-2.294,0.648-5.194,3.229-4.896
	c2.291,0.265,2.813,3.04,2.15,5.443c-0.031,0.118-0.047,0.242-0.061,0.364c-0.227,1.918-0.131,4.719-2.555,4.521
	C150.865,40.332,150.35,37.647,150.285,36.4z"/>
</svg>
