<svg clip-rule="evenodd" fill-rule="evenodd" height="512" stroke-linejoin="round" stroke-miterlimit="2" viewBox="0 0 24 24" width="512" xmlns="http://www.w3.org/2000/svg"><g transform="translate(-93.858 -29.917)"><path d="m97 51.917h16.358c.663 0 1.299-.263 1.768-.732.468-.469.732-1.105.732-1.768 0-4.323 0-16.5 0-16.5 0-.552-.448-1-1-1s-1 .448-1 1v16.5c0 .133-.053.26-.147.354-.093.094-.221.146-.353.146-4.299 0-16.358 0-16.358 0-.552 0-1 .448-1 1s.448 1 1 1zm.858-12v7c0 .552.448 1 1 1s1-.448 1-1v-7c0-.552-.448-1-1-1s-1 .448-1 1zm12-5v12c0 .552.448 1 1 1s1-.448 1-1v-12c0-.552-.448-1-1-1s-1 .448-1 1zm-4 6v6c0 .552.448 1 1 1s1-.448 1-1v-6c0-.552-.448-1-1-1s-1 .448-1 1zm-4-3v9c0 .552.448 1 1 1s1-.448 1-1v-9c0-.552-.448-1-1-1s-1 .448-1 1z"/></g></svg>