<svg xmlns="http://www.w3.org/2000/svg" width="21.752" height="21.752" viewBox="0 0 21.752 21.752">
  <g id="Group_2547" data-name="Group 2547" transform="translate(-0.121 -3.254)">
    <path id="Icon_awesome-question-circle" data-name="Icon awesome-question-circle" d="M21.314,10.938a10.472,10.472,0,0,1-7.4,9.944c-.067.023-.514.148-.514.148a15.523,15.523,0,0,1-2.457.283A10.376,10.376,0,1,1,21.314,10.938Zm-10.1-6.945A5.419,5.419,0,0,0,6.341,6.661a.5.5,0,0,0,.114.68l1.452,1.1a.5.5,0,0,0,.7-.089c.747-.948,1.26-1.5,2.4-1.5.855,0,1.912.55,1.912,1.379,0,.627-.517.948-1.361,1.422-.984.552-2.287,1.238-2.287,2.956v.167a.5.5,0,0,0,.5.5H12.11a.5.5,0,0,0,.5-.5v-.056c0-1.191,3.48-1.24,3.48-4.463C16.092,5.834,13.575,3.993,11.217,3.993Z" transform="translate(0.058 3.191)" fill="none" stroke="#616161" stroke-width="1"/>
    <g id="Ellipse_84" data-name="Ellipse 84" transform="translate(9.194 18)" fill="#fff" stroke="#249507" stroke-width="1">
      <circle cx="2" cy="2" r="2" stroke="none"/>
      <circle cx="2" cy="2" r="1.5" fill="none"/>
    </g>
  </g>
</svg>
