<svg xmlns="http://www.w3.org/2000/svg" width="21.085" height="22.685" viewBox="0 0 21.085 22.685">
  <g id="Group_2546" data-name="Group 2546" transform="translate(0.4 0.4)">
    <path id="Vector" d="M4.064,20.631a2.814,2.814,0,0,1-2.81-2.81V4.064a2.814,2.814,0,0,1,2.81-2.81h5.8A.627.627,0,0,0,9.865,0h-5.8A4.068,4.068,0,0,0,0,4.064V17.821a4.068,4.068,0,0,0,4.064,4.064H9.772a.627.627,0,1,0,0-1.254Z" fill="#616161" stroke="#616161" stroke-linecap="round" stroke-linejoin="round" stroke-width="0.8" stroke-dasharray="0 0"/>
    <path id="Vector-2" data-name="Vector" d="M11.318.185a.627.627,0,0,0-.887.887l2.917,2.917H.627a.627.627,0,1,0,0,1.254H13.348L10.431,8.159a.629.629,0,0,0,.441,1.073.612.612,0,0,0,.441-.186L15.3,5.061a.627.627,0,0,0,0-.892Z" transform="translate(4.798 6.331)" fill="#40aa54" stroke="#40aa54" stroke-linecap="round" stroke-linejoin="round" stroke-width="0.8" stroke-dasharray="0 0"/>
  </g>
</svg>
