<?xml version="1.0" encoding="utf-8"?>
<!-- Generator: Adobe Illustrator 16.0.0, SVG Export Plug-In . SVG Version: 6.00 Build 0)  -->
<!DOCTYPE svg PUBLIC "-//W3C//DTD SVG 1.1 Tiny//EN" "http://www.w3.org/Graphics/SVG/1.1/DTD/svg11-tiny.dtd">
<svg version="1.1" baseProfile="tiny" id="Layer_1" xmlns="http://www.w3.org/2000/svg" xmlns:xlink="http://www.w3.org/1999/xlink"
	 x="0px" y="0px" width="160px" height="190px" viewBox="0 0 160 190" xml:space="preserve">
<path fill-rule="evenodd" fill="#D24B43" d="M92.635,188.984c-4.58,1.242-9.114-0.098-13.635-0.408
	c-13.187-0.902-26.345-2.2-39.524-3.229c-5.873-0.459-8.021-2.051-9.125-7.845c-6.039-31.691-12.022-63.394-18.02-95.094
	c-1.274-6.731-2.529-13.467-3.792-20.201c2.076-1.495,4.123-1.536,6.132,0.118c-2.354,2.767-1.327,5.744-0.527,8.702
	c0.348,1.286,1.022,1.981,2.446,1.288c16.118-7.85,32.937-6.221,49.785-3.533c6.044,0.965,11.863,2.874,17.357,5.65
	c3.463,1.751,6.563,3.996,9.319,7.104c0.104-3.707-0.152-7.179,0.124-10.629c0.124-1.555-0.158-3.291,1.244-4.526
	c0.717-0.145,1.312,0.005,1.698,0.683c1.031,2.537,0.675,5.19,0.489,7.775c-0.778,10.824-0.978,21.67-1.404,32.508
	c-0.602,15.304-1.108,30.613-1.753,45.912c-0.415,9.852-0.595,19.667-0.259,29.502C93.684,184.892,93.558,186.975,92.635,188.984z"
	/>
<path fill-rule="evenodd" fill="#B24F46" d="M92.635,188.984c-1.191-1.77,0.576-3.578-0.071-5.354
	c-0.956-6.715-0.045-13.443,0.195-20.131c0.339-9.453,0.913-18.911,1.263-28.369c0.586-15.811,1.656-31.599,2.077-47.42
	c0.146-5.473,0.612-10.954,0.665-16.445c0.018-1.812,0.428-3.478,2.102-4.536c0.201-0.093,0.41-0.184,0.607-0.276
	c0.404-0.129,0.823-0.138,1.234-0.031c1.951,2.582,1.038,5.475,0.803,8.263c-0.426,5.038-1.019,10.063-1.342,15.767
	c5.201-6.773,10.285-12.705,16.208-17.875c1.708-1.491,3.542-2.76,5.537-3.8c7.235-3.771,11.308-2.679,15.628,4.013
	c1.834-6.922,2.536-14.234,4.705-21.236c0.858-1.377,2.019-1.955,3.617-1.369c-3.364,20.804-6.7,41.612-10.104,62.409
	c-1.832,11.198-3.779,22.378-5.675,33.566c-0.24,0.092-0.524,0.206-0.718,0.101c-6.336-3.504-10.818,0.238-13.699,6.695
	c-3.117,6.987-5.238,14.309-3.463,22.146c0.197,0.871-0.01,1.736-0.056,2.604C105.86,181.838,99.525,185.891,92.635,188.984z"/>
<path fill-rule="evenodd" fill="#D66343" d="M4.617,60.807c-4.015-7.11-2.794-11.275,4.334-14.561
	c9.396-4.33,19.132-7.809,28.813-11.428c1.261-0.472,2.689-0.633,3.649-1.746c4.289-2.132,8.643-1.007,12.963-0.175
	c0.72,0.14,1.107,0.956,0.695,1.814c-1.23,1.374-2.97,1.813-4.6,2.382c-8.908,3.109-17.841,6.143-26.524,9.523
	c23.243,1.219,46.631,1.844,69.97,3.541c5.674,1.796,8.223,7.327,6.729,14.579c-0.227,0.438-0.572,0.73-1.035,0.891
	c-10.1,0.347-20.162-0.638-30.235-0.998c-11.563-0.415-23.125-1.007-34.69-1.476c-9.44-0.382-18.842-1.545-28.298-1.79
	C5.747,61.348,5.175,61.095,4.617,60.807z"/>
<path fill-rule="evenodd" fill="#D24B43" d="M100.117,64.389c0.074-2.816-0.184-5.536-1.078-8.283
	c-0.862-2.65-2.053-4.571-4.951-5.026c1.951-1.826,4.63-1.563,6.939-2.347c10.955-3.724,22.007-7.157,33.018-10.709
	c0.723-0.191,1.465-0.287,2.059-0.342c-7.086-3.572-14.092-7.594-21.174-11.472c-3.836-2.101-7.582-4.36-11.49-6.328
	c-2.343-1.18-4.635-2.455-7.357-2.624c-0.942-0.059-2.088-0.174-2.105-1.601c3.807-0.741,6.405-3.009,8.658-6.116
	c1.314-1.813,3.261-3.385,5.767-3.706c1.182-0.261,2.176,0.183,3.144,0.796c7.936,5.027,15.877,10.047,23.816,15.068
	c4.252,1.163,7.91,3.537,11.657,5.736c0.072,2.751-1.53,5.106-1.71,7.859c-0.273,4.19,1.188,7.938,2.248,11.813
	c-2.105,2.412-5.273,2.736-7.986,3.811c-12.172,4.817-24.564,9.051-36.93,13.351C101.824,64.554,100.982,64.877,100.117,64.389z"/>
<path fill-rule="evenodd" fill="#D66343" d="M108.401,5.835c-3.113,2.581-6.355,4.995-8.503,8.582
	c-1.371,2.292-3.873,0.861-5.824,1.3c-3.214,2.061-6.806,1.307-10.15,0.935c-8.542-0.95-17.129-0.766-25.674-1.094
	c-10.293-0.396-20.599-0.852-30.9-1.067c-6.764,0.02-13.535,0.109-20.287-0.541c-1.716-0.488-1.897-1.337-0.685-2.628
	c4.636-4.942,9.792-8.875,16.977-9.026c21.827-0.46,43.612,0.569,65.389,1.841C95.309,4.52,101.916,4.501,108.401,5.835z"/>
<path fill-rule="evenodd" fill="#2D2826" d="M133.224,148.334c3.849-0.547,6.236,1.441,7.45,4.766
	c3.668,10.044,2.293,19.508-3.893,28.188c-1.737,2.438-4.183,3.9-7.423,3.002c-3.386-0.642-5.076-3.073-5.89-6.071
	c-2.581-9.509-1.318-18.489,4.265-26.699C128.996,149.662,130.606,148.033,133.224,148.334z"/>
<path fill-rule="evenodd" fill="#B24F46" d="M7.063,13.949c0.549-0.713,1.115-1.182,2.177-1.013
	c5.769,0.92,11.597,0.226,17.39,0.557c9.869,5.921,19.542,12.156,29.275,18.292c0.715,0.451,1.603,0.771,1.598,1.854
	c-0.648,0.798-1.392,1.269-2.434,0.707c-2.259-1.872-4.896-1.175-7.453-1.137c-2.067,0.03-4.136-0.087-6.205-0.138
	C29.962,26.697,18.513,20.324,7.063,13.949z"/>
<path fill-rule="evenodd" fill="#52534D" d="M133.224,148.334c-6.948,3.589-8.67,10.313-9.727,17.118
	c-0.54,3.479-0.472,7.155,0.409,10.764c0.845,3.46,2.402,6.212,5.452,8.074c-2.438-0.245-4.884-0.427-7.312-0.751
	c-4.28-0.572-5.287-4.299-6.951-7.375c-3.45-6.73-1.4-13.334,0.648-19.85c0.85-2.703,2.318-5.22,4.421-7.27
	c3.242-3.162,5.911-3.558,10.071-1.43C131.232,147.854,132.228,148.095,133.224,148.334z"/>
<path fill-rule="evenodd" fill="#B24F46" d="M147.364,47.16c-3.746-5.347-3.806-11.117-1.935-17.096
	c0.332-1.062,0.779-2.088,1.174-3.13c0.002-2.651,1.494-3.448,3.888-3.121c2.707-0.053,4.071,1.771,4.952,3.889
	c2.369,5.702,2.18,11.436-0.4,17.028c-1.174,2.544-3.043,4.263-6.144,3.904C148.033,48.512,147.529,48.012,147.364,47.16z"/>
<path fill-rule="evenodd" fill="#DE8053" d="M4.617,60.807c9.449-0.518,18.828,0.539,28.223,1.248
	c5.938,0.449,11.915,0.464,17.848,0.641c9.435,0.279,18.883,0.703,28.293,1.19c7.026,0.363,14.16-0.307,21.118,1.295
	c0.399,0.494,0.452,0.989,0.005,1.485l-0.012,0.008c-1.501,0.595-3.001,1.241-4.531,0.078c-0.486,0.002-0.971,0.006-1.457,0.008
	c-2.09,1.646-4.603,1.32-6.854,0.979c-7.075-1.074-14.218-0.734-21.313-1.154c-12.327-0.729-24.677-1.313-37.022-1.826
	c-4.76-0.198-9.718,0.263-14.261-1.896c-1.925-1.277-4.083-0.381-6.115-0.653C7.135,62.012,5.439,62.63,4.617,60.807z"/>
<path fill-rule="evenodd" fill="#934C48" d="M130.236,147.615c-8.199-0.342-9.76,0.479-13.156,8.221
	c-2.363,5.387-3.383,11.079-2.254,17.004c0.207,1.086,0.186,2.215,0.27,3.324c-0.982,0.513-1.964,1.027-2.945,1.541
	c-2.219-4.852-1.963-9.879-0.748-14.857c1.438-5.896,2.796-11.875,7.471-16.337c3.658-3.49,7.23-3.644,11.212-0.352
	C130.135,146.645,130.186,147.13,130.236,147.615z"/>
<path fill-rule="evenodd" fill="#D66243" d="M100.104,66.666c-0.002-0.494-0.004-0.99-0.005-1.485
	c0.007-0.264,0.013-0.527,0.019-0.791c8.162-2.999,16.317-6.015,24.486-8.993c7.579-2.765,15.173-5.491,22.761-8.236
	c0.511,0.492,1.022,0.982,1.534,1.475c-1.012,0.516-2.023,1.032-3.035,1.549c-1.009,0.474-2.018,0.947-3.026,1.422
	c-2.978,2.386-6.679,3.218-10.124,4.509c-9.289,3.483-18.607,6.896-27.959,10.209c-1.241,0.44-2.475,1.314-3.879,0.425
	C100.618,66.722,100.36,66.694,100.104,66.666z"/>
<path fill-rule="evenodd" fill="#D66243" d="M150.491,23.813c-1.854,0.345-2.976,1.603-3.888,3.121
	c-1.076,0.694-1.931,0.483-3.022-0.251c-2.656-1.786-5.47-3.338-8.22-4.984C140.37,22.653,145.59,22.098,150.491,23.813z"/>
<path fill-rule="evenodd" fill="#B24F46" d="M14.653,62.861c17.288,0.796,34.577,1.566,51.863,2.399
	c9.198,0.443,18.392,0.995,27.587,1.498c0,5.499,0,10.997,0,17.421c-3.985-4.502-7.901-7.502-12.588-9.668
	c-8.038-3.717-16.575-5.3-25.202-6.228c-10.89-1.171-21.803-1.106-32.479,2.083c-2.768,0.826-5.436,1.827-7.73,3.559
	c-1.545,1.165-2.125,0.713-2.498-0.931c-0.604-2.66-1.353-5.29-1.868-7.966C11.255,62.518,13.291,63.068,14.653,62.861z"/>
<path fill-rule="evenodd" fill="#D66243" d="M95.561,66.752c1.51-0.026,3.021-0.053,4.531-0.078
	c-1.506,1.056-2.211,2.331-2.268,4.338c-0.404,14.44-0.768,28.889-1.567,43.31c-0.6,10.814-1.065,21.628-1.515,32.447
	c-0.512,12.297-1.434,24.575-2.178,36.862c-1.038-0.869-0.685-2.068-0.703-3.152c-0.261-14.831,0.537-29.632,1.182-44.442
	c0.528-12.155,0.652-24.328,1.084-36.488C94.514,88.613,95.075,77.684,95.561,66.752z"/>
<path fill-rule="evenodd" fill="#FDFEFE" d="M41.634,119.935c3.102,1.558,6.519,0.8,9.772,1.23c2.11,0.28,2.963,0.665,2.985,3.034
	c0.076,8.395,0.188,8.144-8.147,7.966c-3.865-0.083-6.021-1.59-7.388-4.928c-0.799-1.952-1.746-3.845-2.626-5.764
	c0.286-0.986,1.087-1.326,1.965-1.574c0.67-0.173,1.345-0.338,2.03-0.452C40.764,119.408,41.255,119.51,41.634,119.935z"/>
<path fill-rule="evenodd" fill="#FDFBFC" d="M57.964,101.438c-1.028-1.539-2.057-3.078-3.119-4.667
	c-1.518,3.678-3.603,7.419-6.519,9.49c-3.102,2.203-5.45-2.425-8.343-3.606c-1.93-0.788-0.664-1.96-0.045-2.95
	c0.993-1.586,2.166-3.08,2.988-4.75c1.56-3.165,3.802-4.081,7.009-2.589c1.289-0.804,1.965,0.134,2.692,0.937
	c0.67,0.707,1.562,0.96,2.465,1.195C58.303,96.701,59.231,98.952,57.964,101.438z"/>
<path fill-rule="evenodd" fill="#FFFEFD" d="M57.964,101.438c0.194-2.933-0.609-5.278-3.688-6.292
	c-0.83-0.445-1.333-1.425-2.407-1.474c-0.391-0.811-1.136-1.099-1.933-1.308c1.216-2.102,3.176-0.94,4.696-0.843
	c4.796,0.308,10.259-0.552,12.375,5.707c0.614,1.815,2.109,0.044,3.033,0.375c0.017,0.392,0.06,0.523,0.022,0.624
	c-2.979,7.872-2.98,7.872-13.381,6.5C56.815,103.51,58.902,102.976,57.964,101.438z"/>
<path fill-rule="evenodd" fill="#FDFEFE" d="M75.367,121.427c-0.207,4.583-2.721,8.104-5.449,11.46
	c-1.072,1.32-2.802,0.672-4.262,0.643c-2.628-0.052-2.627-0.073-3.488,2.186c-6.358-9.857-6.126-6.379,0.343-15.654
	c-0.485,3.734,1.991,2.785,3.751,2.98c2.184,0.783,4.151-0.266,6.181-0.746C73.391,121.913,74.168,120.951,75.367,121.427z"/>
<path fill-rule="evenodd" fill="#FDFBFC" d="M75.367,121.427c-0.739,0.499-1.479,0.999-2.217,1.499
	c-1.29,0.076-2.864,1.31-3.592-0.887c-1.807-2.963-3.519-5.99-5.458-8.863c-1.131-1.676-0.807-2.399,0.901-3.373
	c6.943-3.958,6.877-4.005,10.627,3.183C77.145,115.894,78.859,118.715,75.367,121.427z"/>
<path fill-rule="evenodd" fill="#FDFBFB" d="M41.634,119.935c-0.46-0.012-0.921-0.022-1.381-0.034
	c-1.618,0.22-3.173,0.086-4.583-0.836c-2.016-3.037-3.279-6.113-0.79-9.549c0.966-1.333-1.596-1.465-1.007-2.86
	c1.437,0.099,2.961,0.503,4.364,0.246c4.877-0.894,6.07,2.642,7.532,5.939c0.306,0.691,0.698,1.588-0.332,1.832
	C42.589,115.351,42.711,118.052,41.634,119.935z"/>
<path fill-rule="evenodd" fill="#FDFBFB" d="M69.558,122.039c0.931,1.376,2.51,0.125,3.592,0.887
	c-2.273,1.359-4.578,0.884-6.887,0.115C67.32,122.57,68.755,123.347,69.558,122.039z"/>
<path fill-rule="evenodd" fill="#FDFBFB" d="M35.67,119.064c1.696-0.646,3.096,0.334,4.583,0.836
	c-0.331,0.611-0.93,0.655-1.52,0.722c-0.918-0.758-2.208,0.313-3.087-0.63C35.654,119.683,35.662,119.374,35.67,119.064z"/>
<path fill-rule="evenodd" fill="#FDFBFB" d="M35.646,119.992c1.09-0.091,2.177-0.166,3.087,0.631
	c-0.833,0.283-1.668,0.566-2.502,0.851C35.583,121.158,35.622,120.572,35.646,119.992z"/>
<path fill-rule="evenodd" fill="#934C48" d="M100.875,66.748c12.672-4.707,25.34-9.427,38.021-14.105
	c1.268-0.469,2.625-0.697,3.94-1.037c-1.508,7.598-3.016,15.196-4.517,22.762c-0.557-0.071-0.753-0.047-0.783-0.107
	c-5.414-10.742-13.525-6.687-20.208-1.123c-6.421,5.345-11.901,11.605-16.614,18.521c-0.342,0.502-0.677,1.08-1.626,0.85
	C99.684,83.933,100.279,75.341,100.875,66.748z"/>
<path fill-rule="evenodd" fill="#643A3D" d="M55.069,34.346c0.738-0.246,1.476-0.492,2.214-0.737
	c3.518-2.001,7.313-1.14,10.969-0.854c10.703,0.834,21.43,1.262,32.134,2.029c10.082,0.723,20.197,0.996,30.252,2.074
	c1.441,0.154,3.414-0.19,3.909,2.022c-11.078,3.578-22.172,7.108-33.223,10.771c-2.38,0.789-4.732,1.415-7.237,1.429
	c-24.333-1.183-48.666-2.366-72.999-3.549C32.153,42.121,43.657,38.354,55.069,34.346z"/>
<path fill-rule="evenodd" fill="#934C48" d="M134.548,38.88c-2.768-1.143-5.724-1.256-8.636-1.421
	c-10.267-0.582-20.553-0.874-30.807-1.615c-12.599-0.91-25.184-1.987-37.821-2.234c-9.614-5.989-19.233-11.967-28.827-17.984
	c-0.787-0.494-1.869-0.869-1.828-2.133c17.895,0.503,35.797,0.827,53.678,1.628c4.583,0.205,9.177,0.416,13.767,0.596
	c13.528,3.14,24.132,12.209,36.372,17.963c2.458,1.155,4.792,2.575,7.71,4.158C136.684,38.263,135.615,38.57,134.548,38.88z"/>
<path fill-rule="evenodd" fill="#9DA093" d="M138.447,164.75c0.102,3.335-0.584,6.487-2.65,9.146
	c-2.366,3.044-5.199,2.725-6.461-0.866c-1.759-5.011-1.02-9.892,2.107-14.19c1.947-2.676,4.621-2.204,6.154,0.803
	C138.424,161.263,138.445,163.002,138.447,164.75z"/>
<path fill-rule="evenodd" fill="#D24A43" d="M153.916,36.006c-0.883,1.925-0.129,5.244-3.053,5.301
	c-2.16,0.042-2.843-2.563-2.695-4.604c0.154-2.138,0.069-5.172,2.714-5.438C153.746,30.977,153.197,34.171,153.916,36.006z"/>
<path fill-rule="evenodd" fill="#FFFEFD" d="M51.868,93.673c1.616-0.837,1.618,0.963,2.408,1.474
	C53.049,95.348,52.529,94.396,51.868,93.673z"/>
</svg>
