<svg xmlns="http://www.w3.org/2000/svg" width="22.934" height="24.883" viewBox="0 0 22.934 24.883">
  <g id="Icon_ionic-ios-stats" data-name="Icon ionic-ios-stats" transform="translate(-4.875 -3.75)">
    <path id="Path_966" data-name="Path 966" d="M12.862,27.883h2.923a.489.489,0,0,0,.487-.487V4.987a.489.489,0,0,0-.487-.487H12.862a.489.489,0,0,0-.487.487V27.4A.489.489,0,0,0,12.862,27.883Z" transform="translate(-0.904)" fill="none" stroke="#616161" stroke-width="1.5"/>
    <path id="Path_967" data-name="Path 967" d="M6.112,29.993H9.035a.489.489,0,0,0,.487-.487V20.737a.489.489,0,0,0-.487-.487H6.112a.489.489,0,0,0-.487.487v8.769A.489.489,0,0,0,6.112,29.993Z" transform="translate(0 -2.11)" fill="none" stroke="#616161" stroke-width="1.5"/>
    <path id="Path_968" data-name="Path 968" d="M19.618,29.39h2.911a.491.491,0,0,0,.493-.493V16.243a.491.491,0,0,0-.493-.493H19.618a.491.491,0,0,0-.493.493V28.9A.491.491,0,0,0,19.618,29.39Z" transform="translate(-1.809 -1.507)" fill="none" stroke="#616161" stroke-width="1.5"/>
    <path id="Path_969" data-name="Path 969" d="M25.875,9.493v18.5a.491.491,0,0,0,.493.493h2.911a.491.491,0,0,0,.493-.493V9.493A.491.491,0,0,0,29.279,9H26.368A.491.491,0,0,0,25.875,9.493Z" transform="translate(-2.713 -0.603)" fill="none" stroke="#616161" stroke-width="1.5"/>
  </g>
</svg>
