<svg xmlns="http://www.w3.org/2000/svg" width="25" height="24.98" viewBox="0 0 25 24.98">
  <path id="Path_78" data-name="Path 78" d="M2266.4,1603.35a16.255,16.255,0,0,1-4.378-9.465l-.1-.968a.37.37,0,0,0,.5.133l.242-.134a.373.373,0,0,0,.141-.139l2.709-4.693h0l.633-1.1a.372.372,0,0,0-.136-.508l-.648-.374.114-.2a.986.986,0,0,0,.1-.753l.5-.86a.368.368,0,0,0-.117-.495l.412-.713a1.018,1.018,0,1,0-1.763-1.018l-.411.712a.372.372,0,0,0-.488.147l-.5.86a.987.987,0,0,0-.6.462l-.122.211a.372.372,0,0,0-.411.175l-.633,1.1a.367.367,0,0,0,.055.442l-.159.275V1582.6a.993.993,0,0,0-.992-.992h-17.846a.993.993,0,0,0-.992.992v23.939H2260v-.034h4.867a.372.372,0,0,0,.269-.629q-.295-.309-.571-.634h.933a.372.372,0,0,0,.27-.629l-.049-.051c-.181-.19-.356-.385-.527-.583h.938a.372.372,0,0,0,.269-.629Zm-1.743,1.147H2247.9a15.79,15.79,0,0,1-4.209-9.281l-.015-.157a17.015,17.015,0,0,0,4.427,8.8.371.371,0,0,0,.269.115h15.851Q2264.433,1604.242,2264.653,1604.5Zm-.626,1.262H2247.27a15.78,15.78,0,0,1-4.173-9.353v-.012a16.546,16.546,0,0,0,4.327,8.68l.049.051a.373.373,0,0,0,.27.115H2263.6Q2263.808,1605.5,2264.027,1605.76Zm-21.784-23.161a.248.248,0,0,1,.248-.248h.26a.989.989,0,0,0-.032.248v3.743h-.475Zm18.342,0v3.743h-17.123V1582.6a.248.248,0,0,1,.248-.248h16.627A.248.248,0,0,1,2260.585,1582.6Zm4.823-.287a.274.274,0,0,1,.308.4l-.411.711-.474-.274.411-.711A.272.272,0,0,1,2265.407,1582.312Zm-1.7,5.161-2,3.463-.316.548-.26.449-.057.1-.264.457-.263.456-.057.1-.267.462-.226.392-.1.169-.274.475-.372.644-.5.869-.215.372-.215.372-.054.094a.248.248,0,0,1-.339.091h0l-.263-.151-.057-.033-.571-.33-.073-.042-.189-.109a.248.248,0,0,1-.122-.245c0-.006,0-.011,0-.017a.241.241,0,0,1,.028-.076l1.167-2.022.215-.372.214-.372.972-1.683.367-.635.005-.009.319-.552.053-.092.192-.333.078-.136.242-.419.239-.413.082-.142.234-.406.316-.548.742-1.285Zm-7.384,10.865.225-1.037.049-.228.062.036.322.186.322.186.062.036-.173.157-.786.713-.042-.024Zm8.726-10.949-.326-.188-.322-.186-.322-.186-1.583-.914-.232-.134.261-.453.232.134,1.583.914.322.186.322.186.326.188Zm-.95-3.671.057-.1,1.079.623-.057.1-.108.188-1.079-.623Zm-.856.9a.234.234,0,0,1,.034-.045.248.248,0,0,1,.3-.046l1.154.666a.248.248,0,0,1,.113.287.267.267,0,0,1-.022.052l-.115.2-1.583-.914Zm-21,21.174v-10.616l.114,1.295a16.532,16.532,0,0,0,3.946,9.322Zm21.878-2.559h-15.589a16.26,16.26,0,0,1-4.27-9.35l-.717-6.8h17.007l.063.6-.229.4-.233.4-.087.151-.07.121-.167.289-.2.355-.119.206-.253.438-.5.871v-.543h-12.625v.744h12.509l-1.212,2.1h-10.987v.744h10.558l-.953,1.65a.984.984,0,0,0-.131.448h-8.792v.744h8.777l-.357,1.647a.373.373,0,0,0,.134.371l-.092.16h-7.222v.744h7.355v-.057a.368.368,0,0,0,.1.016.372.372,0,0,0,.322-.186l.176-.305a.371.371,0,0,0,.388-.07l1.514-1.374a.991.991,0,0,0,.694-.481l.269-.466h.189v-.328l.255-.442.372-.644.016-.027.324-.561.275-.478.048-.084.272-.471.274-.474.071.674q.058.55.153,1.093a17.037,17.037,0,0,0,3.858,8.179h-1.167Zm-2.068-10.835a.37.37,0,0,0-.17.2l-.043-.409,2.511-4.349.326.188-2.472,4.282Z" transform="translate(-2241.499 -1581.558)" fill="#616161"/>
</svg>
