<?xml version="1.0" encoding="utf-8"?>
<!-- Generator: Adobe Illustrator 16.0.0, SVG Export Plug-In . SVG Version: 6.00 Build 0)  -->
<!DOCTYPE svg PUBLIC "-//W3C//DTD SVG 1.1 Tiny//EN" "http://www.w3.org/Graphics/SVG/1.1/DTD/svg11-tiny.dtd">
<svg version="1.1" baseProfile="tiny" id="Layer_1" xmlns="http://www.w3.org/2000/svg" xmlns:xlink="http://www.w3.org/1999/xlink"
	 x="0px" y="0px" width="160px" height="190px" viewBox="0 0 160 190" xml:space="preserve">
<path fill-rule="evenodd" fill="#E9A844" d="M92.828,188.106c-1.093,0.955-2.378,0.549-3.588,0.449
	c-16.912-1.392-33.822-2.824-50.736-4.202c-4.489-0.366-6.847-2.443-7.869-7.54c-1.813-9.043-3.549-18.102-5.256-27.165
	c-5.216-27.684-10.403-55.372-15.592-83.061c-0.184-0.979-0.257-1.98-0.382-2.972c0.14-3.494,0.968-3.901,4.669-2.301
	c-1.063,2.825-0.326,5.594,0.245,8.383c0.385,1.88,1.161,2.623,3.104,1.631c10.962-5.598,22.688-5.938,34.651-5.234
	c10.441,0.613,20.583,2.267,30.154,6.65c3.982,1.824,7.784,3.936,10.986,7.617c0.221-5.232-0.197-10.172,1.443-14.883
	c0.723-0.141,1.314,0.023,1.692,0.71c1.116,3.039,0.688,6.194,0.462,9.264c-0.723,9.819-1.033,19.654-1.355,29.487
	c-0.555,16.926-1.215,33.848-1.783,50.771c-0.292,8.715-0.617,17.401-0.274,26.105C93.801,183.963,93.989,186.097,92.828,188.106z"
	/>
<path fill-rule="evenodd" fill="#D88D46" d="M92.828,188.106c-0.762-1.781,0.383-3.573-0.029-5.355
	c-0.501-7.821-0.068-15.633,0.47-23.424c0.65-9.43,0.966-18.883,1.285-28.311c0.669-19.781,2.164-39.525,2.454-59.32
	c0.026-1.867,0.384-3.719,1.155-5.455c0.343-0.66,0.919-0.996,1.621-1.148c0.646-0.097,1.263-0.012,1.831,0.321
	c1.184,2.382,0.479,4.894,0.221,7.283c-0.608,5.651-0.817,11.329-1.622,17.515c5.017-6.883,10.098-12.959,16.112-18.197
	c1.6-1.394,3.257-2.717,5.053-3.838c6.614-4.124,10.969-3.308,16.401,3.318c1.594-7.14,3.435-13.931,4.222-20.957
	c1.011-1.631,2.438-1.869,4.125-1.229c-1.79,11.298-3.539,22.603-5.379,33.892c-2.437,14.956-4.919,29.905-7.433,44.849
	c-0.926,5.509-1.995,10.992-3,16.487c-0.342,0.158-0.699,0.263-1.078,0.211c-7.608-1.037-9.436-0.063-12.946,6.755
	c-3.573,6.941-4.975,14.248-3.857,22.002c0.161,1.117,0.2,2.229-0.042,3.339C106.065,180.936,99.764,185.071,92.828,188.106z"/>
<path fill-rule="evenodd" fill="#F3C444" d="M4.336,59.007c-3.203-7.662-2.22-10.467,5.149-13.788
	c10.514-4.74,21.337-8.702,32.198-12.563c4.26-2.037,8.613-1.275,12.951-0.372c0.61,0.127,0.973,0.724,0.688,1.453
	c-1.499,1.673-3.638,2.171-5.612,2.842c-8.631,2.934-17.148,6.182-25.624,9.155c23.302,1.061,46.739,1.988,70.151,3.535
	c6.067,1.995,8.905,9.127,5.83,14.631c-5.282,1.406-10.626,0.736-15.948,0.383c-1.096-0.073-2.191-0.409-3.322-0.395
	c-15.455,0.201-30.847-1.359-46.289-1.694c-8.685-0.188-17.354-1.249-26.048-1.657C6.91,60.464,5.54,59.978,4.336,59.007z"/>
<path fill-rule="evenodd" fill="#E9A844" d="M100.28,63.565c0.048-3.189,0.188-6.307-1.313-9.379
	c-1.057-2.161-2.322-3.57-4.656-4.003c3.967-2.153,8.419-2.921,12.657-4.236c9.307-2.89,18.456-6.267,27.83-8.925
	c0.483-0.096,0.977-0.161,1.52-0.31c-8.677-4.62-17.333-9.177-25.827-14.035c-4.52-2.584-8.945-5.415-14.184-6.448
	c-0.735-0.145-1.432-0.494-1.369-1.467c3.541-0.829,5.863-3.281,8.015-5.982c1.479-1.855,3.348-3.17,5.656-3.812
	c1.813-0.501,3.042,0.71,4.407,1.509c8.111,4.756,15.728,10.326,24.11,14.635c3.499,1.63,6.836,3.553,10.118,5.586
	c-2.445,6.574-1.73,13.06,0.531,19.504c-1.791,2.209-4.588,2.396-6.972,3.324c-12.312,4.785-24.717,9.327-37.14,13.818
	c-0.933,0.338-1.846,0.793-2.889,0.538C100.61,63.779,100.445,63.673,100.28,63.565z"/>
<path fill-rule="evenodd" fill="#F3C444" d="M108.608,4.969c-3.087,2.437-6.065,5.028-8.245,8.312
	c-1.467,2.208-3.535,1.16-5.342,1.548c-3.229,2.038-6.801,1.193-10.187,0.944c-9.811-0.723-19.646-1.116-29.46-1.186
	c-9.723-0.068-19.4-0.963-29.113-0.951c-6.793-0.186-13.713,1.028-20.269-1.814c4.12-6.097,9.71-10.12,17.147-10.349
	c22.086-0.678,44.141,0.5,66.184,1.756C95.77,3.596,102.246,3.662,108.608,4.969z"/>
<path fill-rule="evenodd" fill="#2C2827" d="M133.461,147.412c3.838-0.521,6.284,1.423,7.51,4.758
	c3.705,10.077,2.271,19.563-3.929,28.262c-1.746,2.45-4.229,3.866-7.468,2.951c-2.936-0.737-4.684-2.649-5.571-5.493
	c-3.03-9.716-1.484-18.756,4.03-27.183C129.28,148.802,130.811,147.121,133.461,147.412z"/>
<path fill-rule="evenodd" fill="#D88D46" d="M5.993,11.821c6.703,0.669,13.431,0.713,20.157,0.787
	c6.428,2.583,11.783,6.982,17.635,10.531c3.947,2.395,7.844,4.885,11.793,7.285c0.927,0.563,2.131,0.913,2.139,2.336
	c-0.667,0.762-1.399,1.277-2.434,0.643c-4.463-1.561-9.063-0.606-13.601-0.747c-6.476-4.464-13.648-7.72-20.362-11.768
	C16.236,17.822,10.623,15.653,5.993,11.821z"/>
<path fill-rule="evenodd" fill="#53544D" d="M133.461,147.412c-7.273,3.922-8.604,11.139-9.79,18.251
	c-0.543,3.26-0.227,6.664,0.638,9.978c0.85,3.258,2.242,6.021,5.266,7.742c-2.314-0.233-4.629-0.456-6.941-0.702
	c-4.478-0.476-5.552-4.277-7.265-7.453c-0.9-0.801-1.162-1.91-1.32-3.012c-1.256-8.788,0.601-16.832,6.197-23.785
	c2.845-3.537,6.002-3.89,10.283-1.744C131.506,146.928,132.483,147.171,133.461,147.412z"/>
<path fill-rule="evenodd" fill="#D88D46" d="M147.575,46.259c-4.101-6.6-3.798-13.36-0.737-20.222
	c0.171-2.397,1.633-3.219,3.833-3.136c2.782,0.033,4.234,1.811,5.165,4.106c2.262,5.576,1.995,11.17-0.366,16.616
	c-1.147,2.645-3.103,4.506-6.359,4.121C148.248,47.612,147.742,47.11,147.575,46.259z"/>
<path fill-rule="evenodd" fill="#F5DC66" d="M4.336,59.007c5.34,1.441,10.862,0.656,16.294,1.341
	c6.628,0.836,13.383,0.676,20.084,0.918c13.653,0.49,27.294,1.273,40.95,1.726c6.199,0.206,12.412,0.358,18.616,0.574l-0.005-0.02
	c0.665,0.715,0.636,1.457,0.092,2.221c-0.5,0.058-1,0.114-1.5,0.172c-1.036,0.679-2.055,0.672-3.056-0.073
	c-0.495-0.003-0.988-0.005-1.481-0.007c-2.488,1.762-5.338,1.263-7.979,0.906c-6.831-0.92-13.719-0.839-20.56-1.145
	c-15.959-0.714-31.901-1.732-47.859-2.449c-1.363-0.062-2.78-0.036-3.796-1.219c-2.043-0.771-4.21-1.892-4.73,1.664
	c-0.604-1.27-0.943-2.682-2.955-2.467C5.197,61.284,4.652,60.117,4.336,59.007z"/>
<path fill-rule="evenodd" fill="#BE7148" d="M130.528,146.687c-8.144-0.251-10.897,1.666-13.739,9.572
	c-2.226,6.191-2.706,12.515-1.422,18.969c-0.991,0.539-1.982,1.078-2.976,1.616c-2.903-7.659-1.137-15.057,1.376-22.363
	c0.684-1.985,1.791-3.838,2.81-5.692c3.226-5.873,7.723-7.244,13.738-4.252C130.386,145.254,130.457,145.97,130.528,146.687z"/>
<path fill-rule="evenodd" fill="#F2C244" d="M100.367,65.767c-0.03-0.74-0.061-1.48-0.091-2.221
	c15.283-5.644,30.567-11.29,45.854-16.926c0.463-0.171,0.963-0.242,1.444-0.361c0.511,0.496,1.022,0.991,1.534,1.486
	c-0.994,0.521-1.987,1.043-2.982,1.564c-1.153,0.796-2.786,0.328-3.816,1.447c-0.897,1.536-2.521,1.962-4.01,2.516
	c-10.824,4.022-21.701,7.904-32.555,11.846c-1.281,0.466-2.583,0.94-3.992,0.568C101.291,65.714,100.829,65.739,100.367,65.767z"/>
<path fill-rule="evenodd" fill="#F3C444" d="M150.671,22.901c-1.637,0.606-2.816,1.771-3.833,3.136
	c-4.514,0.875-6.555-3.126-9.712-4.925C141.652,21.614,146.281,21.354,150.671,22.901z"/>
<path fill-rule="evenodd" fill="#D88D46" d="M14.137,61.952c17.786,0.8,35.574,1.569,53.357,2.414
	c8.948,0.425,17.891,0.99,26.835,1.491c1.33,2.166,0.288,4.316,0.104,6.522c-0.273,3.302-0.071,6.643-0.071,10.84
	c-8.221-9.887-18.979-12.818-30.027-14.738c-14.059-2.44-28.142-2.965-41.977,1.658c-2.04,0.683-3.892,1.64-5.64,2.876
	c-1.295,0.915-2.479,1.258-2.904-0.936c-0.543-2.798-1.234-5.566-1.801-8.359C11.647,61.915,13.073,62.117,14.137,61.952z"/>
<path fill-rule="evenodd" fill="#F2C344" d="M95.812,65.865c1.018,0.023,2.036,0.047,3.056,0.071
	c-0.943,11.149-1.15,22.332-1.674,33.5c-0.733,15.631-1.562,31.258-2.215,46.895c-0.508,12.149-1.438,24.281-2.179,36.42
	c-1.221-1.112-0.661-2.575-0.716-3.888c-0.552-13.339,0.599-26.648,0.899-39.97c0.317-14.04,0.868-28.09,1.438-42.128
	C94.84,86.467,95.732,76.185,95.812,65.865z"/>
<path fill-rule="evenodd" fill="#FDFEFE" d="M41.879,119.639c2.847,0.204,5.707,0.686,8.536,0.546
	c3.787-0.188,4.354,1.573,4.241,4.878c-0.236,6.936-0.071,6.255-6.926,6.378c-7.059,0.128-8.529-4.529-10.432-9.379
	c-0.772-1.561-0.351-2.601,1.342-3.094C39.813,118.737,40.907,118.895,41.879,119.639z"/>
<path fill-rule="evenodd" fill="#FDFDFC" d="M52.36,90.432c2.448,0.196,4.895,0.542,7.343,0.55c3.433,0.013,5.941,1.184,7.113,4.604
	c0.714,2.084,2.081,1.579,3.48,0.782c0.342-0.192,0.586-0.119,0.721,0.261c-0.119,0.214-0.213,0.447-0.361,0.638
	c-1.885,2.41-1.66,6.757-4.581,7.626c-2.687,0.801-6.021-0.576-9.275-1.022c3.036-3.149,0.413-4.88-1.485-6.793
	c-0.849-0.646-1.107-1.682-1.678-2.512c-0.669-1.157-1.979-1.804-2.572-2.948C50.31,90.162,51.184,90.023,52.36,90.432z"/>
<path fill-rule="evenodd" fill="#FDFDFC" d="M76.194,120.542c-0.949,4.041-2.975,7.557-5.381,10.871
	c-1.234,1.702-3.051,1.352-4.8,1.21c-1.69-0.137-3.604-0.573-3.182,2.721c-6.117-8.218-6.117-8.218-0.201-16.103
	c-0.224,3.479,2.062,2.762,3.85,2.902c2.253,0.678,4.338,0.221,6.315-0.947C73.916,120.923,74.966,120.262,76.194,120.542z"/>
<path fill-rule="evenodd" fill="#FDFEFE" d="M54.568,94.279c0.464,0.875,0.866,1.767,0.746,2.797
	c-2.604,2.063-3.93,5.108-5.838,7.701c-1.011,1.372-1.691,1.665-3.296,0.8c-7.653-4.127-7.56-3.994-3.162-11.323
	c1.74-2.902,3.729-4.165,6.997-3.151C51.668,91.969,53.072,93.188,54.568,94.279z"/>
<path fill-rule="evenodd" fill="#FEFEFB" d="M76.194,120.542c-0.898,0.524-1.649,1.624-2.905,0.742
	c-0.761,1.177-1.745,1.449-2.975,0.736c-1.989-3.295-3.929-6.62-5.992-9.868c-0.944-1.486-0.774-2.186,0.844-3.143
	c7.015-4.147,6.792-4.118,10.756,2.984C77.613,115.024,78.101,117.624,76.194,120.542z"/>
<path fill-rule="evenodd" fill="#FDFBF9" d="M38.881,119.743c-1.545,0.078-1.58,1.187-1.582,2.318
	c-1.689-4.272-5.41-8.246-2.14-13.273c1.026-1.577-1.313-1.561-0.99-2.949c2.452,0.127,4.976,0.215,7.491,0.404
	c1.216,0.092,5.463,6.316,5.185,7.489c-0.05,0.207-0.266,0.566-0.338,0.55c-4.175-0.901-3.152,3.176-4.645,4.83
	C40.979,119.846,39.665,118.544,38.881,119.743z"/>
<path fill-rule="evenodd" fill="#F0CF88" d="M54.568,94.279c-1.987-0.385-3.363-1.647-4.553-3.177
	c-0.217-0.398-0.614-0.945,0.002-1.164c0.801-0.283,1.665-0.164,2.343,0.493c-0.197,0.312-1.638,0.002-0.546,0.927
	C52.853,92.235,53.947,93.022,54.568,94.279z"/>
<path fill-rule="evenodd" fill="#F1C77E" d="M70.314,122.021c0.992-0.245,1.983-0.491,2.975-0.736
	c-1.935,2.938-4.462,1.19-6.809,0.859C67.759,122.103,69.037,122.062,70.314,122.021z"/>
<path fill-rule="evenodd" fill="#E6AA45" d="M71.018,96.628c-0.24-0.086-0.48-0.174-0.721-0.261
	c-0.427-1.235-0.915-2.482,0.96-3.743C71.193,94.21,71.701,95.403,71.018,96.628z"/>
<path fill-rule="evenodd" fill="#F1C370" d="M38.881,119.743c0.441-2.818,2.007-0.332,2.981-0.631
	c0.004,0.176,0.01,0.352,0.017,0.526C40.88,119.674,39.88,119.708,38.881,119.743z"/>
<path fill-rule="evenodd" fill="#BC6F47" d="M101.754,65.687c13.519-4.977,27.037-9.952,40.557-14.93
	c1.688,1.498,0.266,3.067-0.019,4.512c-1.21,6.157-2.593,12.281-4.029,18.96c-2.302-1.985-2.482-4.683-4.55-6.028
	c-3.762-2.45-8.264-2.051-12.807,1.39c-6.582,4.984-12.207,10.892-17.094,17.542c-1.205,1.641-2.299,3.488-4.508,4.686
	C100.009,82.888,100.314,74.237,101.754,65.687z"/>
<path fill-rule="evenodd" fill="#804F3E" d="M55.283,33.403c0.732-0.242,1.466-0.484,2.199-0.728
	c3.521-1.959,7.301-1.047,10.965-0.838c10.696,0.61,21.377,1.464,32.077,2.071c10.321,0.585,20.663,0.957,30.952,2.028
	c1.424,0.147,3.4-0.238,3.916,1.963c-11.271,3.609-22.558,7.173-33.802,10.864c-2.395,0.785-4.765,1.4-7.28,1.419
	c-24.49-1.189-48.981-2.38-73.473-3.569c-0.096-0.256-0.193-0.512-0.291-0.768C32.126,41.698,43.704,37.551,55.283,33.403z"/>
<path fill-rule="evenodd" fill="#BE7047" d="M135.393,37.9c-2.815-0.979-5.752-1.206-8.691-1.354
	c-10.925-0.546-21.871-0.808-32.772-1.653c-12.14-0.942-24.269-1.935-36.446-2.217C46.918,26.173,36.24,19.849,26.149,12.607
	c19.478,0.614,38.973,0.674,58.425,2.042c3.47,0.243,6.965,0.128,10.448,0.179c10.124,2.293,18.194,8.793,27.224,13.326
	c5.32,2.67,10.484,5.649,16.114,8.704C137.124,37.293,136.259,37.597,135.393,37.9z"/>
<path fill-rule="evenodd" fill="#9DA093" d="M138.728,163.691c0.007,3.563-0.55,6.978-3.032,9.735
	c-2.2,2.443-4.41,2.121-5.904-0.746c-1.98-3.801-0.924-11.723,1.984-14.88c2.087-2.266,4.556-1.933,6.037,0.802
	C138.68,160.202,138.68,161.948,138.728,163.691z"/>
<path fill-rule="evenodd" fill="#E9A644" d="M154.395,35.552c-0.702,1.948-0.52,5.014-2.98,5.024
	c-2.728,0.013-2.969-3.09-2.973-5.179c-0.003-2.093,0.275-5.262,2.956-5.18C153.998,30.296,153.791,33.478,154.395,35.552z"/>
</svg>
