<svg xmlns="http://www.w3.org/2000/svg" width="355.051" height="310.472" viewBox="0 0 355.051 310.472">
  <g id="Group_2216" data-name="Group 2216" transform="translate(-39.529 -38.601)" opacity="0.25">
    <path id="Path_725" data-name="Path 725" d="M333.168,176.8a123.636,123.636,0,1,1-227.19,34.745.022.022,0,0,0,.007-.011v-.014c.032-.121.162-.6.316-1.349.677-3.258,1.009-9.767-3.293-14-5.437-5.365-8.287-4.713-9.233-8.275-1.621-6.1,8.683-8.507,11.111-.194,2.38,8.142,7.784,2.909,8.007,2.69l0-.008A123.642,123.642,0,0,1,333.168,176.8Z" transform="translate(-11.512 -13.835)" fill="#dbccb6"/>
    <path id="Path_726" data-name="Path 726" d="M145.862,162.994c0-.006.007-.012.02-.019l-.007.013A.022.022,0,0,1,145.862,162.994Z" transform="translate(-20.902 -22.346)" fill="#dbccb6"/>
    <path id="Path_727" data-name="Path 727" d="M146.839,161.751c-.512.568-.865.916-.953,1C146.2,162.42,146.517,162.086,146.839,161.751Z" transform="translate(-20.906 -22.126)" fill="#dbccb6"/>
    <path id="Path_728" data-name="Path 728" d="M378.375,66.505H321.218s2.509-16.123,9.58-15.494c1.955.173,3.287,2.157,4.16,4.285a1.483,1.483,0,0,0,2.8-.143c1.87-6.553,5.695-16.553,11.623-16.553,6.13,0,6.333,11.442,5.889,18.409a1.032,1.032,0,0,0,1.883.647c1.618-2.38,3.979-4.667,6.85-4,2.451.566,3.538,3.107,3.985,5.783a.8.8,0,0,0,1.536.146c1.494-3.969,4.142-9.741,6.955-9.861C380.78,49.538,378.375,66.505,378.375,66.505Z" transform="translate(-42.408)" fill="#dbccb6"/>
    <path id="Path_729" data-name="Path 729" d="M87.418,171.1H30.262s2.509-16.123,9.58-15.494c1.955.173,3.287,2.158,4.16,4.285a1.483,1.483,0,0,0,2.8-.143C48.676,153.2,52.5,143.2,58.43,143.2c6.13,0,6.333,11.442,5.889,18.409a1.032,1.032,0,0,0,1.883.647c1.618-2.38,3.979-4.667,6.849-4,2.452.566,3.539,3.108,3.987,5.784a.8.8,0,0,0,1.535.145c1.493-3.969,4.142-9.741,6.954-9.861C89.824,154.136,87.418,171.1,87.418,171.1Z" transform="translate(9.868 -18.793)" fill="#dbccb6"/>
    <path id="Path_730" data-name="Path 730" d="M94.231,65.286s2.23-14.32,8.508-13.761c1.737.154,2.92,1.915,3.694,3.806a1.318,1.318,0,0,0,2.491-.128c1.661-5.819,5.059-14.7,10.324-14.7,5.446,0,5.626,10.162,5.23,16.351a.917.917,0,0,0,1.674.573c1.436-2.115,3.532-4.143,6.082-3.555,4.965,1.146,3.628,11.414,3.628,11.414Z" transform="translate(-1.625 -0.342)" fill="#dbccb6"/>
    <path id="Path_731" data-name="Path 731" d="M29.529,276.015s2.23-14.32,8.508-13.762c1.737.154,2.92,1.915,3.694,3.807a1.318,1.318,0,0,0,2.491-.128c1.661-5.819,5.059-14.7,10.324-14.7,5.446,0,5.627,10.161,5.231,16.35a.917.917,0,0,0,1.673.573c1.436-2.114,3.532-4.143,6.082-3.555,4.965,1.146,3.628,11.415,3.628,11.415Z" transform="translate(10 -38.203)" fill="#dbccb6"/>
    <path id="Path_732" data-name="Path 732" d="M411.394,163.764S413.623,149.443,419.9,150c1.737.154,2.919,1.915,3.694,3.806a1.317,1.317,0,0,0,2.49-.128c1.661-5.818,5.06-14.7,10.325-14.7,5.445,0,5.625,10.161,5.23,16.35a.917.917,0,0,0,1.674.573c1.436-2.114,3.532-4.143,6.081-3.555,4.965,1.146,3.628,11.415,3.628,11.415Z" transform="translate(-58.61 -18.035)" fill="#dbccb6"/>
    <path id="Path_733" data-name="Path 733" d="M246.553,95.621s-19.146.25-18.163,8.206,12.045-3.377,22.469-.616S262.852,94.925,246.553,95.621Z" transform="translate(-35.723 -10.239)" fill="#dbccb6"/>
    <path id="Path_734" data-name="Path 734" d="M330.729,111.917a4.44,4.44,0,0,0-3.682-2.21c-3.014-.156-8.728.5-8.767,7.692C318.232,126.221,334.271,118.32,330.729,111.917Z" transform="translate(-51.88 -12.772)" fill="#dbccb6"/>
    <path id="Path_735" data-name="Path 735" d="M278.475,103.117a2.123,2.123,0,0,0-1.266-1.616c-1.318-.583-3.979-1.267-5.226,1.936C270.456,107.365,278.962,106.579,278.475,103.117Z" transform="translate(-43.529 -11.213)" fill="#dbccb6"/>
    <path id="Path_736" data-name="Path 736" d="M425.841,260.708s1.614,19.078-6.4,18.873,2.189-12.316-1.573-22.421S424.95,244.417,425.841,260.708Z" transform="translate(-59.487 -37.808)" fill="#dbccb6"/>
    <path id="Path_737" data-name="Path 737" d="M417.25,233.422a2.124,2.124,0,0,1,1.731,1.1c.71,1.254,1.65,3.837-1.418,5.388C413.8,241.816,413.757,233.274,417.25,233.422Z" transform="translate(-59.201 -35.003)" fill="#dbccb6"/>
    <path id="Path_738" data-name="Path 738" d="M355.968,400.32s16.971-8.869,12.5-15.522-9.221,8.452-19.768,10.695S341.74,408.3,355.968,400.32Z" transform="translate(-56.25 -61.899)" fill="#dbccb6"/>
  </g>
</svg>
