<svg xmlns="http://www.w3.org/2000/svg" width="156.037" height="241.583" viewBox="0 0 156.037 241.583">
  <g id="Group_2286" data-name="Group 2286" transform="translate(-96.289 -89.235)">
    <g id="Group_2238" data-name="Group 2238" transform="translate(96.289 89.235)">
      <g id="Group_2237" data-name="Group 2237">
        <g id="Group_2234" data-name="Group 2234" transform="translate(32.453)">
          <path id="Path_883" data-name="Path 883" d="M153.716,98.349,125.8,145.006l19.838,10.9,33.2-59.168Z" transform="translate(-125.805 -88.489)" fill="#5bac46"/>
          <path id="Path_884" data-name="Path 884" d="M151.19,99.1s13.734,1.527,23.324,18.1,13.734,24.2,13.734,24.2l-12.649,9.6,32.492,4.352,9.371-27.252-11.335,2.838S189.781,102.8,186.283,98c-3.483-4.8-12.424-10.025-21.359-8.5S152.712,96.257,151.19,99.1Z" transform="translate(-123.279 -89.235)" fill="#5bac46"/>
        </g>
        <g id="Group_2235" data-name="Group 2235" transform="translate(75.674 60.591)">
          <path id="Path_885" data-name="Path 885" d="M239.931,192.674l-24.9-48.332-19.735,11.1,32.736,59.422Z" transform="translate(-162.112 -144.343)" fill="#5bac46"/>
          <path id="Path_886" data-name="Path 886" d="M242.934,188.9s-8.554,10.861-27.694,10.267-27.8-1.1-27.8-1.1l-1.479-15.806-20.85,25.285L183.323,229.9l3.57-11.129s32.518.947,38.433.521,15.074-5.248,18.5-13.649S244.539,191.7,242.934,188.9Z" transform="translate(-165.115 -140.57)" fill="#5bac46"/>
        </g>
        <g id="Group_2236" data-name="Group 2236" transform="translate(0 62.905)">
          <path id="Path_887" data-name="Path 887" d="M115.44,218.473l54.344,1.673-.128-22.644-67.848-.194Z" transform="translate(-95.739 -141.388)" fill="#5bac46"/>
          <path id="Path_888" data-name="Path 888" d="M115.989,223.534s-5.339-12.74,4.455-29.191c9.813-16.437,14.462-23.759,14.462-23.759l14.534,6.364-12-30.5-28.379,5.08,7.994,8.522S100.447,188.016,97.964,193.4s-2.722,15.735,2.963,22.8S112.77,223.593,115.989,223.534Z" transform="translate(-96.289 -146.448)" fill="#5bac46"/>
        </g>
      </g>
    </g>
    <ellipse id="Ellipse_77" data-name="Ellipse 77" cx="55.725" cy="15.064" rx="55.725" ry="15.064" transform="translate(118.437 300.69)" fill="#71d26f"/>
    <g id="Group_2285" data-name="Group 2285" transform="translate(120.881 109.489)">
      <g id="Group_2249" data-name="Group 2249" transform="translate(71.21 112.271)">
        <g id="Group_2244" data-name="Group 2244">
          <g id="Group_2241" data-name="Group 2241" transform="translate(0.61)">
            <g id="Group_2240" data-name="Group 2240">
              <g id="Group_2239" data-name="Group 2239">
                <path id="Path_889" data-name="Path 889" d="M185.214,234.415a16.056,16.056,0,0,1-.137-2v-5.433a16.112,16.112,0,0,1,32.224,0v5.433a16.274,16.274,0,0,1-.137,2h1.11a17.216,17.216,0,0,0,.126-2v-5.433a17.212,17.212,0,0,0-34.423,0v5.433a17.223,17.223,0,0,0,.126,2Z" transform="translate(-183.977 -209.768)" fill="#abddd2"/>
              </g>
            </g>
          </g>
          <g id="Group_2243" data-name="Group 2243" transform="translate(0 23.09)">
            <g id="Group_2242" data-name="Group 2242" transform="translate(1.308 1.466)">
              <path id="Path_890" data-name="Path 890" d="M213.59,270.123H188.958q-2.172-19.011-4.346-38.021h33.325Q215.765,251.111,213.59,270.123Z" transform="translate(-184.612 -232.102)" fill="#5bac46"/>
            </g>
            <path id="Path_891" data-name="Path 891" d="M219.064,232.463c0,.936-.554,1.7-1.237,1.7H184.659c-.683,0-1.237-.76-1.237-1.7h0c0-.936.554-1.694,1.237-1.694h33.168c.683,0,1.237.759,1.237,1.694Z" transform="translate(-183.422 -230.769)" fill="#265f20"/>
          </g>
        </g>
        <g id="Group_2248" data-name="Group 2248" transform="translate(11.06 35.042)">
          <g id="Group_2245" data-name="Group 2245" transform="translate(2.875)">
            <path id="Path_892" data-name="Path 892" d="M198.568,242.447l-2.472,4.133,1.757.965,2.94-5.241Z" transform="translate(-196.096 -241.573)" fill="#fff"/>
            <path id="Path_893" data-name="Path 893" d="M198.344,242.513a3.02,3.02,0,0,1,2.066,1.6c.85,1.468,1.217,2.143,1.217,2.143l-1.121.85,2.878.386.83-2.413-1,.251s-1.448-2.491-1.758-2.916a2.092,2.092,0,0,0-1.891-.753A1.564,1.564,0,0,0,198.344,242.513Z" transform="translate(-195.872 -241.639)" fill="#fff"/>
          </g>
          <g id="Group_2246" data-name="Group 2246" transform="translate(6.703 5.367)">
            <path id="Path_894" data-name="Path 894" d="M206.2,250.8,204,246.52l-1.748.983,2.9,5.263Z" transform="translate(-199.312 -246.52)" fill="#fff"/>
            <path id="Path_895" data-name="Path 895" d="M206.471,250.467a3.024,3.024,0,0,1-2.453.909c-1.694-.053-2.462-.1-2.462-.1l-.132-1.4-1.846,2.24,1.612,1.98.317-.986s2.881.085,3.4.046a2.092,2.092,0,0,0,1.639-1.208A1.574,1.574,0,0,0,206.471,250.467Z" transform="translate(-199.578 -246.186)" fill="#fff"/>
          </g>
          <g id="Group_2247" data-name="Group 2247" transform="translate(0 5.572)">
            <path id="Path_896" data-name="Path 896" d="M195.178,253.087l4.813.148-.011-2.006-6.01-.017Z" transform="translate(-193.433 -246.259)" fill="#fff"/>
            <path id="Path_897" data-name="Path 897" d="M195.226,253.535a3.028,3.028,0,0,1,.395-2.586c.87-1.456,1.281-2.1,1.281-2.1l1.288.564-1.063-2.7-2.513.45.708.755s-1.471,2.477-1.691,2.953a2.1,2.1,0,0,0,.263,2.02A1.562,1.562,0,0,0,195.226,253.535Z" transform="translate(-193.481 -246.707)" fill="#fff"/>
          </g>
        </g>
      </g>
      <g id="Group_2259" data-name="Group 2259" transform="translate(0 112.271)">
        <g id="Group_2254" data-name="Group 2254">
          <g id="Group_2250" data-name="Group 2250" transform="translate(0.609)">
            <path id="Path_898" data-name="Path 898" d="M120.447,234.415a16.271,16.271,0,0,1-.137-2v-5.433a16.113,16.113,0,0,1,32.225,0v5.433a16.058,16.058,0,0,1-.139,2h1.11a17.219,17.219,0,0,0,.128-2v-5.433a17.212,17.212,0,0,0-34.424,0v5.433a17.219,17.219,0,0,0,.126,2Z" transform="translate(-119.21 -209.768)" fill="#abddd2"/>
          </g>
          <g id="Group_2253" data-name="Group 2253" transform="translate(0 23.09)">
            <g id="Group_2252" data-name="Group 2252" transform="translate(1.308 1.466)">
              <g id="Group_2251" data-name="Group 2251">
                <path id="Path_899" data-name="Path 899" d="M148.823,270.123H124.192q-2.174-19.011-4.346-38.021H153.17Q151,251.111,148.823,270.123Z" transform="translate(-119.846 -232.102)" fill="#5bac46"/>
              </g>
            </g>
            <path id="Path_900" data-name="Path 900" d="M154.3,232.463c0,.936-.554,1.7-1.237,1.7H119.893c-.683,0-1.237-.76-1.237-1.7h0c0-.936.554-1.694,1.237-1.694H153.06c.683,0,1.237.759,1.237,1.694Z" transform="translate(-118.656 -230.769)" fill="#265f20"/>
          </g>
        </g>
        <g id="Group_2258" data-name="Group 2258" transform="translate(11.059 35.042)">
          <g id="Group_2255" data-name="Group 2255" transform="translate(2.875)">
            <path id="Path_901" data-name="Path 901" d="M133.8,242.447l-2.472,4.133,1.757.965,2.94-5.241Z" transform="translate(-131.329 -241.573)" fill="#fff"/>
            <path id="Path_902" data-name="Path 902" d="M133.578,242.513a3.022,3.022,0,0,1,2.066,1.6c.849,1.468,1.216,2.143,1.216,2.143l-1.12.85,2.878.386.83-2.413-1,.251s-1.448-2.491-1.757-2.916a2.094,2.094,0,0,0-1.892-.753A1.559,1.559,0,0,0,133.578,242.513Z" transform="translate(-131.105 -241.639)" fill="#fff"/>
          </g>
          <g id="Group_2256" data-name="Group 2256" transform="translate(6.703 5.367)">
            <path id="Path_903" data-name="Path 903" d="M141.438,250.8l-2.205-4.281-1.748.983,2.9,5.263Z" transform="translate(-134.545 -246.52)" fill="#fff"/>
            <path id="Path_904" data-name="Path 904" d="M141.7,250.467a3.024,3.024,0,0,1-2.453.909c-1.694-.053-2.462-.1-2.462-.1l-.131-1.4-1.847,2.24,1.613,1.98.316-.986s2.881.085,3.405.046a2.09,2.09,0,0,0,1.638-1.208A1.571,1.571,0,0,0,141.7,250.467Z" transform="translate(-134.811 -246.186)" fill="#fff"/>
          </g>
          <g id="Group_2257" data-name="Group 2257" transform="translate(0 5.572)">
            <path id="Path_905" data-name="Path 905" d="M130.411,253.087l4.813.148-.011-2.006-6.01-.017Z" transform="translate(-128.666 -246.259)" fill="#fff"/>
            <path id="Path_906" data-name="Path 906" d="M130.46,253.535a3.028,3.028,0,0,1,.395-2.586c.869-1.456,1.281-2.1,1.281-2.1l1.287.564-1.063-2.7-2.513.45.708.755s-1.471,2.477-1.691,2.953a2.091,2.091,0,0,0,.262,2.02A1.563,1.563,0,0,0,130.46,253.535Z" transform="translate(-128.714 -246.707)" fill="#fff"/>
          </g>
        </g>
      </g>
      <g id="Group_2284" data-name="Group 2284" transform="translate(14.937 8.592)">
        <g id="Group_2264" data-name="Group 2264" transform="translate(0 30.215)">
          <g id="Group_2263" data-name="Group 2263">
            <g id="Group_2262" data-name="Group 2262">
              <g id="Group_2261" data-name="Group 2261">
                <g id="Group_2260" data-name="Group 2260" transform="translate(2.883)">
                  <path id="Path_907" data-name="Path 907" d="M154.627,142.951s-7.7,1.193-8.335,6.684-.825,21.8-.825,25.288a14.906,14.906,0,0,1-2.351,8.843c-1.9,3.168-4.43,24.323-7.811,28.727-2.2,2.861,4.508-.034,4.508-.034s3.992-9.259,7.669-15.821a34.09,34.09,0,0,0,4.61-14.35c.421-2.429,2.217-19.009,2.534-22.706S154.627,142.951,154.627,142.951Z" transform="translate(-134.864 -142.951)" fill="#edb588"/>
                </g>
                <path id="Path_908" data-name="Path 908" d="M137.681,203.47a11.945,11.945,0,0,1-2.73,3.522c-1.361.908-2.931,3.551-2.684,5.243s1.528,2.023,2.272,1.487a1.187,1.187,0,0,0,1.816-.165c.619.7,1.2.5,1.527.084.537.495,1.5-.085,2.076-1.406-.5,0-.328-.4-.093-.948a5.586,5.586,0,0,0,.537-3.193,3.733,3.733,0,0,1,.383-2.947C141.269,204.292,137.681,203.47,137.681,203.47Z" transform="translate(-132.241 -136.93)" fill="#edb588"/>
              </g>
            </g>
          </g>
        </g>
        <g id="Group_2269" data-name="Group 2269" transform="translate(54.191 30.215)">
          <g id="Group_2268" data-name="Group 2268">
            <g id="Group_2267" data-name="Group 2267">
              <g id="Group_2266" data-name="Group 2266">
                <g id="Group_2265" data-name="Group 2265">
                  <path id="Path_909" data-name="Path 909" d="M181.669,142.951s7.7,1.193,8.334,6.684.826,21.8.826,25.288a14.913,14.913,0,0,0,2.35,8.843c1.9,3.168,4.43,24.323,7.812,28.727,2.2,2.861-4.509-.034-4.509-.034s-3.991-9.259-7.669-15.821a34.108,34.108,0,0,1-4.61-14.35c-.42-2.429-2.215-19.009-2.533-22.706S181.669,142.951,181.669,142.951Z" transform="translate(-181.528 -142.951)" fill="#edb588"/>
                </g>
                <path id="Path_910" data-name="Path 910" d="M197.591,203.47a11.925,11.925,0,0,0,2.73,3.522c1.361.908,2.931,3.551,2.684,5.243s-1.529,2.023-2.272,1.487a1.189,1.189,0,0,1-1.817-.165c-.618.7-1.2.5-1.526.084-.538.495-1.677-.029-2.255-1.349.433-.125.507-.455.273-1a5.585,5.585,0,0,1-.537-3.193,3.738,3.738,0,0,0-.383-2.947C194,204.292,197.591,203.47,197.591,203.47Z" transform="translate(-180.244 -136.93)" fill="#edb588"/>
              </g>
            </g>
          </g>
        </g>
        <g id="Group_2274" data-name="Group 2274" transform="translate(21.236)">
          <path id="Path_911" data-name="Path 911" d="M155.819,146.409a234.619,234.619,0,0,1,24.718,0c5.45-3.248.422-17.846-.993-19.659s-17.268-5.117-20.021-1.649S154.079,145.89,155.819,146.409Z" transform="translate(-151.187 -114.664)" fill="#18295b"/>
          <g id="Group_2271" data-name="Group 2271" transform="translate(26.529 6.341)">
            <g id="Group_2270" data-name="Group 2270">
              <path id="Path_912" data-name="Path 912" d="M176.7,121.614s2.324-1.108,2.694.477-2.534,7.18-3.7,3.854A11.818,11.818,0,0,1,176.7,121.614Z" transform="translate(-175.685 -121.237)" fill="#d57f64"/>
            </g>
          </g>
          <path id="Path_913" data-name="Path 913" d="M172.851,132.213s-.32,7.592.947,9.414,6.13,2.1,8.315,2.493c-.984,8.317-10.575,17.61-18.1,15.629s-10.453-15.761-10.453-15.761,5.772.307,8.622-2.384,2.011-8.916,1.7-10.025S172.851,132.213,172.851,132.213Z" transform="translate(-151.357 -113.905)" fill="#edb588"/>
          <path id="Path_914" data-name="Path 914" d="M155.456,119.376s.361,19.913,12.954,22.53c3.532.748,13.5-6.077,12.954-22.53C179.462,110.588,155.456,119.376,155.456,119.376Z" transform="translate(-151.168 -115.471)" fill="#edb588"/>
          <g id="Group_2273" data-name="Group 2273" transform="translate(0 1.959)">
            <g id="Group_2272" data-name="Group 2272">
              <path id="Path_915" data-name="Path 915" d="M173.3,117.741a25.892,25.892,0,0,0,2.062,8.246c1.886,4.343,3.1,10.229,3.747,19.52,8.675-.109,2.6-4.2,3.3-8.8,1.149.471.047,3.828-.667,4.874,1.65-.275,4.513-6.21,1.542-12.05a49.78,49.78,0,0,1-4.1-12.281Z" transform="translate(-149.393 -117.252)" fill="#233884"/>
              <path id="Path_916" data-name="Path 916" d="M163.139,117.97a24.3,24.3,0,0,1-1.969,8.246c-1.888,4.343-4.982,12.383-3.385,18.844-8.676-.11-3.356-3.755-4.065-8.351-1.147.471-.045,3.828.671,4.874-1.651-.275-4.515-6.21-1.543-12.05a40.679,40.679,0,0,0,3.694-12.281Z" transform="translate(-151.556 -117.252)" fill="#233884"/>
            </g>
          </g>
        </g>
        <g id="Group_2283" data-name="Group 2283" transform="translate(5.449 29.698)">
          <path id="Path_917" data-name="Path 917" d="M192.953,231.875s4.743,4.355,4.983,5.1-2.372,2.379-7.182.839-11.129-2.17-28.654,0C160.381,229.882,187.112,224.316,192.953,231.875Z" transform="translate(-134.727 -133.943)" fill="#233884"/>
          <g id="Group_2282" data-name="Group 2282">
            <g id="Group_2279" data-name="Group 2279" transform="translate(14.265 69.813)">
              <path id="Path_918" data-name="Path 918" d="M166.6,214.448s-4.273,19.843-3.676,21.292c1.449,3.521,8.254,31.552,8.413,36.146s-1.847,13.179-5.966,14.92-4.278-4.276-4.278-4.276,3.17-6.811,3.8-11.722c.475-1.426-9.928-19.546-12.6-26.831s-2.33-21.925-1.611-32.574C154.17,209.185,166.6,214.448,166.6,214.448Z" transform="translate(-150.171 -205.49)" fill="#e8a679"/>
              <path id="Path_919" data-name="Path 919" d="M164.243,265.44s-.633,2.375,1.347,3.008,5.317-.871,6.421-3.642c1.025,3.8.39,10.217-1.669,14.492s-3.724,11.485-7.843,11.643-7.524-4.118-4.673-10.929S164.243,265.44,164.243,265.44Z" transform="translate(-149.514 -200.123)" fill="#243a89"/>
              <g id="Group_2277" data-name="Group 2277" transform="translate(7.442 64.684)">
                <g id="Group_2276" data-name="Group 2276">
                  <g id="Group_2275" data-name="Group 2275">
                    <path id="Path_920" data-name="Path 920" d="M171.994,264.807c-.043.108-.111.2-.161.3a25.052,25.052,0,0,1-1.99,12.783c-2.059,4.277-3.723,11.484-7.842,11.643a5.28,5.28,0,0,1-5.063-3.106,5.4,5.4,0,0,0,5.544,4.511c4.119-.157,5.783-7.366,7.843-11.643S173.019,268.608,171.994,264.807Z" transform="translate(-156.939 -264.807)" fill="#fff"/>
                  </g>
                </g>
              </g>
              <path id="Path_921" data-name="Path 921" d="M168.92,213.084s.687,18.426,0,33.16-.211,26.611-2.9,36.59-3.485,12.355-3.405,15.92-1.2,8.237-.007,9.346,9.114-.4,9.668-1.426c-1.268-3.8-5.307-10.851-3.881-15.364s10.931-28.276,12.516-37.78-.951-13.939-.793-16.157,4.97-21.535,5.6-28.979S168.92,213.084,168.92,213.084Z" transform="translate(-148.984 -205.976)" fill="#edb588"/>
              <path id="Path_922" data-name="Path 922" d="M164.406,286.769s3.7-3.8,4.858,0,4.542,11.088,4.436,15.313-3.38,8.554-7.92,7.709-5.491-5.174-4.858-9.715,1.162-9.505.949-11.037a5.219,5.219,0,0,1,1.673-4.267C162.928,287.837,164.406,286.769,164.406,286.769Z" transform="translate(-149.118 -198.136)" fill="#293ea5"/>
              <g id="Group_2278" data-name="Group 2278" transform="translate(11.632 102.682)">
                <path id="Path_923" data-name="Path 923" d="M165.78,306.23c-3.36-.625-4.751-3.16-4.993-6.275-.27,4.027.9,7.622,4.993,8.383,4.54.846,7.813-3.484,7.92-7.709a9.957,9.957,0,0,0-.065-1.263C173.148,303.3,170.018,307.02,165.78,306.23Z" transform="translate(-160.75 -299.366)" fill="#fff"/>
              </g>
            </g>
            <g id="Group_2281" data-name="Group 2281">
              <path id="Path_924" data-name="Path 924" d="M156.077,142.68a7.53,7.53,0,0,0-5.455.793c1.645,4.383,2.981,9.307,2.04,13.649s-2.965,7.84.538,12.91,3.715,12.724,2.474,21.173c5.768,5.769,25.478,2.64,31.284,0-2.534-6.336-3.747-19.061-1.108-24.658s-1.136-9.029-1.057-13.622a62.4,62.4,0,0,1,.98-9.927,24.413,24.413,0,0,0-4.334-.517A12.354,12.354,0,0,1,169.59,153.4C160.942,154.08,156.077,142.68,156.077,142.68Z" transform="translate(-135.861 -142.481)" fill="#e8a679"/>
              <path id="Path_925" data-name="Path 925" d="M185.314,180.33c-.533-5.324-.971-10.589.534-13.783,2.639-5.6-1.136-9.029-1.057-13.622a62.4,62.4,0,0,1,.98-9.927,24.413,24.413,0,0,0-4.334-.517A12.354,12.354,0,0,1,169.59,153.4c-8.649.679-13.514-10.72-13.514-10.72a7.53,7.53,0,0,0-5.455.793c1.645,4.383,2.981,9.307,2.04,13.649s-2.965,7.84.538,12.91c1.968,2.847,2.166,5.634,2.383,9.794C164.287,184.316,177.026,184.674,185.314,180.33Z" transform="translate(-135.861 -142.481)" fill="#1d5b79"/>
              <g id="Group_2280" data-name="Group 2280" transform="translate(0 41.772)">
                <path id="Path_926" data-name="Path 926" d="M186.457,180.473a32.612,32.612,0,0,1,4.99,8.021c3.507,8.589,9.2,51.97,8.96,53.238-11.912-12.094-23.7-2.793-30.942-.082-7.582,2.837-27.409,4.221-32.267-2.749.843-13.727,16.812-52.091,20.4-58.136C162.414,183.722,179.537,186.6,186.457,180.473Z" transform="translate(-137.197 -180.473)" fill="#0d415d"/>
                <path id="Path_927" data-name="Path 927" d="M162.808,228.425l0-.085Z" transform="translate(-134.649 -175.71)" fill="#3b4cbe"/>
                <path id="Path_928" data-name="Path 928" d="M181.08,182.1a24.918,24.918,0,0,1-10.195,1.823c4.253,16.473-6.729,31.717-8.04,48.5-.009.173-.025.347-.032.519l0,.085a30.036,30.036,0,0,0,.993,9.383,26.815,26.815,0,0,0,3.115-.921c3.747-1.4,8.709-4.56,14.274-5.616C184.5,218.19,191.664,198.608,181.08,182.1Z" transform="translate(-134.651 -180.311)" fill="#0d415d"/>
                <path id="Path_929" data-name="Path 929" d="M187.633,184.439a15.585,15.585,0,0,0-2.829-3.966c-6.919,6.124-24.043,3.249-28.863.291-.479,1.074-1.484,2.545-2.139,4.242C165.023,191.256,179.6,190.971,187.633,184.439Z" transform="translate(-135.545 -180.473)" fill="#233884"/>
              </g>
            </g>
          </g>
        </g>
      </g>
      <path id="Path_930" data-name="Path 930" d="M155.782,120.324s-.438-9.279,3.823-10.1c4.994-3.711,15.575-3.437,19.1,1.1s2.6,8.588,3.476,11.945c-3.109,4.044-5.721.929-5.721.929s-12.873.275-15.622-5.5C160.476,120.483,155.782,120.324,155.782,120.324Z" transform="translate(-114.963 -107.657)" fill="#233884"/>
    </g>
  </g>
</svg>
