<svg xmlns="http://www.w3.org/2000/svg" width="1484.049" height="421.189" viewBox="0 0 1484.049 421.189">
  <g id="Group_2795" data-name="Group 2795" transform="translate(-467.794 -287.812)">
    <g id="Group_2648" data-name="Group 2648" transform="translate(457 211.584)">
      <g id="Layer_8" data-name="Layer 8">
        <path id="Path_82" data-name="Path 82" d="M377.031,256.109c-28.2,31.329-.482-61.109-63.955-86.609S228.634,224.15,187.5,205s-16.164-26.878-60.243-40.977-65.646,12.5-69.553,32.823-23.441,57.828-23.441,57.828-22.43,33.474-23.444,82.056S40.335,437.562,40.335,437.562c-.239,1.061-10.506,13.6-10.506,14.73l10.506-14.73c0,8.273,13.786,18.737,22.059,18.737l74.141,11.034a15.042,15.042,0,1,0,0,30.084H288.991a15.042,15.042,0,0,0,0-30.084h50.017a15.085,15.085,0,0,0,15.041-15.041h0a14.891,14.891,0,0,0-.377-3.292l23.422.016Z" fill="#b6f0b9"/>
        <circle id="Ellipse_3" data-name="Ellipse 3" cx="7.875" cy="7.875" r="7.875" transform="translate(64.105 474.5)" fill="#b6f0b9"/>
        <path id="Path_84" data-name="Path 84" d="M259.818,153.22s41.746-20.665,74.5,3.439,32.815,15.624,24.631,4.972-29.532-33.01-64.087-28.757S237.973,161.986,259.818,153.22Z" fill="#b6f0b9"/>
        <circle id="Ellipse_4" data-name="Ellipse 4" cx="38.338" cy="38.338" r="38.338" transform="translate(173.268 76.228)" fill="#b6f0b9"/>
      </g>
      <g id="Group_57" data-name="Group 57" transform="translate(-820.004 -380.899)">
        <path id="Path_358" data-name="Path 358" d="M1141.208,840.768s-35.925-82.916-13.7-86.114,18.383,76.114,18.383,76.114,13.752-63.877,29.582-59.122-23.825,58.482-23.825,58.482,28.5-33.8,38.876-26.172-40.156,36.812-40.156,36.812Z" fill="#0a8e0a"/>
        <line id="Line_121" data-name="Line 121" x2="11.273" y2="63.492" transform="translate(1131.953 771.514)" fill="none" stroke="#fff" stroke-linecap="round" stroke-linejoin="round" stroke-width="0.853"/>
        <line id="Line_122" data-name="Line 122" y1="42.614" x2="21.427" transform="translate(1149.782 785.675)" fill="none" stroke="#fff" stroke-linecap="round" stroke-linejoin="round" stroke-width="0.853"/>
        <line id="Line_123" data-name="Line 123" y1="23.466" x2="32.94" transform="translate(1147.863 812.859)" fill="none" stroke="#fff" stroke-linecap="round" stroke-linejoin="round" stroke-width="0.853"/>
        <path id="Path_359" data-name="Path 359" d="M1146.009,827.371c.029-1.093,10.6-95.706,10.6-95.706" fill="none" stroke="#0a8e0a" stroke-linecap="round" stroke-linejoin="round" stroke-width="0.853"/>
        <circle id="Ellipse_49" data-name="Ellipse 49" cx="4.666" cy="4.666" r="4.666" transform="translate(1151.944 726.999)" fill="#f7bc00"/>
        <path id="Path_360" data-name="Path 360" d="M1146.009,745.939l8.047,8.62L1170,744.8" fill="none" stroke="#0a8e0a" stroke-linecap="round" stroke-linejoin="round" stroke-width="0.853"/>
        <circle id="Ellipse_50" data-name="Ellipse 50" cx="4.666" cy="4.666" r="4.666" transform="translate(1140.45 738.816)" fill="#f7bc00"/>
        <circle id="Ellipse_51" data-name="Ellipse 51" cx="4.666" cy="4.666" r="4.666" transform="translate(1165.334 740.135)" fill="#f7bc00"/>
      </g>
      <g id="Layer_8-2" data-name="Layer 8" transform="translate(-114.997)">
        <path id="Path_133" data-name="Path 133" d="M867.049,261.653C829.5,265.307,868.6,195,805.125,169.5S720.683,224.15,679.549,205s-6.239-51.352-110.96-39.393c-55.54,6.342-76.79,91.424-76.79,91.424L492.049,449h30.814a14.891,14.891,0,0,0-.377,3.292h0a15.085,15.085,0,0,0,15.041,15.041h37.8a15.042,15.042,0,0,0,0,30.084H747.111a15.042,15.042,0,0,0,0-30.084h40.417a15.085,15.085,0,0,0,15.042-15.041h0a14.891,14.891,0,0,0-.377-3.292h64.856Z" fill="#b6f0b9"/>
        <circle id="Ellipse_10" data-name="Ellipse 10" cx="7.875" cy="7.875" r="7.875" transform="translate(517.508 474.5)" fill="#b6f0b9"/>
        <circle id="Ellipse_11" data-name="Ellipse 11" cx="7.875" cy="7.875" r="7.875" transform="translate(825.793 459.458)" fill="#b6f0b9"/>
        <path id="Path_134" data-name="Path 134" d="M624.582,87s31.83,21,47.4,78.5,48.568-5.669,77.568-13.084-4.691-16.585-22.6,0-37.258,20.223-40.832,3.153S659.354,97,639.7,85,610.964,74.361,624.582,87Z" fill="#b6f0b9"/>
        <rect id="Rectangle_43" data-name="Rectangle 43" width="36.714" height="13.289" rx="1.894" transform="translate(797.31 361.639)" fill="#b6f0b9"/>
        <rect id="Rectangle_44" data-name="Rectangle 44" width="36.714" height="13.289" rx="1.894" transform="translate(810.144 345.806)" fill="#b6f0b9"/>
        <path id="Path_1140" data-name="Path 1140" d="M1.894,0H22.739V13.289H1.894A1.894,1.894,0,0,1,0,11.394v-9.5A1.894,1.894,0,0,1,1.894,0Z" transform="translate(837.31 361.639)" fill="#b6f0b9"/>
      </g>
      <g id="Group_2635" data-name="Group 2635" transform="translate(161.528 76.152)">
        <path id="Path_85" data-name="Path 85" d="M296.889,394.471s15.95-2.951,27.753-.622l-4.683,23.391-19.533.438Z" transform="translate(-3.5 -33.829)" fill="#71d26f"/>
        <g id="Group_12" data-name="Group 12" transform="translate(305.676 280.917)">
          <path id="Path_86" data-name="Path 86" d="M336.628,290.127a6.783,6.783,0,0,1,.18-5.227c1.3-2.583,3.191-4.01,3.543-3.982s1.2,2.108.358,4.569S337.588,290.877,336.628,290.127Z" transform="translate(-321.04 -280.917)" fill="#2c9831"/>
          <path id="Path_87" data-name="Path 87" d="M336.019,300.951a6.785,6.785,0,0,1,2.835-4.395c2.438-1.553,4.8-1.806,5.084-1.6s-.056,2.422-2.036,4.105S336.459,302.087,336.019,300.951Z" transform="translate(-320.991 -285.137)" fill="#2c9831"/>
          <path id="Path_88" data-name="Path 88" d="M334.138,311a6.783,6.783,0,0,1,2.835-4.395c2.438-1.553,4.8-1.806,5.085-1.6s-.056,2.423-2.036,4.105S334.578,312.133,334.138,311Z" transform="translate(-320.423 -288.171)" fill="#2c9831"/>
          <path id="Path_89" data-name="Path 89" d="M332.129,322.609a6.785,6.785,0,0,1,2.836-4.395c2.438-1.553,4.8-1.806,5.084-1.6s-.056,2.422-2.036,4.105S332.569,323.745,332.129,322.609Z" transform="translate(-319.817 -291.677)" fill="#2c9831"/>
          <path id="Path_90" data-name="Path 90" d="M330.517,334.587a6.785,6.785,0,0,1,2.836-4.395c2.438-1.553,4.8-1.806,5.084-1.6s-.056,2.423-2.036,4.105S330.957,335.723,330.517,334.587Z" transform="translate(-319.33 -295.293)" fill="#2c9831"/>
          <path id="Path_91" data-name="Path 91" d="M329.043,347.82a6.785,6.785,0,0,1,2.836-4.395c2.438-1.553,4.8-1.806,5.084-1.6s-.056,2.423-2.036,4.105S329.483,348.956,329.043,347.82Z" transform="translate(-318.885 -299.289)" fill="#2c9831"/>
          <path id="Path_92" data-name="Path 92" d="M330.507,302.638a6.785,6.785,0,0,1-3.687-3.709c-1-2.713-.739-5.072-.477-5.309s2.355.572,3.575,2.866S331.711,302.451,330.507,302.638Z" transform="translate(-317.998 -284.741)" fill="#2c9831"/>
          <path id="Path_93" data-name="Path 93" d="M327.575,314.277a6.785,6.785,0,0,1-3.687-3.709c-1-2.713-.739-5.071-.477-5.309s2.355.572,3.575,2.866S328.779,314.09,327.575,314.277Z" transform="translate(-317.113 -288.255)" fill="#2c9831"/>
          <path id="Path_94" data-name="Path 94" d="M325.6,327.359a6.785,6.785,0,0,1-3.687-3.71c-1-2.713-.739-5.071-.477-5.309s2.355.572,3.575,2.866S326.8,327.172,325.6,327.359Z" transform="translate(-316.515 -292.205)" fill="#2c9831"/>
          <path id="Path_95" data-name="Path 95" d="M322.923,339.987a6.786,6.786,0,0,1-4.3-2.979c-1.472-2.488-1.647-4.854-1.433-5.134s2.419.135,4.036,2.17S324.073,339.585,322.923,339.987Z" transform="translate(-315.284 -296.28)" fill="#2c9831"/>
          <path id="Path_96" data-name="Path 96" d="M321.954,351.134a6.786,6.786,0,0,1-4.3-2.979c-1.472-2.487-1.647-4.854-1.432-5.134s2.419.135,4.036,2.17S323.1,350.731,321.954,351.134Z" transform="translate(-314.991 -299.646)" fill="#2c9831"/>
          <path id="Path_97" data-name="Path 97" d="M320.3,363.142a6.786,6.786,0,0,1-4.3-2.979c-1.472-2.487-1.647-4.854-1.432-5.134s2.419.135,4.035,2.17S321.448,362.74,320.3,363.142Z" transform="translate(-314.491 -303.271)" fill="#2c9831"/>
          <path id="Path_98" data-name="Path 98" d="M323.122,354.067s2.867-36.751,8.7-56.721c0,0,.864-3.049,1.167-2.591.26.392-3.313,13.093-5.2,28.291-2.926,23.57-2.819,28.07-3.689,31.5C323.812,355.678,322.991,356.448,323.122,354.067Z" transform="translate(-317.093 -285.081)" fill="#2c9831"/>
        </g>
        <path id="Path_99" data-name="Path 99" d="M306.718,308.318c-1.552.045-2.02-9.621-4.411-13.96s-5.576,2.808-6.782,7.444.044,8.058-4.065,9.475,1.442,12.624-1.1,15.794-7.876-.119-3.23,8.074,7,6.481,1.081,10.884,6.414,13.5,6.414,13.5,4.486,3.217,8.717,3.687,9.466-10.829,13.392-17.707-1.6-5.291-4.54-5.571-.3-3.091,3.166-10.231-3.067-4.426-5.621-5.276,2.516-13.459,1.867-16.687S308.269,308.274,306.718,308.318Zm-6.783,15.213c-.75,10.536,4.161,35.518,4.161,35.518s-4.337-12.184-4.787-23.85,1.208-34.746,1.208-34.746S300.686,313,299.935,323.531Z" transform="translate(0 -3.652)" fill="#2c9831"/>
        <path id="Path_100" data-name="Path 100" d="M341.215,335.09c-1.1-.5,1.857-7.418,1.659-11.267s-4.856.069-7.274,2.9-2.708,5.653-6.065,5.248-3.281,9.323-6.135,10.678-5.47-2.76-5,4.551,2.694,6.914-2.944,7.983-.1,11.629-.1,11.629,2.046,3.775,4.847,5.542,10.3-4.359,15.387-7.837.679-4.246-1.283-5.441.839-2.265,5.692-6.082-.642-4.139-2.14-5.6,6.335-8.562,6.977-11.041S342.315,335.586,341.215,335.09Zm-9.916,8.339c-4.105,7.117-9.16,26.264-9.16,26.264a72.633,72.633,0,0,1,4.757-18.314c3.65-8.316,12.653-23.9,12.653-23.9S335.4,336.312,331.3,343.429Z" transform="translate(-8.34 -12.47)" fill="#2c9832"/>
      </g>
      <g id="Group_2646" data-name="Group 2646" transform="translate(335.053)">
        <g id="Group_57-2" data-name="Group 57" transform="translate(-778.004 -380.899)">
          <path id="Path_358-2" data-name="Path 358" d="M1141.208,840.768s-35.925-82.916-13.7-86.114,18.383,76.114,18.383,76.114,13.752-63.877,29.582-59.122-23.825,58.482-23.825,58.482,28.5-33.8,38.876-26.172-40.156,36.812-40.156,36.812Z" fill="#0a8e0a"/>
          <line id="Line_121-2" data-name="Line 121" x2="11.273" y2="63.492" transform="translate(1131.953 771.514)" fill="none" stroke="#fff" stroke-linecap="round" stroke-linejoin="round" stroke-width="0.853"/>
          <line id="Line_122-2" data-name="Line 122" y1="42.614" x2="21.427" transform="translate(1149.782 785.675)" fill="none" stroke="#fff" stroke-linecap="round" stroke-linejoin="round" stroke-width="0.853"/>
          <line id="Line_123-2" data-name="Line 123" y1="23.466" x2="32.94" transform="translate(1147.863 812.859)" fill="none" stroke="#fff" stroke-linecap="round" stroke-linejoin="round" stroke-width="0.853"/>
          <path id="Path_359-2" data-name="Path 359" d="M1146.009,827.371c.029-1.093,10.6-95.706,10.6-95.706" fill="none" stroke="#0a8e0a" stroke-linecap="round" stroke-linejoin="round" stroke-width="0.853"/>
          <circle id="Ellipse_49-2" data-name="Ellipse 49" cx="4.666" cy="4.666" r="4.666" transform="translate(1151.944 726.999)" fill="#f7bc00"/>
          <path id="Path_360-2" data-name="Path 360" d="M1146.009,745.939l8.047,8.62L1170,744.8" fill="none" stroke="#0a8e0a" stroke-linecap="round" stroke-linejoin="round" stroke-width="0.853"/>
          <circle id="Ellipse_50-2" data-name="Ellipse 50" cx="4.666" cy="4.666" r="4.666" transform="translate(1140.45 738.816)" fill="#f7bc00"/>
          <circle id="Ellipse_51-2" data-name="Ellipse 51" cx="4.666" cy="4.666" r="4.666" transform="translate(1165.334 740.135)" fill="#f7bc00"/>
        </g>
        <g id="Group_68" data-name="Group 68" transform="translate(-778.004 -380.899)">
          <path id="Path_462" data-name="Path 462" d="M1123.8,811.032c-3.636-4.784-7.956,10.231-10.29,20.03.839-19.684,1.649-62.217-7.22-59.416-11.513,3.635,3.854,64.079,3.854,64.079s-20.644-49.665-33.116-45.46,26.384,45.94,26.384,45.94-30.7-11.993-33.58-4.318S1113,840.768,1113,840.768,1129.075,817.976,1123.8,811.032Z" fill="#217a23"/>
          <line id="Line_166" data-name="Line 166" x1="22.067" y1="33.82" transform="translate(1084.461 801.186)" fill="none" stroke="#fff" stroke-linecap="round" stroke-linejoin="round" stroke-width="0.853"/>
          <line id="Line_167" data-name="Line 167" x2="4.078" y2="47.173" transform="translate(1106.528 781.117)" fill="none" stroke="#fff" stroke-linecap="round" stroke-linejoin="round" stroke-width="0.853"/>
          <line id="Line_168" data-name="Line 168" x1="5.807" y2="16.91" transform="translate(1114.443 818.096)" fill="none" stroke="#fff" stroke-linecap="round" stroke-linejoin="round" stroke-width="0.853"/>
          <line id="Line_169" data-name="Line 169" x2="33.1" y2="5.996" transform="translate(1077.506 833.326)" fill="none" stroke="#fff" stroke-linecap="round" stroke-linejoin="round" stroke-width="0.853"/>
          <line id="Line_170" data-name="Line 170" x1="17.073" y1="72.823" transform="translate(1085.912 751.768)" fill="none" stroke="#217a23" stroke-linecap="round" stroke-linejoin="round" stroke-width="0.853"/>
          <path id="Path_463" data-name="Path 463" d="M1075.945,768.518l15.375,6.322,8.879-13.867" fill="none" stroke="#0a8e0a" stroke-linecap="round" stroke-linejoin="round" stroke-width="0.853"/>
          <circle id="Ellipse_69" data-name="Ellipse 69" cx="4.568" cy="4.568" r="4.568" transform="matrix(0.16, -0.987, 0.987, 0.16, 1079.953, 751.926)" fill="#f7bc00"/>
          <circle id="Ellipse_70" data-name="Ellipse 70" cx="4.568" cy="4.568" r="4.568" transform="translate(1095.632 755.079)" fill="#f7bc00"/>
          <circle id="Ellipse_71" data-name="Ellipse 71" cx="4.568" cy="4.568" r="4.568" transform="translate(1150.119 765.433) rotate(-22.5)" fill="#f7bc00"/>
          <circle id="Ellipse_72" data-name="Ellipse 72" cx="4.568" cy="4.568" r="4.568" transform="translate(1069.318 765.433) rotate(-22.5)" fill="#f7bc00"/>
        </g>
      </g>
      <g id="Group_2647" data-name="Group 2647" transform="translate(-692.265 -385.838)">
        <path id="Path_462-2" data-name="Path 462" d="M1123.8,811.032c-3.636-4.784-7.956,10.231-10.29,20.03.839-19.684,1.649-62.217-7.22-59.416-11.513,3.635,3.854,64.079,3.854,64.079s-20.644-49.665-33.116-45.46,26.384,45.94,26.384,45.94-30.7-11.993-33.58-4.318S1113,840.768,1113,840.768,1129.075,817.976,1123.8,811.032Z" fill="#217a23"/>
        <line id="Line_166-2" data-name="Line 166" x1="22.067" y1="33.82" transform="translate(1084.461 801.186)" fill="none" stroke="#fff" stroke-linecap="round" stroke-linejoin="round" stroke-width="0.853"/>
        <line id="Line_167-2" data-name="Line 167" x2="4.078" y2="47.173" transform="translate(1106.528 781.117)" fill="none" stroke="#fff" stroke-linecap="round" stroke-linejoin="round" stroke-width="0.853"/>
        <line id="Line_168-2" data-name="Line 168" x1="5.807" y2="16.91" transform="translate(1114.443 818.096)" fill="none" stroke="#fff" stroke-linecap="round" stroke-linejoin="round" stroke-width="0.853"/>
        <line id="Line_169-2" data-name="Line 169" x2="33.1" y2="5.996" transform="translate(1077.506 833.326)" fill="none" stroke="#fff" stroke-linecap="round" stroke-linejoin="round" stroke-width="0.853"/>
        <line id="Line_170-2" data-name="Line 170" x1="17.073" y1="72.823" transform="translate(1085.912 751.768)" fill="none" stroke="#217a23" stroke-linecap="round" stroke-linejoin="round" stroke-width="0.853"/>
        <path id="Path_463-2" data-name="Path 463" d="M1075.945,768.518l15.375,6.322,8.879-13.867" fill="none" stroke="#0a8e0a" stroke-linecap="round" stroke-linejoin="round" stroke-width="0.853"/>
        <circle id="Ellipse_69-2" data-name="Ellipse 69" cx="4.568" cy="4.568" r="4.568" transform="matrix(0.16, -0.987, 0.987, 0.16, 1079.953, 751.926)" fill="#f7bc00"/>
        <circle id="Ellipse_70-2" data-name="Ellipse 70" cx="4.568" cy="4.568" r="4.568" transform="translate(1095.632 755.079)" fill="#f7bc00"/>
        <circle id="Ellipse_72-2" data-name="Ellipse 72" cx="4.568" cy="4.568" r="4.568" transform="translate(1069.318 765.433) rotate(-22.5)" fill="#f7bc00"/>
      </g>
      <g id="Layer_8-3" data-name="Layer 8" transform="translate(-254.094)">
        <path id="Path_2" data-name="Path 2" d="M1384.73,262.438s-43.813-17.676-42.313-73.557S1299.075,116.8,1255,130.9s-18.4,54.949-59.53,74.1-62.1-61-125.576-35.5-26.356,95.795-63.905,92.141L1005.763,449h18.957a14.95,14.95,0,0,0-.377,3.292h0a15.086,15.086,0,0,0,15.042,15.041h45.326a15.042,15.042,0,1,0,0,30.084H1256.5a15.042,15.042,0,0,0,0-30.084h32.889a15.085,15.085,0,0,0,15.041-15.041h0a14.891,14.891,0,0,0-.377-3.292h78.916Z" fill="#b6f0b9"/>
        <circle id="Ellipse_1" data-name="Ellipse 1" cx="7.875" cy="7.875" r="7.875" transform="translate(1315.799 459.458)" fill="#b6f0b9"/>
        <path id="Path_4" data-name="Path 4" d="M1049.975,162c1.583-.47,55.408-24.7,88.741,3.4s29.241.069,29.241.069-29.918-25.9-64.075-24.565S1022.262,170.233,1049.975,162Z" fill="#b6f0b9"/>
      </g>
      <g id="Group_69" data-name="Group 69" transform="translate(-694.543 -374.899)">
        <path id="Path_470" data-name="Path 470" d="M1448.4,840.915h4.216s32.522-40.14,18.971-46.077S1449,815.537,1448.4,840.915Z" fill="#217a23"/>
        <path id="Path_471" data-name="Path 471" d="M1459.735,840.792s11.349-23.284,19.113-19.67-16.4,19.793-16.4,19.793Z" fill="#217a23"/>
        <path id="Path_472" data-name="Path 472" d="M1452.025,821.02c.128-1.086,19.264-94.345,19.264-94.345" fill="none" stroke="#0a8e0a" stroke-linecap="round" stroke-linejoin="round" stroke-width="0.853"/>
        <circle id="Ellipse_73" data-name="Ellipse 73" cx="4.666" cy="4.666" r="4.666" transform="translate(1466.623 722.008)" fill="#f7bc00"/>
        <path id="Path_473" data-name="Path 473" d="M1459.433,739.926l7.229,9.316,16.766-8.267" fill="none" stroke="#0a8e0a" stroke-linecap="round" stroke-linejoin="round" stroke-width="0.853"/>
        <circle id="Ellipse_74" data-name="Ellipse 74" cx="4.666" cy="4.666" r="4.666" transform="matrix(0.237, -0.972, 0.972, 0.237, 1453.129, 740.826)" fill="#f7bc00"/>
        <path id="Path_474" data-name="Path 474" d="M1488.075,741.4a4.666,4.666,0,1,1-4.222-5.071A4.666,4.666,0,0,1,1488.075,741.4Z" fill="#f7bc00"/>
      </g>
      <g id="Group_68-2" data-name="Group 68" transform="translate(3.852 -380.768)">
        <path id="Path_462-3" data-name="Path 462" d="M1123.8,811.032c-3.636-4.784-7.956,10.231-10.29,20.03.839-19.684,1.649-62.217-7.22-59.416-11.513,3.635,3.854,64.079,3.854,64.079s-20.644-49.665-33.116-45.46,26.384,45.94,26.384,45.94-30.7-11.993-33.58-4.318S1113,840.768,1113,840.768,1129.075,817.976,1123.8,811.032Z" fill="#217a23"/>
        <line id="Line_166-3" data-name="Line 166" x1="22.067" y1="33.82" transform="translate(1084.461 801.186)" fill="none" stroke="#fff" stroke-linecap="round" stroke-linejoin="round" stroke-width="0.853"/>
        <line id="Line_167-3" data-name="Line 167" x2="4.078" y2="47.173" transform="translate(1106.528 781.117)" fill="none" stroke="#fff" stroke-linecap="round" stroke-linejoin="round" stroke-width="0.853"/>
        <line id="Line_168-3" data-name="Line 168" x1="5.807" y2="16.91" transform="translate(1114.443 818.096)" fill="none" stroke="#fff" stroke-linecap="round" stroke-linejoin="round" stroke-width="0.853"/>
        <line id="Line_169-3" data-name="Line 169" x2="33.1" y2="5.996" transform="translate(1077.506 833.326)" fill="none" stroke="#fff" stroke-linecap="round" stroke-linejoin="round" stroke-width="0.853"/>
        <line id="Line_170-3" data-name="Line 170" x1="17.073" y1="72.823" transform="translate(1085.912 751.768)" fill="none" stroke="#217a23" stroke-linecap="round" stroke-linejoin="round" stroke-width="0.853"/>
        <path id="Path_463-3" data-name="Path 463" d="M1075.945,768.518l15.375,6.322,8.879-13.867" fill="none" stroke="#0a8e0a" stroke-linecap="round" stroke-linejoin="round" stroke-width="0.853"/>
        <circle id="Ellipse_69-3" data-name="Ellipse 69" cx="4.568" cy="4.568" r="4.568" transform="matrix(0.16, -0.987, 0.987, 0.16, 1079.953, 751.926)" fill="#f7bc00"/>
        <circle id="Ellipse_70-3" data-name="Ellipse 70" cx="4.568" cy="4.568" r="4.568" transform="translate(1095.632 755.079)" fill="#f7bc00"/>
        <circle id="Ellipse_71-2" data-name="Ellipse 71" cx="4.568" cy="4.568" r="4.568" transform="translate(1150.119 765.433) rotate(-22.5)" fill="#f7bc00"/>
        <circle id="Ellipse_72-3" data-name="Ellipse 72" cx="4.568" cy="4.568" r="4.568" transform="translate(1069.318 765.433) rotate(-22.5)" fill="#f7bc00"/>
      </g>
      <g id="Layer_8-4" data-name="Layer 8" transform="translate(1130.636 76.228)">
        <path id="Path_82-2" data-name="Path 82" d="M10.579,262.344C40.17,273.48,9.245,195,72.718,169.5S157.16,224.15,198.294,205s16.164-26.878,60.243-40.977,65.646,12.5,69.553,32.823,23.441,57.828,23.441,57.828,22.43,33.474,23.444,82.056-29.517,100.832-29.517,100.832c.239,1.061,10.506,13.6,10.506,14.73l-10.506-14.73c0,8.273-13.786,18.737-22.059,18.737l-74.141,11.034a15.042,15.042,0,1,1,0,30.084H96.8a15.042,15.042,0,1,1,0-30.084H46.786a15.085,15.085,0,0,1-15.041-15.041h0A14.891,14.891,0,0,1,32.122,449H8.954Z" transform="translate(-10.794 -76.228)" fill="#b6f0b9"/>
        <ellipse id="Ellipse_3-2" data-name="Ellipse 3" cx="7.875" cy="7.875" rx="7.875" ry="7.875" transform="translate(295.146 398.272)" fill="#b6f0b9"/>
        <path id="Path_84-2" data-name="Path 84" d="M354.82,153.22s-41.746-20.665-74.5,3.439-32.815,15.624-24.631,4.972,29.532-33.01,64.087-28.757S376.665,161.986,354.82,153.22Z" transform="translate(-239.638 -76.228)" fill="#b6f0b9"/>
        <path id="Path_85-2" data-name="Path 85" d="M336.646,395.127s-22.849-4.227-39.757-.891l6.708,33.508,27.982.627Z" transform="translate(-258.535 -76.228)" fill="#71d26f"/>
        <g id="Group_12-2" data-name="Group 12" transform="translate(27.509 204.689)">
          <path id="Path_86-2" data-name="Path 86" d="M342.541,294.111a9.716,9.716,0,0,0-.258-7.488c-1.856-3.7-4.571-5.745-5.075-5.7s-1.712,3.02-.513,6.545S341.165,295.185,342.541,294.111Z" transform="translate(-331.871 -280.917)" fill="#98ca59"/>
          <path id="Path_87-2" data-name="Path 87" d="M347.491,303.571a9.72,9.72,0,0,0-4.062-6.3c-3.492-2.225-6.871-2.587-7.283-2.294s.08,3.47,2.917,5.881S346.861,305.2,347.491,303.571Z" transform="translate(-336.019 -280.917)" fill="#98ca59"/>
          <path id="Path_88-2" data-name="Path 88" d="M345.61,313.617a9.716,9.716,0,0,0-4.061-6.3c-3.492-2.225-6.872-2.587-7.284-2.294s.08,3.471,2.917,5.881S344.98,315.244,345.61,313.617Z" transform="translate(-332.257 -280.917)" fill="#98ca59"/>
          <path id="Path_89-2" data-name="Path 89" d="M343.6,325.229a9.72,9.72,0,0,0-4.062-6.3c-3.492-2.225-6.871-2.587-7.283-2.294s.08,3.47,2.917,5.881S342.971,326.856,343.6,325.229Z" transform="translate(-328.239 -280.917)" fill="#98ca59"/>
          <path id="Path_90-2" data-name="Path 90" d="M341.989,337.207a9.72,9.72,0,0,0-4.062-6.3c-3.492-2.225-6.871-2.587-7.283-2.294s.08,3.471,2.917,5.881S341.359,338.834,341.989,337.207Z" transform="translate(-325.015 -280.917)" fill="#98ca59"/>
          <path id="Path_91-2" data-name="Path 91" d="M340.515,350.44a9.72,9.72,0,0,0-4.062-6.3c-3.492-2.225-6.871-2.587-7.283-2.294s.08,3.471,2.917,5.881S339.885,352.067,340.515,350.44Z" transform="translate(-322.067 -280.917)" fill="#98ca59"/>
          <path id="Path_92-2" data-name="Path 92" d="M327.057,306.556a9.719,9.719,0,0,0,5.282-5.314c1.428-3.887,1.059-7.266.684-7.605s-3.373.819-5.121,4.106S325.333,306.288,327.057,306.556Z" transform="translate(-311.977 -280.917)" fill="#98ca59"/>
          <path id="Path_93-2" data-name="Path 93" d="M324.126,318.195a9.719,9.719,0,0,0,5.282-5.314c1.427-3.887,1.059-7.265.684-7.605s-3.373.82-5.121,4.106S322.4,317.927,324.126,318.195Z" transform="translate(-306.114 -280.917)" fill="#98ca59"/>
          <path id="Path_94-2" data-name="Path 94" d="M322.146,331.277a9.719,9.719,0,0,0,5.282-5.314c1.428-3.887,1.059-7.265.684-7.605s-3.373.82-5.121,4.106S320.422,331.009,322.146,331.277Z" transform="translate(-302.155 -280.917)" fill="#98ca59"/>
          <path id="Path_95-2" data-name="Path 95" d="M317.761,343.53a9.721,9.721,0,0,0,6.158-4.267c2.109-3.564,2.36-6.953,2.053-7.355s-3.466.194-5.781,3.109S316.114,342.954,317.761,343.53Z" transform="translate(-295.705 -280.917)" fill="#98ca59"/>
          <path id="Path_96-2" data-name="Path 96" d="M316.792,354.677a9.721,9.721,0,0,0,6.159-4.268c2.109-3.563,2.359-6.953,2.052-7.354s-3.465.194-5.781,3.109S315.145,354.1,316.792,354.677Z" transform="translate(-293.767 -280.917)" fill="#98ca59"/>
          <path id="Path_97-2" data-name="Path 97" d="M315.136,366.685a9.722,9.722,0,0,0,6.159-4.267c2.109-3.563,2.359-6.953,2.052-7.355s-3.465.194-5.781,3.109S313.489,366.109,315.136,366.685Z" transform="translate(-290.455 -280.917)" fill="#98ca59"/>
          <path id="Path_98-2" data-name="Path 98" d="M337.259,379.743s-4.107-52.647-12.46-81.256c0,0-1.238-4.368-1.672-3.712-.372.562,4.746,18.757,7.448,40.528,4.191,33.765,4.039,40.212,5.285,45.13C336.27,382.051,337.446,383.153,337.259,379.743Z" transform="translate(-312.896 -280.917)" fill="#98ca59"/>
        </g>
        <path id="Path_99-2" data-name="Path 99" d="M301.6,314.938c2.223.064,2.893-13.783,6.319-20s7.988,4.022,9.715,10.664-.063,11.543,5.824,13.574-2.066,18.084,1.572,22.626,11.283-.17,4.627,11.566-10.026,9.284-1.548,15.592-9.189,19.346-9.189,19.346-6.427,4.609-12.488,5.282-13.56-15.513-19.185-25.366,2.292-7.579,6.5-7.981.433-4.428-4.535-14.656,4.393-6.34,8.052-7.558-3.6-19.281-2.674-23.905S299.378,314.875,301.6,314.938Zm9.717,21.794c1.074,15.093-5.961,50.881-5.961,50.881s6.213-17.454,6.858-34.167-1.73-49.775-1.73-49.775S310.242,321.639,311.317,336.732Z" transform="translate(-242.584 -76.228)" fill="#98ca59"/>
        <path id="Path_100-2" data-name="Path 100" d="M318.221,340.658c1.576-.711-2.66-10.627-2.376-16.14s6.956.1,10.421,4.159,3.88,8.1,8.689,7.518,4.7,13.355,8.789,15.3,7.836-3.954,7.168,6.519-3.859,9.9,4.217,11.436.145,16.659.145,16.659-2.931,5.408-6.943,7.939-14.759-6.245-22.043-11.227-.973-6.082,1.838-7.795-1.2-3.245-8.154-8.713.919-5.929,3.065-8.025-9.075-12.265-10-15.817S316.645,341.369,318.221,340.658ZM332.426,352.6c5.881,10.2,13.122,37.625,13.122,37.625s-1.585-14.323-6.814-26.236-18.126-34.237-18.126-34.237S326.545,342.409,332.426,352.6Z" transform="translate(-296.675 -76.228)" fill="#98ca59"/>
        <path id="Path_1153" data-name="Path 1153" d="M38.338,0A38.338,38.338,0,1,1,0,38.338,38.338,38.338,0,0,1,38.338,0Z" transform="translate(125.056 0)" fill="#b6f0b9"/>
      </g>
      <g id="Group_69-2" data-name="Group 69" transform="translate(-317.556 -374.899)">
        <path id="Path_470-2" data-name="Path 470" d="M1448.4,840.915h4.216s32.522-40.14,18.971-46.077S1449,815.537,1448.4,840.915Z" fill="#217a23"/>
        <path id="Path_471-2" data-name="Path 471" d="M1459.735,840.792s11.349-23.284,19.113-19.67-16.4,19.793-16.4,19.793Z" fill="#217a23"/>
        <path id="Path_472-2" data-name="Path 472" d="M1452.025,821.02c.128-1.086,19.264-94.345,19.264-94.345" fill="none" stroke="#0a8e0a" stroke-linecap="round" stroke-linejoin="round" stroke-width="0.853"/>
        <circle id="Ellipse_73-2" data-name="Ellipse 73" cx="4.666" cy="4.666" r="4.666" transform="translate(1466.623 722.008)" fill="#f7bc00"/>
        <path id="Path_473-2" data-name="Path 473" d="M1459.433,739.926l7.229,9.316,16.766-8.267" fill="none" stroke="#0a8e0a" stroke-linecap="round" stroke-linejoin="round" stroke-width="0.853"/>
        <circle id="Ellipse_74-2" data-name="Ellipse 74" cx="4.666" cy="4.666" r="4.666" transform="matrix(0.237, -0.972, 0.972, 0.237, 1453.129, 740.826)" fill="#f7bc00"/>
        <path id="Path_474-2" data-name="Path 474" d="M1488.075,741.4a4.666,4.666,0,1,1-4.222-5.071A4.666,4.666,0,0,1,1488.075,741.4Z" fill="#f7bc00"/>
      </g>
    </g>
  </g>
</svg>
