<?xml version="1.0" encoding="utf-8"?>
<!-- Generator: Adobe Illustrator 24.3.0, SVG Export Plug-In . SVG Version: 6.00 Build 0)  -->
<svg version="1.1" id="Layer_1" xmlns="http://www.w3.org/2000/svg" xmlns:xlink="http://www.w3.org/1999/xlink" x="0px" y="0px"
	 viewBox="0 0 280 90" style="enable-background:new 0 0 280 90;" xml:space="preserve">
<style type="text/css">
	.st0{fill:#FFFFFF;}
	.st1{fill:#1E3036;}
	.st2{fill:#FDA83A;}
	.st3{fill:#F8833E;}
	.st4{font-family:'Gilroy-Bold';}
	.st5{font-size:41.3138px;}
	.st6{font-family:'Gilroy-Regular';}
	.st7{font-size:18.1771px;}
	.st8{letter-spacing:1;}
</style>
<path class="st0" d="M-116-455"/>
<path class="st0" d="M-116,545"/>
<g id="XMLID_1_">
	<g id="XMLID_21_">
		<path id="XMLID_23_" class="st0" d="M60.16,27.97c0-0.92,0.02-1.84-0.03-2.76c-0.05-1.13-0.21-2.26-0.64-3.34
			c-1.43-3.63-5.25-6.06-9.15-5.85c-1.45-4.98-6.05-8.61-11.49-8.61c-6.3,0-11.46,4.87-11.93,11.05c-3.55,0.95-6.17,4.18-6.17,8.03
			c0,0.25,0.01,0.49,0.03,0.73c-0.06,1.01-0.03,2.04-0.03,3.05c0,1.81,0,3.65,0,5.41h39.4C60.16,33.16,60.18,30.55,60.16,27.97z"/>
		<path id="XMLID_27_" class="st1" d="M62.46,37.99H18.46v-7.71c0-0.22,0-0.45,0-0.67c0-0.76-0.01-1.55,0.03-2.34
			c-0.02-0.26-0.03-0.52-0.03-0.77c0-4.26,2.55-8.07,6.37-9.73c0.55-2.99,2.05-5.73,4.31-7.83c2.65-2.47,6.1-3.83,9.72-3.83
			c3.15,0,6.14,1.01,8.64,2.91c1.96,1.5,3.52,3.5,4.49,5.75c1.79,0.19,3.55,0.81,5.1,1.8c2.07,1.32,3.68,3.26,4.55,5.46
			c0.47,1.18,0.72,2.48,0.8,4.08c0.03,0.72,0.03,1.42,0.03,2.1c0,0.25,0,0.5,0,0.75l0,0c0.01,1.66,0,3.35,0,4.98
			c0,0.92,0,1.84,0,2.75V37.99z M23.06,33.39h34.8c0-0.15,0-0.31,0-0.46c0-1.63,0.01-3.31,0-4.95l0,0c0-0.27,0-0.53,0-0.79
			c0-0.65,0-1.26-0.02-1.86c-0.05-1.1-0.2-1.9-0.48-2.61c-1.07-2.7-3.96-4.55-6.88-4.4l-1.82,0.1l-0.51-1.75
			c-1.19-4.09-5.01-6.95-9.28-6.95c-5.02,0-9.26,3.92-9.64,8.92l-0.12,1.63l-1.58,0.42c-2.62,0.7-4.46,3.09-4.46,5.81
			c0,0.17,0.01,0.35,0.02,0.53l0.01,0.16l-0.01,0.16c-0.04,0.71-0.04,1.45-0.03,2.23c0,0.23,0,0.46,0,0.7V33.39z"/>
		<rect id="XMLID_28_" x="20.74" y="30.73" class="st0" width="39.5" height="48.26"/>
		<rect id="XMLID_29_" x="20.74" y="38.92" class="st2" width="39.5" height="40.08"/>
		<polygon id="XMLID_30_" class="st3" points="24.75,74.94 24.75,38.92 20.76,38.92 20.76,79.01 60.23,79.01 60.23,74.94 		"/>
		<polygon id="XMLID_31_" class="st1" points="32.75,81.3 18.43,81.3 18.43,28.43 32.75,28.43 32.75,33.03 23.04,33.03 23.04,76.69 
			32.75,76.69 		"/>
		<polygon id="XMLID_32_" class="st1" points="62.57,81.3 48.26,81.3 48.26,76.69 57.96,76.69 57.93,33.04 48.26,33.03 48.26,28.43 
			62.54,28.43 		"/>
		<rect id="XMLID_33_" x="49.79" y="42.76" class="st0" width="4.47" height="30.87"/>
		<rect id="XMLID_34_" x="26.74" y="42.76" class="st1" width="11.61" height="3.99"/>
		<rect id="XMLID_35_" x="26.74" y="55.58" class="st1" width="6.85" height="3.99"/>
		<rect id="XMLID_36_" x="26.74" y="68.41" class="st1" width="11.61" height="3.99"/>
		<rect id="XMLID_37_" x="15.09" y="24.79" class="st0" width="50.69" height="3.66"/>
		<path id="XMLID_38_" class="st1" d="M2.52,50.64c1.12,0,3.75-0.6,3.75-2.91v-8.22c0-3.75,3.39-5.47,5.11-5.47H15v3.59h-2.19
			c-2.03,0-2.23,1.59-2.23,2.79v7.78c-0.04,3.23-2.87,4.03-4.15,4.19v0.08c1.28,0.12,4.11,0.56,4.15,4.43v7.54
			c0,1.2,0.2,2.79,2.23,2.79H15v3.59h-3.63c-1.72,0-5.11-1.71-5.11-5.46v-7.9c0-2.59-2.63-3.23-3.75-3.23V50.64z"/>
	</g>
	<text id="XMLID_2_" transform="matrix(1 0 0 1 73.8887 64.5273)"><tspan x="0" y="0" class="st1 st4 st5">Beer</tspan><tspan x="84.4" y="0" class="st2 st4 st5">Studio</tspan></text>
	<text id="XMLID_3_" transform="matrix(1 0 0 1 73.5708 80.9892)" class="st1 st6 st7 st8">Mobile developers</text>
</g>
</svg>
