<svg id="vk" xmlns="http://www.w3.org/2000/svg" width="40" height="40" viewBox="0 0 40 40">
  <path id="Vector" d="M20,40A20,20,0,1,1,40,20,20,20,0,0,1,20,40Z" fill="#2787f5"/>
  <path id="Icon_awesome-vk" data-name="Icon awesome-vk" d="M19.172,7.486c.126-.424,0-.736-.6-.736h-2a.858.858,0,0,0-.869.567,16.749,16.749,0,0,1-2.457,4.089c-.465.465-.679.614-.933.614-.126,0-.319-.149-.319-.574V7.486c0-.509-.143-.736-.563-.736H8.285a.482.482,0,0,0-.509.458c0,.482.719.594.794,1.951v2.946c0,.645-.115.764-.37.764-.679,0-2.328-2.491-3.305-5.342-.2-.553-.39-.777-.9-.777h-2c-.57,0-.686.268-.686.567,0,.529.679,3.16,3.16,6.635a7.792,7.792,0,0,0,6.1,3.658c1.273,0,1.429-.285,1.429-.777,0-2.267-.115-2.481.523-2.481.3,0,.8.149,1.992,1.293C15.867,17,16.091,17.61,16.851,17.61h2c.57,0,.859-.285.692-.848-.38-1.184-2.949-3.621-3.065-3.784-.3-.38-.21-.55,0-.889,0,0,2.443-3.438,2.695-4.6Z" transform="translate(10.177 7.884)" fill="#fff"/>
</svg>
