<svg xmlns="http://www.w3.org/2000/svg" xmlns:xlink="http://www.w3.org/1999/xlink" width="266" height="224" viewBox="0 0 266 224">
  <defs>
    <linearGradient id="linear-gradient" x1="0.5" y1="0.47" x2="0.5" y2="-0.012" gradientUnits="objectBoundingBox">
      <stop offset="0.043" stop-color="#f0f5f7"/>
      <stop offset="0.483" stop-color="#edf2f5"/>
      <stop offset="0.811" stop-color="#e3eaf2"/>
      <stop offset="1" stop-color="#dae3ef"/>
    </linearGradient>
    <linearGradient id="linear-gradient-2" x1="0.5" y1="-7.519" x2="0.5" y2="-8.002" gradientUnits="objectBoundingBox">
      <stop offset="0.043" stop-color="#f0f5f7"/>
      <stop offset="0.478" stop-color="#ecf2f5"/>
      <stop offset="0.813" stop-color="#e3eaf2"/>
      <stop offset="1" stop-color="#dae3ef"/>
    </linearGradient>
    <linearGradient id="linear-gradient-3" y1="0.5" x2="1" y2="0.5" gradientUnits="objectBoundingBox">
      <stop offset="0.023" stop-color="#ed516f"/>
      <stop offset="1" stop-color="#d44751"/>
    </linearGradient>
    <linearGradient id="linear-gradient-5" x1="29.862" y1="0.597" x2="31.251" y2="1.863" xlink:href="#linear-gradient-3"/>
    <linearGradient id="linear-gradient-6" x1="3.793" y1="1.723" x2="4.691" y2="1.723" gradientUnits="objectBoundingBox">
      <stop offset="0.043" stop-color="#7973fd"/>
      <stop offset="0.254" stop-color="#a4a4fd"/>
      <stop offset="0.535" stop-color="#7973fd"/>
      <stop offset="1" stop-color="#a4a4fd"/>
    </linearGradient>
    <linearGradient id="linear-gradient-7" x1="-0.06" y1="0.666" x2="0.039" y2="0.666" gradientUnits="objectBoundingBox">
      <stop offset="0.043" stop-color="#7973fd"/>
      <stop offset="0.254" stop-color="#a4a4fd"/>
      <stop offset="1" stop-color="#7973fd"/>
    </linearGradient>
    <linearGradient id="linear-gradient-8" x1="-0.072" y1="-5.537" x2="0.928" y2="-5.537" gradientUnits="objectBoundingBox">
      <stop offset="0.033" stop-color="#214f95"/>
      <stop offset="1" stop-color="#0e408c"/>
    </linearGradient>
    <linearGradient id="linear-gradient-9" x1="0" y1="0.5" x2="1" y2="0.5" xlink:href="#linear-gradient-7"/>
    <linearGradient id="linear-gradient-10" x1="-6.329" y1="5.07" x2="-5.777" y2="5.07" xlink:href="#linear-gradient-8"/>
    <linearGradient id="linear-gradient-11" x1="14.177" y1="0.179" x2="14.177" y2="0.961" xlink:href="#linear-gradient-3"/>
    <linearGradient id="linear-gradient-12" x1="0.78" y1="0.605" x2="0.316" y2="0.45" gradientUnits="objectBoundingBox">
      <stop offset="0" stop-color="#6b2195"/>
      <stop offset="0.033" stop-color="#214f95"/>
      <stop offset="1" stop-color="#0e408c"/>
    </linearGradient>
    <linearGradient id="linear-gradient-13" x1="26.031" y1="0.259" x2="26.031" y2="1.931" xlink:href="#linear-gradient-3"/>
    <linearGradient id="linear-gradient-14" x1="25.259" y1="0.5" x2="26.259" y2="0.5" xlink:href="#linear-gradient-8"/>
    <linearGradient id="linear-gradient-15" x1="36.1" y1="0.5" x2="37.1" y2="0.5" xlink:href="#linear-gradient-8"/>
    <linearGradient id="linear-gradient-16" x1="0.507" y1="0.66" x2="0.481" y2="0.178" xlink:href="#linear-gradient-8"/>
    <clipPath id="clip-People_3">
      <rect width="266" height="224"/>
    </clipPath>
  </defs>
  <g id="People_3" data-name="People – 3" clip-path="url(#clip-People_3)">
    <g id="People" transform="translate(-276.822 -101.496)">
      <g id="Group_73" data-name="Group 73" transform="translate(276.822 101.982)">
        <path id="Path_10" data-name="Path 10" d="M490.583,334.477c-.069.137-.139.273-.212.406H345.512a21.517,21.517,0,0,1-4.776-12.794q-.069-1.979-.2-3.957A118.215,118.215,0,0,0,333,282.906c-4.181-10.753-13.207-20.378-11.965-32.583,1.692-18.871,21.411-22.3,33.78-31.8a33.118,33.118,0,0,0,3.973-4.149,60.951,60.951,0,0,0,6.2-9.8c3.942-12.005,7.323-24.585,16.338-33.734,7.888-8,20.284-8,29.076-1.764a44.532,44.532,0,0,1,6.519,5.468c26.457,26.548,12.935,43.554,53.5,42.66,25.565-.566,14.777,40.881,12.734,55.478-1.446,10.316-3.385,20.963-1.411,31.345a44.792,44.792,0,0,0,5.661,14.1c.047.082.093.168.143.249C490.375,323.275,493.379,328.848,490.583,334.477Z" transform="translate(-291.538 -134.103)" fill="#dae3ef"/>
        <g id="Group_41" data-name="Group 41" transform="translate(199.617 104.197)">
          <g id="Group_2961" data-name="Group 2961" transform="translate(0 0)">
            <g id="Group_39" data-name="Group 39">
              <g id="Group_38" data-name="Group 38">
                <g id="Group_37" data-name="Group 37">
                  <path id="Path_11" data-name="Path 11" d="M626.171,355.452c-19.422,12.444-16.817,27.21-23.173,25.99a3.749,3.749,0,0,1-.885-.271c-4.6-2.071.45-12.613-10.543-31.709-6.946-12.087-20.427-34.079-12.936-41.178,6.416-6.071,14.274,13.661,23.839,5.725,6.954-5.766-11.342-13.986-6.04-20.654,5.872-7.384,14.085,7.407,18.2-.3s-1.217-21.767,6.6-21.562c.123,0,.243.015.352.025,7.427.55,6.648,12.146,5.765,19.721-.9,7.7-1.677,9.965.708,10.05s11.547-7.128,14.584-.382-14.593,15.344-16.02,25.147,13.11-2.957,14.028,6.762C641.176,338.4,635.822,349.28,626.171,355.452Z" transform="translate(-576.435 -271.488)" fill="#98ca59"/>
                  <path id="Path_12" data-name="Path 12" d="M639.155,345.1l-21.414,10.381,4.435-25.642.018.024,15.076-12.33-14.717,10.132,5.18-29.946L623.846,315.1l-10.169-6.528,9.8,8.163-5.929,26.516-22.191-12.884L617.206,344.8l-7.347,33.424,3.157.625,4.4-21.5Z" transform="translate(-582.751 -280.243)" fill="#dae3ef"/>
                </g>
              </g>
            </g>
          </g>
        </g>
        <g id="Group_48" data-name="Group 48" transform="translate(95.284)">
          <g id="Group_44" data-name="Group 44">
            <g id="Group_42" data-name="Group 42">
              <path id="Path_15" data-name="Path 15" d="M564.31,136.193v22.2H419.838v-22.2a17.368,17.368,0,0,1,17.368-17.368H546.943A17.368,17.368,0,0,1,564.31,136.193Z" transform="translate(-419.838 -118.825)" fill="url(#linear-gradient)"/>
              <path id="Path_16" data-name="Path 16" d="M619.282,136.193v27.338H584.547V136.193a17.368,17.368,0,0,1,17.368-17.368h0A17.368,17.368,0,0,1,619.282,136.193Z" transform="translate(-474.81 -118.825)" fill="#dae3ef"/>
            </g>
            <g id="Group_43" data-name="Group 43" transform="translate(0 156.075)">
              <path id="Path_17" data-name="Path 17" d="M564.31,379.265v-22.2H419.838v22.2a17.368,17.368,0,0,0,17.368,17.367H546.943A17.367,17.367,0,0,0,564.31,379.265Z" transform="translate(-419.838 -351.927)" fill="url(#linear-gradient-2)"/>
              <path id="Path_18" data-name="Path 18" d="M619.282,376.691V349.353H584.547v27.338a17.368,17.368,0,0,0,17.368,17.367h0A17.367,17.367,0,0,0,619.282,376.691Z" transform="translate(-474.81 -349.353)" fill="#dae3ef"/>
            </g>
            <rect id="Rectangle_3" data-name="Rectangle 3" width="109.742" height="158.213" transform="translate(0 18.035)" fill="#f0f5f7"/>
          </g>
          <text id="Конфиденциальность" transform="translate(17.955 28.213)" fill="#849bad" font-size="1" font-family="SegoeUI-Semibold, Segoe UI" font-weight="600"><tspan x="0" y="0">Конфиденциальность</tspan></text>
          <g id="Group_45" data-name="Group 45" transform="translate(5.995 50.786)">
            <rect id="Rectangle_4" data-name="Rectangle 4" width="75.107" height="1.711" transform="translate(21.867)" fill="#c3d3dd"/>
            <rect id="Rectangle_5" data-name="Rectangle 5" width="96.973" height="1.711" transform="translate(0 6.935)" fill="#c3d3dd"/>
            <rect id="Rectangle_6" data-name="Rectangle 6" width="96.973" height="1.711" transform="translate(0 13.871)" fill="#c3d3dd"/>
            <rect id="Rectangle_7" data-name="Rectangle 7" width="96.973" height="1.711" transform="translate(0 20.807)" fill="#c3d3dd"/>
            <rect id="Rectangle_8" data-name="Rectangle 8" width="96.973" height="1.711" transform="translate(0 27.742)" fill="#c3d3dd"/>
            <rect id="Rectangle_9" data-name="Rectangle 9" width="96.973" height="1.711" transform="translate(0 34.677)" fill="#c3d3dd"/>
            <rect id="Rectangle_10" data-name="Rectangle 10" width="96.973" height="1.711" transform="translate(0 41.613)" fill="#c3d3dd"/>
            <rect id="Rectangle_11" data-name="Rectangle 11" width="96.973" height="1.711" transform="translate(0 48.549)" fill="#c3d3dd"/>
            <rect id="Rectangle_12" data-name="Rectangle 12" width="86.04" height="1.711" transform="translate(0 55.484)" fill="#c3d3dd"/>
            <rect id="Rectangle_13" data-name="Rectangle 13" width="96.973" height="1.711" transform="translate(0 62.42)" fill="#c3d3dd"/>
            <rect id="Rectangle_14" data-name="Rectangle 14" width="96.973" height="1.712" transform="translate(0 69.355)" fill="#c3d3dd"/>
            <rect id="Rectangle_15" data-name="Rectangle 15" width="96.973" height="1.711" transform="translate(0 76.29)" fill="#c3d3dd"/>
            <rect id="Rectangle_16" data-name="Rectangle 16" width="96.973" height="1.711" transform="translate(0 83.226)" fill="#c3d3dd"/>
            <rect id="Rectangle_17" data-name="Rectangle 17" width="96.973" height="1.711" transform="translate(0 90.161)" fill="#c3d3dd"/>
            <rect id="Rectangle_18" data-name="Rectangle 18" width="23.655" height="1.711" transform="translate(73.318 116.045)" fill="#c3d3dd"/>
            <path id="Path_19" data-name="Path 19" d="M544.366,351.132a2.273,2.273,0,0,1,.028-1.814,1.388,1.388,0,0,1,1.553-.74,1.938,1.938,0,0,1,1.069,1.859,5.235,5.235,0,0,0,.309,2.242,2.245,2.245,0,0,0,.613.7,1.744,1.744,0,0,0,.941.392,1.988,1.988,0,0,0,1.48-.743,4.7,4.7,0,0,0,1.132-2.079,9.389,9.389,0,0,0,.207-1.755q.12-2.219.241-4.438a11.837,11.837,0,0,0-.583,4.35,18.657,18.657,0,0,0,.6,6.006c.067.2.172.433.381.478a.575.575,0,0,0,.49-.219,3.762,3.762,0,0,0,.909-2.487c.049-.9-.052-1.81.057-2.706a9.8,9.8,0,0,0,.314,3.522,3.413,3.413,0,0,0,1.531-3.706,12,12,0,0,0,.648,3.36.326.326,0,0,0,.154.214.3.3,0,0,0,.249-.049,2.534,2.534,0,0,0,1.129-1.882,10.843,10.843,0,0,0-.044-2.267,31.983,31.983,0,0,1,.175-4.843q-.1,5.666-.017,11.333-5.915-.215-11.838-.092a3.469,3.469,0,0,0-1.146.153" transform="translate(-467.336 -243.418)" fill="none" stroke="#849bad" stroke-linecap="round" stroke-linejoin="round" stroke-width="0.25"/>
          </g>
          <g id="Group_47" data-name="Group 47" transform="translate(10.551 153.709)" opacity="0.3">
            <g id="Group_46" data-name="Group 46" transform="translate(3.763 3.762)">
              <path id="Path_20" data-name="Path 20" d="M449.688,368.182a8.367,8.367,0,1,1,8.367-8.367A8.376,8.376,0,0,1,449.688,368.182Zm0-14.547a6.18,6.18,0,1,0,6.18,6.18A6.187,6.187,0,0,0,449.688,353.635Z" transform="translate(-441.322 -351.448)" fill="url(#linear-gradient-3)"/>
            </g>
            <circle id="Ellipse_1" data-name="Ellipse 1" cx="9.27" cy="9.27" r="9.27" transform="translate(0 7.155) rotate(-22.703)" fill="none" stroke="#8d8d8d" stroke-miterlimit="10" stroke-width="0.25"/>
            <path id="Path_21" data-name="Path 21" d="M456.228,361.649a4.706,4.706,0,1,1-4.706-4.706A4.707,4.707,0,0,1,456.228,361.649Z" transform="translate(-439.393 -349.52)" fill="url(#linear-gradient-3)"/>
          </g>
        </g>
        <ellipse id="Ellipse_2" data-name="Ellipse 2" cx="38.076" cy="6.08" rx="38.076" ry="6.08" transform="translate(21.337 211.841)" fill="#71d26f"/>
        <g id="Group_61" data-name="Group 61" transform="translate(0 49.302)">
          <g id="Group_60" data-name="Group 60">
            <path id="Path_22" data-name="Path 22" d="M329.533,250.517a3.489,3.489,0,0,0-.281,3.4c2.184,5.194,10.114,23.647,12.549,23.672,2.835.029-7.423-27.248-8.893-27.571C331.805,249.771,330.5,249.187,329.533,250.517Z" transform="translate(-294.218 -209.312)" fill="#f2bc97"/>
            <path id="Path_23" data-name="Path 23" d="M348.247,230.157a2.816,2.816,0,0,0-3.006-.056c-4.219,2.389-18.228,10.627-16.7,13.87,1.8,3.814,13.795-4.236,16.973-7.008C348.165,234.655,350.373,231.672,348.247,230.157Z" transform="translate(-294.045 -202.644)" fill="#f2bc97"/>
            <path id="Path_24" data-name="Path 24" d="M348.536,227.886l-11.646,8.168,4.61,7.117,8.249-6.227Z" transform="translate(-296.87 -202.04)" fill="url(#linear-gradient-5)"/>
            <g id="Group_50" data-name="Group 50" transform="translate(23.022 34.151)">
              <g id="Group_49" data-name="Group 49" transform="translate(8.217)">
                <path id="Path_25" data-name="Path 25" d="M368.559,257.763l4.077.2L327.75,240.535a2.7,2.7,0,0,0-3.491,1.538l-.548,1.413,1.2.467.548-1.412a1.408,1.408,0,0,1,1.82-.8Z" transform="translate(-323.711 -240.352)" fill="url(#linear-gradient-6)"/>
              </g>
              <path id="Path_26" data-name="Path 26" d="M319.194,254.866l109.644,42.565,8.383,2.909,4.154-10.7-8.15-3.51L323.582,243.564a1.168,1.168,0,0,0-1.512.666l-3.542,9.124A1.167,1.167,0,0,0,319.194,254.866Z" transform="translate(-313.737 -241.398)" fill="url(#linear-gradient-7)"/>
              <path id="Rectangle_19" data-name="Rectangle 19" d="M0,0H8.082a0,0,0,0,1,0,0V4.906a.566.566,0,0,1-.566.566H.567A.567.567,0,0,1,0,4.905V0A0,0,0,0,1,0,0Z" transform="matrix(-0.362, 0.932, -0.932, -0.362, 8.026, 3.628)" fill="url(#linear-gradient-8)"/>
              <path id="Path_27" data-name="Path 27" d="M525.75,331.243l2.841.475-2.417-1.567Z" transform="translate(-382.924 -270.323)" fill="url(#linear-gradient-9)"/>
              <path id="Path_28" data-name="Path 28" d="M496.688,323.409l19.306,2.2.537-1.384-15.731-11.4Z" transform="translate(-373.225 -264.537)" fill="url(#linear-gradient-10)"/>
            </g>
            <g id="Group_51" data-name="Group 51" transform="translate(47.651 62.442)">
              <path id="Path_29" data-name="Path 29" d="M349.034,283.169c-1.712.92.211,3.694.9,4.615,1.125,1.5,3.576,2.405,4.179,1.969s-2.16-3.7-2.106-3.915,1.551,1.244,2.075.777-1.209-2.654-2.235-3.253A2.475,2.475,0,0,0,349.034,283.169Z" transform="translate(-348.343 -282.814)" fill="#f2bc97"/>
            </g>
            <path id="Path_30" data-name="Path 30" d="M371.856,357.423c-9.206-4.767-3.809,37.589-.444,48.153s4.153-.979,4.164-18.48S375.479,359.3,371.856,357.423Z" transform="translate(-306.836 -245.149)" fill="#f2bc97"/>
            <path id="Path_31" data-name="Path 31" d="M371.965,425.493l-1.434-6.948,6.364-.133-.374,8.1Z" transform="translate(-308.098 -265.628)" fill="#f2bc97"/>
            <path id="Path_32" data-name="Path 32" d="M325.014,351.65c-2.967-11.369-34.594,17.488-40.948,26.591s3.977,3.374,18.746-6.432S326.181,356.124,325.014,351.65Z" transform="translate(-278.602 -242.474)" fill="#f2bc97"/>
            <path id="Path_33" data-name="Path 33" d="M363.872,305.595c.593,15.762,3.758,28.44,7.068,28.315s5.513-13,4.92-28.766-3.758-28.439-7.068-28.315S363.279,289.832,363.872,305.595Z" transform="translate(-305.843 -218.375)" fill="#f2bc97"/>
            <path id="Path_34" data-name="Path 34" d="M339.789,293.5c-3.162,15.454-3.094,28.519.152,29.183s8.439-11.326,11.6-26.779,3.093-28.52-.152-29.183S342.95,278.046,339.789,293.5Z" transform="translate(-297.06 -214.993)" fill="#f2bc97"/>
            <path id="Path_35" data-name="Path 35" d="M387.168,234.753a2.911,2.911,0,0,1,2.475,1.8c1.968,4.485,9.806,22.452,6.587,24.087-3.784,1.923-10.1-14.658-10.993-18.808C384.494,238.374,384.52,234.651,387.168,234.753Z" transform="translate(-312.866 -204.331)" fill="#f2bc97"/>
            <path id="Path_36" data-name="Path 36" d="M396.608,254.89l3.209,8.521,6.346,6.916L400,272.145a57.993,57.993,0,0,1-4.706-4.848c-.891-1.284-4.493-8.664-4.493-8.664Z" transform="translate(-314.861 -211.053)" fill="#f2bc97"/>
            <g id="Group_52" data-name="Group 52" transform="translate(81.146 52.942)">
              <path id="Path_37" data-name="Path 37" d="M398.719,270.371a3.707,3.707,0,0,0,1.047,3.468c4.185,4.285,19.223,19.442,21.641,18.516,2.815-1.077-17.965-24.051-19.546-23.8C400.675,268.748,399.162,268.678,398.719,270.371Z" transform="translate(-398.617 -268.556)" fill="#f2bc97"/>
              <path id="Path_38" data-name="Path 38" d="M430.757,304.18a12.336,12.336,0,0,1-1.456-1.293c-.955-.987-1.742-2.251-.789-3.17a2.6,2.6,0,0,1,2.925-.61c1.223.311,3.636,2.053,3.228,2.676s-2.35-.428-2.343-.189a.639.639,0,0,0,.045.075c.421.463,3.692,2.733,3.236,3.323C435.109,305.6,432.337,305.39,430.757,304.18Z" transform="translate(-408.45 -278.69)" fill="#f2bc97"/>
            </g>
            <line id="Line_3" data-name="Line 3" x1="0.89" y2="6.955" transform="translate(66.87 20.185)" fill="#f2bc97"/>
            <path id="Path_39" data-name="Path 39" d="M376.353,217.85l-2.993-3.073-1.345,8.614s2.68,2.627,2.761,2.345.93-2.346.93-2.346" transform="translate(-308.593 -197.665)" fill="#f2bc97"/>
            <g id="Group_53" data-name="Group 53" transform="translate(46.573 24.044)">
              <path id="Path_40" data-name="Path 40" d="M374,238.522v.015c-.029.292-.073.57-.132.876-.043.22-.087.439-.131.672-.015.1-.044.19-.058.292-.029.146-.073.277-.1.409-.015.073-.029.131-.044.19a21.4,21.4,0,0,1-.73,2.337c-.219.584-.438,1.124-.657,1.68a25.1,25.1,0,0,0-1.8,6.369c-.891,5.754-1.3,8.676-1.3,8.676a51.144,51.144,0,0,1-22.319-2.965s.059-.205.146-.584c.526-2.206,2.352-10.386,1.782-17-.059-.628-.131-1.241-.234-1.826-1.329-7.888,3.243-13.833,11.978-12.212a54.078,54.078,0,0,1,7.946,1.855,6.632,6.632,0,0,1,3.769,2.906A11.6,11.6,0,0,1,374,238.522Z" transform="translate(-346.725 -225.181)" fill="url(#linear-gradient-11)"/>
            </g>
            <path id="Path_41" data-name="Path 41" d="M385.316,248.026c-.015.073-.029.131-.044.19a21.377,21.377,0,0,1-.73,2.337c-.219.584-.438,1.124-.657,1.68a18.289,18.289,0,0,0-1.972-5.361Z" transform="translate(-311.896 -208.377)" fill="#d8d0bc" opacity="0.5" style="mix-blend-mode: multiply;isolation: isolate"/>
            <g id="Group_54" data-name="Group 54" transform="translate(46.717 36.723)" opacity="0.5" style="mix-blend-mode: multiply;isolation: isolate">
              <path id="Path_42" data-name="Path 42" d="M346.941,262.846c.529-2.209,2.354-10.39,1.781-17l2.684-1.631S349.246,257.212,346.941,262.846Z" transform="translate(-346.941 -244.212)" fill="#d8d0bc"/>
            </g>
            <path id="Path_43" data-name="Path 43" d="M385.419,200.8l-10.965-4.773.955,16.829s1.867,1.895,5.743-1.221,4.267-10.836,4.267-10.836" transform="translate(-309.407 -191.406)" fill="#f2bc97"/>
            <path id="Path_44" data-name="Path 44" d="M360.3,190.375s-4.876-.566-7.319,2.824-1.57,10.254-5.387,11.375c-.381.113-.806.221-1.26.335-4.486,1.126-.674,3.732-4.98,5.561-3.839,1.63-3.6,4.064-2.887,8.521.253,1.582.4,7.187,6.808,6.888,3.986-.186,8.248-.921,11.605-3.213a11.889,11.889,0,0,0,4.142-5.481c.864-2.139.981-4.613,2.359-6.526,1.237-1.716,3.766-2.313,4.513-4.415.474-1.335-1.391-3.011.59-4.542s5.14-2.517,5.164-3.809.253-5.237-4.977-7.742S360.3,190.375,360.3,190.375Z" transform="translate(-297.255 -189.093)" fill="url(#linear-gradient-12)"/>
            <g id="Group_55" data-name="Group 55" transform="translate(67.864 26.077)">
              <path id="Path_45" data-name="Path 45" d="M393.349,246.065l-7.131,4.777L380.8,240.647l-2.121-12.414.325.093s6.032,1.7,8.71,4.619C390.069,235.511,393.349,246.065,393.349,246.065Z" transform="translate(-378.681 -228.233)" fill="url(#linear-gradient-13)"/>
            </g>
            <g id="Group_57" data-name="Group 57" transform="translate(63.566 159.865)">
              <g id="Group_56" data-name="Group 56">
                <path id="Path_46" data-name="Path 46" d="M377.342,429.33a30.782,30.782,0,0,0,5.159,4.845c3.544,2.748,4.485,2.17,4.556,3.182s-14.826,0-14.826,0l.3-8.317S377.342,429.112,377.342,429.33Z" transform="translate(-372.231 -429.04)" fill="url(#linear-gradient-14)"/>
              </g>
            </g>
            <g id="Group_59" data-name="Group 59" transform="translate(0 134.733)">
              <g id="Group_58" data-name="Group 58">
                <path id="Path_47" data-name="Path 47" d="M286.172,395.023a30.778,30.778,0,0,0,0,7.078c.422,4.465,1.487,4.754.8,5.5s-10.148-10.809-10.148-10.809l6.269-5.473S286.331,394.875,286.172,395.023Z" transform="translate(-276.822 -391.319)" fill="url(#linear-gradient-15)"/>
              </g>
            </g>
          </g>
          <path id="Path_48" data-name="Path 48" d="M352.011,279.341s2.584,14.991,2.275,37.73-2.088,53.987-2.088,53.987-6.685.365-6.728.1c-5.6-33.516-2.166-41.173-2.166-41.173l-5.466-26.581s-3.2,20.057-5.982,25.008-30.783,24.235-30.783,24.235l-5.311-7.58c9.9-10.88,26.349-21.656,26.349-21.656s-3.971-34.547,6.651-47.644" transform="translate(-283.143 -218.021)" fill="url(#linear-gradient-16)"/>
          <path id="Path_49" data-name="Path 49" d="M368.436,278.43a103.154,103.154,0,0,1-23.46-3.052,14.176,14.176,0,0,1,1.164-2.339L368.3,275.79S368.349,276.751,368.436,278.43Z" transform="translate(-299.568 -217.11)" fill="#072f56"/>
        </g>
        <g id="Group_64" data-name="Group 64" transform="translate(232.455 65.678)">
          <g id="Group_62" data-name="Group 62">
            <path id="Path_50" data-name="Path 50" d="M642.363,223.732l-3.394,14.633-13.246-3.073,4.432-19.1,8.775,2.036Z" transform="translate(-625.723 -216.189)" fill="#dae3ef"/>
            <path id="Path_51" data-name="Path 51" d="M643.99,223.715l4.47,1.037-3.434-5.507Z" transform="translate(-631.82 -217.209)" fill="#e9eef4"/>
          </g>
          <g id="Group_63" data-name="Group 63" transform="translate(3.003 7.375)">
            <rect id="Rectangle_20" data-name="Rectangle 20" width="10.793" height="0.553" transform="translate(1.157 0) rotate(13.06)" fill="#f9fbfc"/>
            <rect id="Rectangle_21" data-name="Rectangle 21" width="10.793" height="0.554" transform="translate(0.641 2.224) rotate(13.06)" fill="#f9fbfc"/>
            <rect id="Rectangle_22" data-name="Rectangle 22" width="10.793" height="0.554" transform="matrix(0.974, 0.226, -0.226, 0.974, 0.125, 4.448)" fill="#f9fbfc"/>
          </g>
        </g>
        <g id="Group_72" data-name="Group 72" transform="translate(179.888 61.007)">
          <g id="Path_56" data-name="Path 56" transform="translate(-546.823 -209.039)" fill="#2bbf05" stroke-miterlimit="10">
            <path d="M 571.7098388671875 267.0058898925781 L 571.3028564453125 267.0058898925781 L 571.2950439453125 267.0058898925781 L 570.6795043945313 267.0058898925781 L 570.3048095703125 266.7579650878906 C 564.4947509765625 264.304443359375 559.5333251953125 260.1707763671875 555.5570068359375 254.4699554443359 C 552.4048461914063 249.9507141113281 549.86669921875 244.4430694580078 548.01318359375 238.1000061035156 C 544.8841552734375 227.3922882080078 544.7801513671875 218.0754699707031 544.7772827148438 217.6840972900391 L 544.7664794921875 216.2248229980469 L 546.1427612304688 215.7395782470703 L 570.5476684570313 207.1349792480469 L 570.5604858398438 207.1304473876953 L 570.5733642578125 207.1260986328125 L 570.6483154296875 207.1007995605469 L 571.3171997070313 206.8749084472656 L 571.9830322265625 207.1096343994141 L 596.463134765625 215.7395477294922 L 597.8397827148438 216.2248687744141 L 597.8286743164063 217.6845397949219 C 597.82568359375 218.0766143798828 597.719482421875 227.4100799560547 594.579833984375 238.1305847167969 C 592.719970703125 244.4813385009766 590.173828125 249.9936981201172 587.01220703125 254.5145111083984 C 582.9927368164063 260.2618408203125 577.9708251953125 264.4121398925781 572.0858154296875 266.85009765625 L 571.7098388671875 267.0058898925781 Z" stroke="none"/>
            <path d="M 571.3028564453125 209.0390625 L 571.2279052734375 209.0643615722656 L 546.822998046875 217.6689453125 C 546.822998046875 217.6689453125 547.0982666015625 254.8690032958984 571.2279052734375 264.9266967773438 C 571.2530517578125 264.9346923828125 571.269775390625 264.943359375 571.2950439453125 264.9600830078125 L 571.3028564453125 264.9600830078125 C 595.4991455078125 254.936279296875 595.782958984375 217.6689453125 595.782958984375 217.6689453125 L 571.3028564453125 209.0390625 M 571.331787109375 204.7108764648438 L 572.6632080078125 205.1802368164063 L 597.143310546875 213.8101196289063 L 599.8966674804688 214.7807312011719 L 599.8744506835938 217.7001037597656 C 599.871337890625 218.1038208007813 599.7621459960938 227.7142028808594 596.5431518554688 238.7055511474609 C 594.6206665039063 245.2701568603516 591.97802734375 250.9835357666016 588.6886596679688 255.6869506835938 C 584.4422607421875 261.7588500976563 579.1196899414063 266.1505737304688 572.8688354492188 268.7401733398438 L 572.1168212890625 269.0516662597656 L 571.3028564453125 269.0516662597656 L 571.2950439453125 269.0516662597656 L 570.0630493164063 269.0516662597656 L 569.3308715820313 268.5668029785156 C 563.23681640625 265.9523315429688 558.0391845703125 261.604736328125 553.8790283203125 255.6403045654297 C 550.5996704101563 250.9386749267578 547.9654541015625 245.2303161621094 546.0494995117188 238.673828125 C 542.8414306640625 227.6955718994141 542.7344970703125 218.1022186279297 542.7315063476563 217.69921875 L 542.7098999023438 214.7806701660156 L 545.4624633789063 213.8101806640625 L 569.8673706054688 205.2055969238281 L 569.893310546875 205.1964416503906 L 569.9193115234375 205.1876831054688 L 569.9942626953125 205.1623840332031 L 571.331787109375 204.7108764648438 Z" stroke="none" fill="#f9fbfc"/>
          </g>
          <path id="Path_57" data-name="Path 57" d="M571.228,209.077v55.862c-24.13-10.058-24.4-47.258-24.4-47.258Z" transform="translate(-546.823 -209.052)" fill="#7a76fd" opacity="0.2" style="mix-blend-mode: multiply;isolation: isolate"/>
          <g id="Group_71" data-name="Group 71" transform="translate(10.563 16.412)">
            <path id="Path_58" data-name="Path 58" d="M574.439,254.014l-11.007-9.146a2.086,2.086,0,1,1,2.666-3.209l8.122,6.747,14.547-14.143a2.087,2.087,0,1,1,2.91,2.993Z" transform="translate(-562.678 -233.672)" fill="#fefefe"/>
          </g>
        </g>
      </g>
    </g>
  </g>
</svg>
