<svg xmlns="http://www.w3.org/2000/svg" width="144.68" height="224" viewBox="0 0 144.68 224">
  <g id="Group_2286" data-name="Group 2286" transform="translate(-96.289 -89.235)">
    <g id="Group_2238" data-name="Group 2238" transform="translate(96.289 89.235)">
      <g id="Group_2237" data-name="Group 2237">
        <g id="Group_2234" data-name="Group 2234" transform="translate(30.3)">
          <path id="Path_883" data-name="Path 883" d="M151.566,98.224,125.8,141.288l18.31,10.058,30.64-54.611Z" transform="translate(-125.805 -89.124)" fill="#5bac46"/>
          <path id="Path_884" data-name="Path 884" d="M151.19,98.336s12.676,1.41,21.527,16.7,12.676,22.332,12.676,22.332l-11.674,8.862,29.99,4.017,8.649-25.153L201.9,127.717s-15.087-25.958-18.316-30.389-11.467-9.253-19.714-7.843S152.595,95.717,151.19,98.336Z" transform="translate(-125.429 -89.235)" fill="#5bac46"/>
        </g>
        <g id="Group_2235" data-name="Group 2235" transform="translate(70.507 55.924)">
          <path id="Path_885" data-name="Path 885" d="M236.493,188.952l-22.982-44.609L195.3,154.592l30.215,54.845Z" transform="translate(-164.668 -144.343)" fill="#5bac46"/>
          <path id="Path_886" data-name="Path 886" d="M236.94,188.39s-7.9,10.024-25.561,9.476-25.655-1.019-25.655-1.019l-1.365-14.589L165.115,205.6,181.92,226.23l3.3-10.272s30.013.874,35.473.481,13.913-4.844,17.079-12.6S238.422,190.974,236.94,188.39Z" transform="translate(-165.115 -143.781)" fill="#5bac46"/>
        </g>
        <g id="Group_2236" data-name="Group 2236" transform="translate(0 58.06)">
          <path id="Path_887" data-name="Path 887" d="M114.39,216.843l50.158,1.544-.118-20.9-62.622-.179Z" transform="translate(-96.207 -145.695)" fill="#5bac46"/>
          <path id="Path_888" data-name="Path 888" d="M114.471,217.6s-4.928-11.759,4.112-26.942c9.057-15.171,13.348-21.929,13.348-21.929l13.415,5.874L134.27,146.448l-26.193,4.688L115.456,159s-15.329,25.812-17.621,30.779-2.513,14.523,2.735,21.046S111.5,217.651,114.471,217.6Z" transform="translate(-96.289 -146.448)" fill="#5bac46"/>
        </g>
      </g>
    </g>
    <ellipse id="Ellipse_77" data-name="Ellipse 77" cx="51.763" cy="13.904" rx="51.763" ry="13.904" transform="translate(116.731 285.427)" fill="#71d26f"/>
    <g id="Group_2285" data-name="Group 2285" transform="translate(119.318 107.929)">
      <g id="Group_2249" data-name="Group 2249" transform="translate(65.725 104.355)">
        <g id="Group_2244" data-name="Group 2244">
          <g id="Group_2241" data-name="Group 2241" transform="translate(0.563)">
            <g id="Group_2240" data-name="Group 2240">
              <g id="Group_2239" data-name="Group 2239">
                <path id="Path_889" data-name="Path 889" d="M185.119,232.517a14.818,14.818,0,0,1-.127-1.849v-5.014a14.871,14.871,0,0,1,29.742,0v5.014a15.022,15.022,0,0,1-.127,1.849h1.025a15.891,15.891,0,0,0,.117-1.849v-5.014a15.886,15.886,0,0,0-31.772,0v5.014a15.9,15.9,0,0,0,.117,1.849Z" transform="translate(-183.977 -209.768)" fill="#abddd2"/>
              </g>
            </g>
          </g>
          <g id="Group_2243" data-name="Group 2243" transform="translate(0 21.312)">
            <g id="Group_2242" data-name="Group 2242" transform="translate(1.208 1.353)">
              <path id="Path_890" data-name="Path 890" d="M211.358,267.194H188.624q-2-17.547-4.012-35.092H215.37Q213.365,249.647,211.358,267.194Z" transform="translate(-184.612 -232.102)" fill="#5bac46"/>
            </g>
            <path id="Path_891" data-name="Path 891" d="M216.319,232.333c0,.864-.511,1.565-1.142,1.565H184.564c-.63,0-1.142-.7-1.142-1.565h0c0-.864.511-1.564,1.142-1.564h30.614c.63,0,1.142.7,1.142,1.564Z" transform="translate(-183.422 -230.769)" fill="#265f20"/>
          </g>
        </g>
        <g id="Group_2248" data-name="Group 2248" transform="translate(10.208 32.343)">
          <g id="Group_2245" data-name="Group 2245" transform="translate(2.653)">
            <path id="Path_892" data-name="Path 892" d="M198.377,242.436,196.1,246.25l1.622.891,2.714-4.837Z" transform="translate(-196.096 -241.629)" fill="#fff"/>
            <path id="Path_893" data-name="Path 893" d="M198.344,242.446a2.787,2.787,0,0,1,1.907,1.48c.784,1.355,1.123,1.978,1.123,1.978l-1.035.784,2.657.356.766-2.227-.927.231s-1.337-2.3-1.623-2.691a1.931,1.931,0,0,0-1.745-.7A1.443,1.443,0,0,0,198.344,242.446Z" transform="translate(-196.062 -241.639)" fill="#fff"/>
          </g>
          <g id="Group_2246" data-name="Group 2246" transform="translate(6.187 4.954)">
            <path id="Path_894" data-name="Path 894" d="M205.9,250.472l-2.036-3.951-1.613.908,2.676,4.858Z" transform="translate(-199.538 -246.52)" fill="#fff"/>
            <path id="Path_895" data-name="Path 895" d="M205.94,250.422a2.791,2.791,0,0,1-2.264.839c-1.564-.049-2.272-.09-2.272-.09l-.122-1.292-1.7,2.067,1.488,1.828.292-.91s2.659.078,3.142.043a1.931,1.931,0,0,0,1.513-1.115A1.453,1.453,0,0,0,205.94,250.422Z" transform="translate(-199.578 -246.471)" fill="#fff"/>
          </g>
          <g id="Group_2247" data-name="Group 2247" transform="translate(0 5.143)">
            <path id="Path_896" data-name="Path 896" d="M195.085,252.942l4.443.137-.01-1.851-5.547-.016Z" transform="translate(-193.474 -246.64)" fill="#fff"/>
            <path id="Path_897" data-name="Path 897" d="M195.091,253.009a2.8,2.8,0,0,1,.364-2.387c.8-1.344,1.182-1.942,1.182-1.942l1.188.521-.981-2.493-2.32.415.654.7s-1.358,2.286-1.561,2.726a1.933,1.933,0,0,0,.243,1.864A1.442,1.442,0,0,0,195.091,253.009Z" transform="translate(-193.481 -246.707)" fill="#fff"/>
          </g>
        </g>
      </g>
      <g id="Group_2259" data-name="Group 2259" transform="translate(0 104.355)">
        <g id="Group_2254" data-name="Group 2254">
          <g id="Group_2250" data-name="Group 2250" transform="translate(0.562)">
            <path id="Path_898" data-name="Path 898" d="M120.352,232.517a15.017,15.017,0,0,1-.127-1.849v-5.014a14.872,14.872,0,0,1,29.743,0v5.014a14.821,14.821,0,0,1-.128,1.849h1.025a15.891,15.891,0,0,0,.118-1.849v-5.014a15.886,15.886,0,0,0-31.773,0v5.014a15.893,15.893,0,0,0,.117,1.849Z" transform="translate(-119.21 -209.768)" fill="#abddd2"/>
          </g>
          <g id="Group_2253" data-name="Group 2253" transform="translate(0 21.312)">
            <g id="Group_2252" data-name="Group 2252" transform="translate(1.208 1.353)">
              <g id="Group_2251" data-name="Group 2251">
                <path id="Path_899" data-name="Path 899" d="M146.591,267.194H123.858q-2.006-17.547-4.012-35.092H150.6Q148.6,249.647,146.591,267.194Z" transform="translate(-119.846 -232.102)" fill="#5bac46"/>
              </g>
            </g>
            <path id="Path_900" data-name="Path 900" d="M151.552,232.333c0,.864-.511,1.565-1.142,1.565H119.8c-.63,0-1.142-.7-1.142-1.565h0c0-.864.511-1.564,1.142-1.564H150.41c.63,0,1.142.7,1.142,1.564Z" transform="translate(-118.656 -230.769)" fill="#265f20"/>
          </g>
        </g>
        <g id="Group_2258" data-name="Group 2258" transform="translate(10.207 32.343)">
          <g id="Group_2255" data-name="Group 2255" transform="translate(2.653)">
            <path id="Path_901" data-name="Path 901" d="M133.611,242.436l-2.282,3.814,1.622.891,2.714-4.837Z" transform="translate(-131.329 -241.629)" fill="#fff"/>
            <path id="Path_902" data-name="Path 902" d="M133.578,242.446a2.789,2.789,0,0,1,1.907,1.48c.783,1.355,1.122,1.978,1.122,1.978l-1.034.784,2.657.356.766-2.227-.928.231s-1.337-2.3-1.622-2.691a1.933,1.933,0,0,0-1.746-.7A1.439,1.439,0,0,0,133.578,242.446Z" transform="translate(-131.296 -241.639)" fill="#fff"/>
          </g>
          <g id="Group_2256" data-name="Group 2256" transform="translate(6.187 4.954)">
            <path id="Path_903" data-name="Path 903" d="M141.133,250.472,139.1,246.52l-1.613.908,2.676,4.858Z" transform="translate(-134.771 -246.52)" fill="#fff"/>
            <path id="Path_904" data-name="Path 904" d="M141.173,250.422a2.791,2.791,0,0,1-2.264.839c-1.564-.049-2.272-.09-2.272-.09l-.121-1.292-1.7,2.067,1.489,1.828.291-.91s2.659.078,3.143.043a1.929,1.929,0,0,0,1.512-1.115A1.45,1.45,0,0,0,141.173,250.422Z" transform="translate(-134.811 -246.471)" fill="#fff"/>
          </g>
          <g id="Group_2257" data-name="Group 2257" transform="translate(0 5.143)">
            <path id="Path_905" data-name="Path 905" d="M130.318,252.942l4.443.137-.01-1.851-5.547-.016Z" transform="translate(-128.707 -246.64)" fill="#fff"/>
            <path id="Path_906" data-name="Path 906" d="M130.326,253.009a2.8,2.8,0,0,1,.364-2.387c.8-1.344,1.182-1.942,1.182-1.942l1.188.521-.981-2.493-2.32.415.654.7s-1.358,2.286-1.561,2.726a1.93,1.93,0,0,0,.242,1.864A1.443,1.443,0,0,0,130.326,253.009Z" transform="translate(-128.714 -246.707)" fill="#fff"/>
          </g>
        </g>
      </g>
      <g id="Group_2284" data-name="Group 2284" transform="translate(13.787 7.93)">
        <g id="Group_2264" data-name="Group 2264" transform="translate(0 27.887)">
          <g id="Group_2263" data-name="Group 2263">
            <g id="Group_2262" data-name="Group 2262">
              <g id="Group_2261" data-name="Group 2261">
                <g id="Group_2260" data-name="Group 2260" transform="translate(2.661)">
                  <path id="Path_907" data-name="Path 907" d="M153.105,142.951s-7.109,1.1-7.693,6.169-.761,20.124-.761,23.341a13.758,13.758,0,0,1-2.17,8.162c-1.754,2.924-4.089,22.45-7.209,26.514-2.028,2.641,4.161-.031,4.161-.031s3.685-8.546,7.078-14.6a31.465,31.465,0,0,0,4.255-13.244c.389-2.242,2.046-17.545,2.339-20.957S153.105,142.951,153.105,142.951Z" transform="translate(-134.864 -142.951)" fill="#edb588"/>
                </g>
                <path id="Path_908" data-name="Path 908" d="M137.262,203.47a11.025,11.025,0,0,1-2.52,3.25c-1.256.838-2.705,3.278-2.477,4.84s1.411,1.867,2.1,1.372a1.1,1.1,0,0,0,1.676-.152c.571.647,1.1.458,1.41.077.5.457,1.382-.078,1.916-1.3-.458,0-.3-.367-.086-.875a5.155,5.155,0,0,0,.5-2.947,3.446,3.446,0,0,1,.353-2.72C140.574,204.229,137.262,203.47,137.262,203.47Z" transform="translate(-132.241 -142.055)" fill="#edb588"/>
              </g>
            </g>
          </g>
        </g>
        <g id="Group_2269" data-name="Group 2269" transform="translate(50.017 27.887)">
          <g id="Group_2268" data-name="Group 2268">
            <g id="Group_2267" data-name="Group 2267">
              <g id="Group_2266" data-name="Group 2266">
                <g id="Group_2265" data-name="Group 2265">
                  <path id="Path_909" data-name="Path 909" d="M181.658,142.951s7.108,1.1,7.692,6.169.762,20.124.762,23.341a13.764,13.764,0,0,0,2.169,8.162c1.755,2.924,4.089,22.45,7.21,26.514,2.028,2.641-4.162-.031-4.162-.031s-3.684-8.546-7.078-14.6A31.481,31.481,0,0,1,184,179.259c-.388-2.242-2.045-17.545-2.338-20.957S181.658,142.951,181.658,142.951Z" transform="translate(-181.528 -142.951)" fill="#edb588"/>
                </g>
                <path id="Path_910" data-name="Path 910" d="M197.348,203.47a11.006,11.006,0,0,0,2.52,3.25c1.256.838,2.705,3.278,2.477,4.84s-1.412,1.867-2.1,1.372a1.1,1.1,0,0,1-1.677-.152c-.57.647-1.1.458-1.409.077-.5.457-1.548-.026-2.081-1.245.4-.116.468-.42.252-.928a5.155,5.155,0,0,1-.5-2.947,3.45,3.45,0,0,0-.353-2.72C194.036,204.229,197.348,203.47,197.348,203.47Z" transform="translate(-181.337 -142.055)" fill="#edb588"/>
              </g>
            </g>
          </g>
        </g>
        <g id="Group_2274" data-name="Group 2274" transform="translate(19.601)">
          <path id="Path_911" data-name="Path 911" d="M155.776,144.651a216.551,216.551,0,0,1,22.814,0c5.03-3,.39-16.471-.916-18.145s-15.938-4.723-18.479-1.522S154.171,144.172,155.776,144.651Z" transform="translate(-151.501 -115.35)" fill="#18295b"/>
          <g id="Group_2271" data-name="Group 2271" transform="translate(24.486 5.852)">
            <g id="Group_2270" data-name="Group 2270">
              <path id="Path_912" data-name="Path 912" d="M176.624,121.585s2.145-1.023,2.486.44-2.339,6.627-3.412,3.557A10.908,10.908,0,0,1,176.624,121.585Z" transform="translate(-175.685 -121.237)" fill="#d57f64"/>
            </g>
          </g>
          <path id="Path_913" data-name="Path 913" d="M171.365,132.136s-.3,7.007.874,8.689,5.658,1.935,7.675,2.3c-.908,7.676-9.76,16.253-16.706,14.426S153.56,143,153.56,143s5.328.283,7.958-2.2,1.856-8.229,1.565-9.253S171.365,132.136,171.365,132.136Z" transform="translate(-151.526 -115.237)" fill="#edb588"/>
          <path id="Path_914" data-name="Path 914" d="M155.456,119.076s.333,18.379,11.957,20.795c3.26.69,12.458-5.609,11.957-20.795C177.613,110.964,155.456,119.076,155.456,119.076Z" transform="translate(-151.498 -115.471)" fill="#edb588"/>
          <g id="Group_2273" data-name="Group 2273" transform="translate(0 1.808)">
            <g id="Group_2272" data-name="Group 2272">
              <path id="Path_915" data-name="Path 915" d="M173.3,117.7a23.9,23.9,0,0,0,1.9,7.611c1.74,4.009,2.863,9.441,3.458,18.017,8.007-.1,2.4-3.879,3.049-8.121,1.06.434.044,3.534-.616,4.5,1.523-.254,4.166-5.732,1.423-11.122a45.946,45.946,0,0,1-3.788-11.335Z" transform="translate(-151.234 -117.252)" fill="#233884"/>
              <path id="Path_916" data-name="Path 916" d="M162.247,117.915a22.433,22.433,0,0,1-1.818,7.611c-1.742,4.009-4.6,11.429-3.125,17.393-8.008-.1-3.1-3.466-3.752-7.708-1.058.434-.042,3.534.619,4.5-1.524-.254-4.167-5.732-1.424-11.122a37.546,37.546,0,0,0,3.41-11.335Z" transform="translate(-151.556 -117.252)" fill="#233884"/>
            </g>
          </g>
        </g>
        <g id="Group_2283" data-name="Group 2283" transform="translate(5.029 27.411)">
          <path id="Path_917" data-name="Path 917" d="M190.571,231.6s4.378,4.02,4.6,4.706-2.189,2.2-6.629.774-10.272-2-26.447,0C160.507,229.759,185.179,224.622,190.571,231.6Z" transform="translate(-136.829 -140.647)" fill="#233884"/>
          <g id="Group_2282" data-name="Group 2282">
            <g id="Group_2279" data-name="Group 2279" transform="translate(13.166 65.459)">
              <path id="Path_918" data-name="Path 918" d="M165.337,214.171s-3.944,18.314-3.393,19.652c1.338,3.249,7.618,29.122,7.765,33.362s-1.7,12.164-5.506,13.771-3.949-3.947-3.949-3.947,2.926-6.287,3.51-10.819c.438-1.316-9.164-18.04-11.634-24.764s-2.15-20.236-1.487-30.065C153.862,209.313,165.337,214.171,165.337,214.171Z" transform="translate(-150.171 -205.904)" fill="#e8a679"/>
              <path id="Path_919" data-name="Path 919" d="M163.668,265.392s-.585,2.192,1.243,2.777,4.908-.8,5.927-3.361c.946,3.508.36,9.43-1.541,13.376s-3.437,10.6-7.239,10.746-6.944-3.8-4.313-10.087S163.668,265.392,163.668,265.392Z" transform="translate(-150.073 -205.105)" fill="#243a89"/>
              <g id="Group_2277" data-name="Group 2277" transform="translate(6.869 59.702)">
                <g id="Group_2276" data-name="Group 2276">
                  <g id="Group_2275" data-name="Group 2275">
                    <path id="Path_920" data-name="Path 920" d="M170.835,264.807c-.04.1-.1.185-.148.281a23.123,23.123,0,0,1-1.837,11.8c-1.9,3.948-3.436,10.6-7.238,10.746a4.873,4.873,0,0,1-4.673-2.867,4.986,4.986,0,0,0,5.117,4.164c3.8-.145,5.338-6.8,7.239-10.746S171.781,268.315,170.835,264.807Z" transform="translate(-156.939 -264.807)" fill="#fff"/>
                  </g>
                </g>
              </g>
              <path id="Path_921" data-name="Path 921" d="M168.394,212.537s.634,17.007,0,30.606-.195,24.562-2.68,33.772-3.217,11.4-3.143,14.693-1.106,7.6-.006,8.626,8.412-.365,8.923-1.316c-1.17-3.509-4.9-10.015-3.582-14.181s10.089-26.1,11.552-34.87-.878-12.866-.732-14.913,4.587-19.876,5.171-26.747S168.394,212.537,168.394,212.537Z" transform="translate(-149.994 -205.976)" fill="#edb588"/>
              <path id="Path_922" data-name="Path 922" d="M164.124,286.615s3.414-3.509,4.483,0,4.192,10.234,4.095,14.133-3.12,7.9-7.31,7.115-5.068-4.776-4.483-8.967,1.073-8.773.876-10.187a4.817,4.817,0,0,1,1.545-3.938C162.76,287.6,164.124,286.615,164.124,286.615Z" transform="translate(-150.014 -204.809)" fill="#293ea5"/>
              <g id="Group_2278" data-name="Group 2278" transform="translate(10.736 94.773)">
                <path id="Path_923" data-name="Path 923" d="M165.393,305.7c-3.1-.576-4.385-2.917-4.608-5.792-.25,3.717.83,7.035,4.608,7.737,4.19.78,7.211-3.216,7.31-7.115a9.193,9.193,0,0,0-.06-1.166C172.193,303,169.3,306.43,165.393,305.7Z" transform="translate(-160.75 -299.366)" fill="#fff"/>
              </g>
            </g>
            <g id="Group_2281" data-name="Group 2281">
              <path id="Path_924" data-name="Path 924" d="M155.656,142.665a6.95,6.95,0,0,0-5.034.732c1.518,4.045,2.751,8.59,1.882,12.6s-2.737,7.237.5,11.916,3.429,11.744,2.283,19.542c5.324,5.325,23.515,2.437,28.874,0-2.339-5.848-3.458-17.593-1.023-22.759s-1.048-8.334-.975-12.573a57.591,57.591,0,0,1,.9-9.163,22.532,22.532,0,0,0-4-.477,11.4,11.4,0,0,1-10.935,10.078C160.147,153.186,155.656,142.665,155.656,142.665Z" transform="translate(-136.998 -142.481)" fill="#e8a679"/>
              <path id="Path_925" data-name="Path 925" d="M182.642,177.415c-.492-4.914-.9-9.774.493-12.722,2.436-5.165-1.048-8.334-.975-12.573a57.591,57.591,0,0,1,.9-9.163,22.532,22.532,0,0,0-4-.477,11.4,11.4,0,0,1-10.935,10.078c-7.982.627-12.473-9.894-12.473-9.894a6.95,6.95,0,0,0-5.034.732c1.518,4.045,2.751,8.59,1.882,12.6s-2.737,7.237.5,11.916c1.817,2.627,2,5.2,2.2,9.04C163.234,181.094,174.993,181.424,182.642,177.415Z" transform="translate(-136.998 -142.481)" fill="#1d5b79"/>
              <g id="Group_2280" data-name="Group 2280" transform="translate(0 38.555)">
                <path id="Path_926" data-name="Path 926" d="M182.663,180.473a30.1,30.1,0,0,1,4.605,7.4c3.237,7.928,8.489,47.967,8.27,49.137-10.994-11.163-21.871-2.578-28.559-.076-7,2.618-25.3,3.9-29.782-2.537.778-12.67,15.518-48.079,18.826-53.658C160.472,183.472,176.276,186.126,182.663,180.473Z" transform="translate(-137.197 -180.473)" fill="#0d415d"/>
                <path id="Path_927" data-name="Path 927" d="M162.808,228.418l0-.078Z" transform="translate(-136.818 -179.764)" fill="#3b4cbe"/>
                <path id="Path_928" data-name="Path 928" d="M179.67,182.1a23,23,0,0,1-9.409,1.683c3.925,15.2-6.211,29.274-7.42,44.764-.008.159-.023.321-.029.479l0,.078a27.723,27.723,0,0,0,.916,8.66,24.749,24.749,0,0,0,2.875-.85c3.458-1.293,8.038-4.208,13.174-5.184C182.823,215.41,189.44,197.336,179.67,182.1Z" transform="translate(-136.818 -180.449)" fill="#0d415d"/>
                <path id="Path_929" data-name="Path 929" d="M185.028,184.133a14.385,14.385,0,0,0-2.611-3.66c-6.386,5.652-22.191,3-26.64.269-.442.991-1.37,2.349-1.974,3.915C164.159,190.425,177.613,190.162,185.028,184.133Z" transform="translate(-136.951 -180.473)" fill="#233884"/>
              </g>
            </g>
          </g>
        </g>
      </g>
      <path id="Path_930" data-name="Path 930" d="M155.781,119.349s-.4-8.564,3.528-9.325c4.609-3.425,14.376-3.172,17.632,1.014s2.4,7.927,3.208,11.025c-2.87,3.732-5.28.858-5.28.858s-11.881.254-14.418-5.074C160.113,119.495,155.781,119.349,155.781,119.349Z" transform="translate(-118.106 -107.657)" fill="#233884"/>
    </g>
  </g>
</svg>
