<svg id="files-transit" xmlns="http://www.w3.org/2000/svg" width="24" height="24" viewBox="0 0 24 24">
  <path id="Path_1591" data-name="Path 1591" d="M323.745,9.261a.881.881,0,0,1-.881-.881V1.761h-6.618a.881.881,0,0,1,0-1.761h7.5a.881.881,0,0,1,.881.881v7.5A.881.881,0,0,1,323.745,9.261Z" transform="translate(-300.626)" fill="#fff"/>
  <path id="Path_1592" data-name="Path 1592" d="M218.779,22.5a.881.881,0,0,1-.62-1.506l13.4-13.277A.881.881,0,0,1,232.8,8.967L219.4,22.244A.877.877,0,0,1,218.779,22.5Z" transform="translate(-209.552 -6.971)" fill="#fff"/>
  <path id="Path_1593" data-name="Path 1593" d="M16.964,65.51H4.122A4.127,4.127,0,0,1,0,61.388V48.546a4.127,4.127,0,0,1,4.122-4.122h8.244a.687.687,0,0,1,0,1.374H4.122a2.751,2.751,0,0,0-2.748,2.748V61.388a2.751,2.751,0,0,0,2.748,2.748H16.964a2.751,2.751,0,0,0,2.748-2.748V52.84a.687.687,0,0,1,1.374,0v8.548A4.127,4.127,0,0,1,16.964,65.51Z" transform="translate(0 -41.51)" fill="#fff"/>
</svg>
